/* XPM */
static char *result[] = {
/* columns rows colors chars-per-pixel */
"64 64 146 2 ",
"   c #000000",
".  c #080705",
"X  c #060A0F",
"o  c #0C0A08",
"O  c #150304",
"+  c #1A0405",
"@  c #100D0A",
"#  c #0E1115",
"$  c #0C141E",
"%  c #171616",
"&  c #181411",
"*  c #1F1A15",
"=  c #1A1B1D",
"-  c #250507",
";  c #2B0608",
":  c #2A0B0F",
">  c #34080A",
",  c #3D0A0C",
"<  c #2B0F16",
"1  c #3B0E13",
"2  c #201B16",
"3  c #27131C",
"4  c #241E18",
"5  c #341312",
"6  c #34121B",
"7  c #3B121A",
"8  c #3E1F1B",
"9  c #27201A",
"0  c #28221C",
"q  c #0F1926",
"w  c #141B24",
"e  c #121E2D",
"r  c #181F2F",
"t  c #2A1622",
"y  c #2C1825",
"u  c #2F1D2C",
"i  c #331926",
"p  c #341F2E",
"a  c #1D2025",
"s  c #17202B",
"d  c #1C222B",
"f  c #152335",
"g  c #18283D",
"h  c #242424",
"j  c #2E2720",
"k  c #2E2B24",
"l  c #322A23",
"z  c #393027",
"x  c #35312F",
"c  c #3D332A",
"v  c #2C2233",
"b  c #262D36",
"n  c #2C2E34",
"m  c #2D263A",
"M  c #232B39",
"N  c #322334",
"B  c #302F32",
"V  c #303032",
"C  c #440B0E",
"Z  c #4A0C0F",
"A  c #430F15",
"S  c #4C0C10",
"D  c #550E12",
"F  c #4C1415",
"G  c #41131B",
"H  c #411B18",
"J  c #531E1C",
"K  c #5C1819",
"L  c #5D201E",
"P  c #62211F",
"I  c #68281E",
"U  c #462521",
"Y  c #492B24",
"T  c #542F26",
"R  c #41372D",
"E  c #433A2C",
"W  c #493D33",
"Q  c #453E3A",
"!  c #493F38",
"~  c #682A25",
"^  c #6F3123",
"/  c #6E342C",
"(  c #753A27",
")  c #753E33",
"_  c #4D422F",
"`  c #4E4135",
"'  c #504337",
"]  c #574A32",
"[  c #5A4932",
"{  c #534539",
"}  c #57493C",
"|  c #5B4C3E",
" . c #7B422B",
".. c #664A3D",
"X. c #764638",
"o. c #7B4739",
"O. c #6C5A39",
"+. c #755737",
"@. c #7C5635",
"#. c #1B2D44",
"$. c #1F3147",
"%. c #1E324C",
"&. c #2D2B41",
"*. c #2E2F48",
"=. c #23344A",
"-. c #2E344F",
";. c #213754",
":. c #2A3754",
">. c #2F3856",
",. c #223A59",
"<. c #2F3D5E",
"1. c #313A57",
"2. c #274163",
"3. c #284163",
"4. c #2B466B",
"5. c #2A486E",
"6. c #304264",
"7. c #30476C",
"8. c #2E4B72",
"9. c #304B72",
"0. c #31507A",
"q. c #5E4E41",
"w. c #684F42",
"e. c #665546",
"r. c #6D5B4A",
"t. c #725C4C",
"y. c #7F6A40",
"u. c #756250",
"i. c #796452",
"p. c #7D6855",
"a. c #824A2F",
"s. c #885333",
"d. c #8E5C38",
"f. c #95653C",
"g. c #825040",
"h. c #885A47",
"j. c #8E644D",
"k. c #856A50",
"l. c #956E54",
"z. c #977759",
"x. c #A27644",
"c. c #AF884D",
"v. c #BC9955",
"b. c #A28061",
"n. c #AF936E",
"m. c #BCA77C",
/* pixels */
",.,.,.,.,.0.0.5.5.5.5.5.0.5.5.5.5.5.0.0.5.5.5.5.5.0.0.,.;.,.,.,.,.,.;.,.,.0.0.5.7.5.5.5.0.5.5.5.5.5.0.0.5.5.5.5.5.0.0.,.,.,.,.,.",
",.0.0.0.0.0.0.0.0.0.0.0.0.0.0.0.0.0.0.0.0.0.0.0.0.0.0.0.0.0.<.; 3 0.0.0.0.0.0.0.0.0.0.0.0.0.0.0.0.0.0.0.0.0.0.0.0.0.0.0.0.0.0.,.",
",.0.0.0.0.0.0.0.0.0.0.0.0.0.0.0.0.0.0.0.0.0.0.0.0.0.0.0.0.0.<.; 3 0.0.0.0.0.0.0.0.0.0.0.0.0.0.0.0.0.0.0.0.0.0.0.0.0.0.0.0.0.0.,.",
";.0.0.0.0.0.0.0.0.0.0.0.0.0.0.0.0.0.0.0.0.0.0.0.0.0.0.0.>.< 6 Z C < y 0.0.0.0.0.0.0.0.0.0.0.0.0.0.0.0.0.0.0.0.0.0.0.0.0.0.0.0.,.",
",.0.0.0.0.0.0.0.0.0.0.0.0.0.0.0.0.0.0.0.0.0.0.0.0.0.0.0.-.; > D Z ; < 0.0.0.0.0.0.0.0.0.0.0.0.0.0.0.0.0.0.0.0.0.0.0.0.0.0.0.0.;.",
"0.0.0.0.0.0.0.0.0.0.0.0.0.0.0.0.0.0.0.0.m < < < *.0.>.< > D / n.l.S S < y 0.0.< < < < 7.0.0.0.0.0.0.0.0.0.0.0.0.0.0.0.0.0.0.0.0.",
"0.0.0.0.0.0.0.0.0.0.0.0.0.0.0.0.0.0.0.0.v ; ; ; &.0.:.; , D / m.z.D D ; < 0.0.; - - ; 7.0.0.0.0.0.0.0.0.0.0.0.0.0.0.0.0.0.0.0.0.",
"0.0.0.0.0.0.0.0.0.0.0.0.0.0.0.0.m y y y 1 Z S F 7 y < ; , D K / / D S - : y y S S S S i y y y 6.0.0.0.0.0.0.0.0.0.0.0.0.0.0.0.0.",
"0.0.0.0.0.0.0.0.0.0.0.0.0.0.0.0.y ; ; ; C D D D , ; ; - , D D D D D D ; ; ; ; D D D D ; ; ; ; <.0.0.0.0.0.0.0.0.0.0.0.0.0.0.0.0.",
"0.0.0.0.0.0.0.0.0.0.0.0.0.0.m y A C S Z D D o.z.X.S , ; T b.j.D ~ b.z.; ; Z C b.b.~ D Z S S Z t y >.0.0.0.0.0.0.0.0.0.0.0.0.0.0.",
"0.0.0.0.0.0.0.0.0.0.0.0.0.0.y - S D D D D D h.m.h.D C ; [ m.b.D / m.n.- > D D m.m.P D D D D D > - -.0.0.0.0.0.0.0.0.0.0.0.0.0.0.",
"0.0.0.0.0.0.0.0.0.0.0.0.m v G C D D o.l./ D ~ o.h.l.X.S J o. .D K o.) C F l.l.o.o.K D j.l.P D S Z i v <.0.0.0.0.0.0.0.0.0.0.0.0.",
"0.0.0.0.0.0.0.0.0.0.0.0.< ; Z D D D l.m.o.D D D h.m.l.D F D D D D D D D P m.m.D D D D n.m./ D D D , - -.0.0.0.0.0.0.0.0.0.0.0.0.",
"0.0.0.0.0.0.0.0.0.0.0.0.>.:.1 , D D / o.h.l.) D ~ o./ D ^ f.f.f.f.f.d.D K o.o.D D j.l.o.o.P D , , N -.7.0.0.0.0.0.0.0.0.0.0.0.0.",
"0.0.0.0.0.0.0.0.0.0.0.0.0.0.y - S D D D l.m.h.D D D D D  .v.v.v.v.v.c.D D D D D D n.m.P D D D > ; -.0.0.0.0.0.0.0.0.0.0.0.0.0.0.",
"0.0.0.0.0.0.0.0.0.0.0.0.0.0.y ; S D D D ) h./ D D D I s.+.O.O.O.O.O.O.s.a.D D D D s.h.K D D D > - -.0.0.0.0.0.0.0.0.0.0.0.0.0.0.",
"0.0.0.0.0.0.0.0.0.0.0.0.0.0.t - S D D D D D D D D D  .v.f.w = = = = k v.c.D D D D D D D D D D > ; -.0.0.0.0.0.0.0.0.0.0.0.0.0.0.",
"0.0.0.0.0.0.0.0.0.0.0.0.0.0.-.&.7 , Z D ) h./ D ^ s.+.O._ = = = = = h O.O.s.s.D D g.h.K D C C N &.6.0.0.0.0.0.0.0.0.0.0.0.0.0.0.",
"0.0.0.0.0.0.0.0.0.0.0.0.0.0.0.0.y ; A D l.m.h.D s.v.f.= = = = = = = = = l v.v.D D n.m.P D > - <.0.0.0.0.0.0.0.0.0.0.0.0.0.0.0.0.",
"0.0.0.0.0.0.0.0.0.0.0.0.0.0.0.0.*.v 7 C o.l.) D @.v.y.= = = = = = = = = k v.v.D D j.l.F C p v 6.0.0.0.0.0.0.0.0.0.0.0.0.0.0.0.0.",
"0.0.0.0.0.0.0.0.0.0.0.0.0.0.0.0.0.0.v - C D D D s.v.y.= = = = = = = = = l v.v.D D D D > ; <.0.0.0.0.0.0.0.0.0.0.0.0.0.0.0.0.0.0.",
"0.0.0.0.0.0.0.0.0.0.0.0.0.0.0.0.0.0.-.v 7 C S D ( f.+.] E = = = = = 0 ] [ f.f.D D Z C u v 6.0.0.0.0.0.0.0.0.0.0.0.0.0.0.0.0.0.0.",
"0.0.0.0.0.0.0.0.0.0.0.0.0.0.0.0.0.0.0.0.v - C D D D  .v.y.= = = = = k v.c.D D D D ; - 7.0.0.0.0.0.0.0.0.0.0.0.0.0.0.0.0.0.0.0.0.",
"0.0.0.0.0.0.0.0.0.0.0.0.0.0.0.0.0.0.7.<.i > J / P D ( x.+.c E E c E ] x.f.D D / / A > 1.<.9.0.0.0.0.0.0.0.0.0.0.0.0.0.0.0.0.0.0.",
"0.0.0.0.0.0.0.0.0.0.0.0.0.0.0.0.0.0.v ; , D h.m.h.D D D  .v.v.v.v.v.c.D D D D m.m.~ D > ; <.0.0.0.0.0.0.0.0.0.0.0.0.0.0.0.0.0.0.",
"0.0.0.0.0.0.0.0.0.0.0.0.0.0.0.0.0.0.v ; L / h.b.o.D D D ( x.x.x.x.x.f.D D D D b.z./ / 1 ; <.0.0.0.0.0.0.0.0.0.0.0.0.0.0.0.0.0.0.",
"0.0.0.0.0.0.0.0.0.0.0.0.0.0.0.0.0.0.v ; k.m.h.D D D D D D D D D D D D D D D D D D n.m.H - <.0.0.0.0.0.0.0.0.0.0.0.0.0.0.0.0.0.0.",
",.0.0.0.0.0.0.0.0.0.0.0.0.0.0.0.7.4.u > h.n.g.D D D K ~ K D D S D D D ~ P D D D K z.n.G > -.7.0.0.0.0.0.0.0.0.0.0.0.0.0.0.0.0.,.",
",.0.0.0.0.0.0.0.0.0.0.0.0.0.0.0.y ; C D D D D D D D o.m.l.D S ; > D P m.n.D D D D D D D D > ; <.0.0.0.0.0.0.0.0.0.0.0.0.0.0.0.,.",
",.0.0.0.0.0.0.0.0.0.0.0.0.0.0.0.y ; C D D D K P K D ) n.j.Z S 5 , S L n.b.D D P P D D D D > - <.0.0.0.0.0.0.0.0.0.0.0.0.0.0.0.,.",
",.0.0.0.0.0.0.0.0.0.0.0.0.0.0.0.y ; C D D D h.m.h.D D D C ; 8 p.e.; > D D D D m.m.P D D D > ; <.0.0.0.0.0.0.0.0.0.0.0.0.0.0.0.,.",
";.,.,.,.,.0.0.5.5.5.5.5.0.5.5.5.t - C D D D h.m.h.D D D C ; 8 p.w.; ; D D D D m.m.P D D D > - :.5.5.5.0.5.5.5.5.4.0.0.,.,.,.,.,.",
";.,.,.,.;.0.0.5.5.5.5.5.0.5.5.5.t ; C D l.m.h.D D D A - Y p.t.R ` p.t.; ; D D D D n.m.P D , ; :.5.5.5.0.8.5.5.5.5.0.0.,.,.;.,.,.",
",.0.0.0.0.0.0.0.0.0.0.0.0.0.0.0.y ; C D l.m.h.D D D C ; Y p.r.R ' p.t.; > D D D D n.m.P D > - <.0.0.0.0.0.0.0.0.0.0.0.0.0.0.0.,.",
",.0.0.0.0.0.0.0.0.0.0.0.0.0.q X q.t.U ; F P A > > ; U t.i.p.r.R ' p.p.t.w.; ; > > J P > ; ..t.* X ;.0.0.0.0.0.0.0.0.0.0.0.0.0.,.",
",.0.0.0.0.0.0.0.0.0.0.0.0.0.q   q.p.Y ; C D C ; ; ; Y p.p.p.r.c ' p.p.p.t.; ; ; ; S D ; ; w.p.2   %.0.0.0.0.0.0.0.0.0.0.0.0.0.,.",
",.0.0.0.0.0.0.0.0.0.0.0.$ X l c e.p.i.t.U > +   2 z R W W W } u.e.W W W W z R     ; > w.t.i.p.W z % X ;.0.0.0.0.0.0.0.0.0.0.0.,.",
"0.0.0.0.0.0.0.0.0.0.0.0.X   l c r.p.p.p.Y ; O   2 R R R R c ' p.r.E c E R R R     - ; t.p.p.p.' R &   %.0.0.0.0.0.0.0.0.0.0.0.0.",
"0.0.0.0.0.0.0.0.0.0.0.0.X   ' r.p.p.E 2 M <.r   z r.t.r.r.r.u.p.i.r.r.t.r.r.t.    -.<.h * e.p.u.r.0   %.0.0.0.0.0.0.0.0.0.0.0.0.",
"0.0.0.0.0.0.0.0.0.0.0.0.X   q.p.p.p.j   %.0.g   c p.p.p.p.p.p.p.p.p.p.p.p.p.p.    4.0.X   q.p.p.p.j   =.0.0.0.0.0.0.0.0.0.0.0.0.",
"0.0.0.0.0.0.0.0.0.0.e $ 0 l r.p.l 2 g ,.9.0.g   0 ' q.p.p.p.u.' q.p.p.p.i.' '     4.0.,.,.h * e.p.W l a $ %.0.0.0.0.0.0.0.0.0.0.",
"0.0.0.0.0.0.0.0.0.0.X   z R r.p.*   %.0.0.0.g   2 R } p.p.p.r.c ' p.p.p.u.R E     5.0.0.0.$   q.p.} R &   g 0.0.0.0.0.0.0.0.0.0.",
"0.0.0.0.0.0.0.0.0.0.X   z R r.p.*   %.0.0.0.3.=.d % j } } } w.e.q.q.} } ' & & %.=.9.0.0.0.$   q.p.} R &   g 0.0.0.0.0.0.0.0.0.0.",
"0.0.0.0.0.0.0.0.0.0.X   z R r.p.*   %.0.0.0.0.0.g   & R R R ` p.r.R R c z     0.0.0.0.0.0.$   | k.} R &   g 0.0.0.0.0.0.0.0.0.0.",
"0.0.0.0.0.0.0.0.e e ! ` e.e.u.p.q.` n e ,.0.0.0.g   0 e.e.e.e.p.u.e.e.e.q.    0.0.0.0.f e Q ` r.p.r.e.} ` B e ;.0.0.0.0.0.0.0.0.",
"0.0.0.0.0.0.0.0.    r.p.p.p.p.p.p.p.j   ;.0.0.0.#.  j p.p.p.p.p.p.p.p.p.r.    0.0.0.0.X   q.p.p.p.p.p.p.p.c   g 0.0.0.0.0.0.0.0.",
"0.0.0.0.0.0.0.0.    r.p.p.p.` c r.p.j   =.0.,.g d * E p.p.p.p.p.p.p.p.p.t.* * #.g 8.0.X   q.p.` c e.p.p.p.c   g 0.0.0.0.0.0.0.0.",
"0.0.0.0.0.0.0.0.    r.p.p.p.2   q.p.j   %.0.g   * c q.p.p.p.p.p.p.p.p.p.u.R R     5.0.X   q.p.*   ' p.p.p.c   g 0.0.0.0.0.0.0.0.",
"0.0.0.0.0.0.0.0.    r.p.E c M g V R b g g g n c ' q.e.q.r.p.p.p.p.p.i.q.q.q.e.c R g g g g x c M g n c e.p.c   g 0.0.0.0.0.0.0.0.",
"0.0.0.0.0.0.0.0.    r.p.@   ,.0.$   =.0.e   c p.p.p.e.c } p.p.p.p.p.u.R W p.p.p.p.@   4.0.q   ,.0.e   ` p.c   g 0.0.0.0.0.0.0.0.",
"0.0.0.0.0.0.0.0.e e W ` s f 3.0.#.e ,.0.e   c p.p.p.r.} q.e.q.` } e.e.} } p.p.p.p.@   4.0.#.e 2.0.=.e x ` B e ;.0.0.0.0.0.0.0.0.",
"0.0.0.0.0.0.0.0.0.0.X   4.0.0.0.0.0.0.0.e   c p.p.p.p.p.e.E l   o E W p.p.p.p.p.p.@   4.0.0.0.0.0.0.0.e   g 0.0.0.0.0.0.0.0.0.0.",
"0.0.0.0.0.0.0.0.0.0.f e 8.0.0.0.0.0.,.=.d & W p.p.p.p.p.q.0 h e w 0 l k.p.p.p.p.p.4 & #.%.8.0.0.0.0.0.%.e ;.0.0.0.0.0.0.0.0.0.0.",
"0.0.0.0.0.0.0.0.0.0.0.0.0.0.0.0.0.0.f   0 E q.p.p.p.p.p.`   $ 0.,.  # p.p.p.p.p.p.W R . . ,.0.0.0.0.0.0.0.0.0.0.0.0.0.0.0.0.0.0.",
"0.0.0.0.0.0.0.0.0.0.0.0.0.0.0.0.3.,.$   l ' e.p.p.p.u.q.c $ f 0.3.$ d | q.p.p.p.k.{ ' o   #.,.9.0.0.0.0.0.0.0.0.0.0.0.0.0.0.0.0.",
"0.0.0.0.0.0.0.0.0.0.0.0.0.0.0.0.$       ! p.p.p.p.p.`   e 0.0.0.0.0.4.  o p.p.p.p.p.p.@       ,.0.0.0.0.0.0.0.0.0.0.0.0.0.0.0.0.",
"0.0.0.0.0.0.0.0.0.0.0.0.2.,.,.,.a 2 * * q.p.p.p.u.r.E   e 0.0.0.0.0.4.  @ r.r.p.p.p.p.9 * * * =.,.,.,.4.0.0.0.0.0.0.0.0.0.0.0.0.",
"0.0.0.0.0.0.0.0.0.0.0.0.X     . q.p.p.p.p.p.p.p.q.R 0   e 0.0.0.0.0.4.  . R R p.p.p.p.p.p.p.p.*       %.0.0.0.0.0.0.0.0.0.0.0.0.",
"0.0.0.0.0.0.0.0.0.0.4.4.# . . . q.p.p.p.p.p.i.u.} z h X f 0.0.0.0.0.4.X # c c u.u.p.p.p.p.p.p.9 o . . $.4.8.0.0.0.0.0.0.0.0.0.0.",
",.0.0.0.0.0.0.0.0.0.X   c R R R r.p.p.p.p.p.q.E 2   e 0.0.0.0.,.,.0.0.0.4.    R R u.p.p.p.p.p.' E E R &   g 0.0.0.0.0.0.0.0.0.,.",
",.0.0.0.0.0.0.0.0.0.X   j z z z q.r.r.r.r.r.' c *   e 0.0.0.0.,.,.0.0.0.4.    z z e.r.r.r.r.r.W z c z @   g 0.0.0.0.0.0.0.0.0.,.",
",.0.0.0.0.0.0.0.0.0.X                               e 0.0.0.0.,.,.0.0.0.4.                                g 0.0.0.0.0.0.0.0.0.,.",
",.0.0.0.0.0.0.0.0.0.X                               e 0.0.0.0.,.,.0.0.0.4.                                g 0.0.0.0.0.0.0.0.0.,.",
",.;.,.,.,.0.0.5.5.5.5.5.0.5.5.5.5.5.0.0.5.5.5.5.5.0.0.,.;.,.,.,.,.;.,.,.,.0.0.5.5.5.5.5.0.5.5.5.5.8.0.0.5.5.5.5.5.0.0.,.,.,.,.,."
};
