/* XPM */
static char *_2abc2c8642244448c087ac2ead0546cMHGadafwTTRtgDWv[] = {
/* columns rows colors chars-per-pixel */
"64 64 151 2 ",
"   c #000000",
".  c #080605",
"X  c #060A0F",
"o  c #0C0A08",
"O  c #150304",
"+  c #1D0406",
"@  c #100D0A",
"#  c #14110E",
"$  c #0E1115",
"%  c #0C141E",
"&  c #171616",
"*  c #181411",
"=  c #1F1A15",
"-  c #1A1B1D",
";  c #250507",
":  c #2B0608",
">  c #2A0B0F",
",  c #34080A",
"<  c #3D0A0C",
"1  c #2B0F16",
"2  c #3B0E13",
"3  c #201B16",
"4  c #27131C",
"5  c #241E18",
"6  c #341312",
"7  c #371816",
"8  c #3C1A16",
"9  c #3B121A",
"0  c #3E1F1B",
"q  c #27201A",
"w  c #28221C",
"e  c #0F1926",
"r  c #141B24",
"t  c #121E2D",
"y  c #181F2F",
"u  c #2A1622",
"i  c #2C1825",
"p  c #2F1D2C",
"a  c #331926",
"s  c #341F2E",
"d  c #1D2025",
"f  c #17202B",
"g  c #1C222B",
"h  c #152335",
"j  c #18283D",
"k  c #232324",
"l  c #2E2720",
"z  c #2E2B24",
"x  c #322A23",
"c  c #393027",
"v  c #35312F",
"b  c #3D332A",
"n  c #2C2233",
"m  c #262D36",
"M  c #2C2E34",
"N  c #2D263A",
"B  c #222B38",
"V  c #322334",
"C  c #302F32",
"Z  c #303032",
"A  c #440B0E",
"S  c #4A0C0F",
"D  c #430F15",
"F  c #4C0C10",
"G  c #550E12",
"H  c #4C1415",
"J  c #41131B",
"K  c #531E1C",
"L  c #5C1819",
"P  c #5D201E",
"I  c #62211F",
"U  c #68281E",
"Y  c #462521",
"T  c #492B24",
"R  c #542F26",
"E  c #41372D",
"W  c #433A2C",
"Q  c #493D33",
"!  c #453E3A",
"~  c #493F38",
"^  c #682A25",
"/  c #6F3123",
"(  c #6E342C",
")  c #753A27",
"_  c #753E33",
"`  c #4D422F",
"'  c #4E4135",
"]  c #504337",
"[  c #574A32",
"{  c #5A4932",
"}  c #534539",
"|  c #57493C",
" . c #5B4C3E",
".. c #7B422B",
"X. c #614234",
"o. c #63493D",
"O. c #764638",
"+. c #7B4739",
"@. c #6C5A39",
"#. c #755737",
"$. c #7C5635",
"%. c #1B2D44",
"&. c #1F3147",
"*. c #1E324C",
"=. c #1F3652",
"-. c #2D2B41",
";. c #2E2F48",
":. c #23344A",
">. c #2E344F",
",. c #223754",
"<. c #2A3754",
"1. c #2F3856",
"2. c #223A59",
"3. c #2F3D5E",
"4. c #313A57",
"5. c #274163",
"6. c #294163",
"7. c #2B466B",
"8. c #2A486E",
"9. c #304264",
"0. c #30476C",
"q. c #2E4B72",
"w. c #304B72",
"e. c #31507A",
"r. c #5E4E41",
"t. c #634E41",
"y. c #684F42",
"u. c #665546",
"i. c #6D5B4A",
"p. c #725D4C",
"a. c #7F6A40",
"s. c #756250",
"d. c #796451",
"f. c #7D6855",
"g. c #824A2F",
"h. c #885333",
"j. c #8E5C38",
"k. c #95653C",
"l. c #825040",
"z. c #885A47",
"x. c #81614A",
"c. c #8E644D",
"v. c #856A50",
"b. c #956E54",
"n. c #977759",
"m. c #A27644",
"M. c #AF884D",
"N. c #BC9955",
"B. c #A28061",
"V. c #AF936E",
"C. c #BCA77C",
/* pixels */
"2.2.2.2.2.e.e.8.8.8.8.8.e.8.8.8.8.8.e.e.8.8.8.8.8.e.e.2.2.2.2.2.=.2.,.2.2.e.e.8.8.8.8.8.e.8.8.8.8.8.e.e.8.8.8.8.8.e.e.2.2.2.2.2.",
"2.e.e.e.e.e.e.e.e.e.e.e.e.e.e.e.e.e.e.e.e.e.e.e.e.e.e.e.e.e.3.: 4 e.e.e.e.e.e.e.e.e.e.e.e.e.e.e.e.e.e.e.e.e.e.e.e.e.e.e.e.e.e.2.",
"=.e.e.e.e.e.e.e.e.e.e.e.e.e.e.e.e.e.e.e.e.e.e.e.e.e.e.e.e.e.3.: 4 e.e.e.e.e.e.e.e.e.e.e.e.e.e.e.e.e.e.e.e.e.e.e.e.e.e.e.e.e.e.2.",
"2.e.e.e.e.e.e.e.e.e.e.e.e.e.e.e.e.e.e.e.e.e.e.e.e.e.e.e.1.1 6 S D 1 i e.e.e.e.e.e.e.e.e.e.e.e.e.e.e.e.e.e.e.e.e.e.e.e.e.e.e.e.2.",
"2.e.e.e.e.e.e.e.e.e.e.e.e.e.e.e.e.e.e.e.e.e.e.e.e.e.e.e.>.: , G S : 1 e.e.e.e.e.e.e.e.e.e.e.e.e.e.e.e.e.e.e.e.e.e.e.e.e.e.e.e.2.",
"e.e.e.e.e.e.e.e.e.e.e.e.e.e.e.e.e.e.e.e.N 1 1 1 ;.e.1.1 2 S ( V.b.F S 1 i e.e.1 1 1 1 0.e.e.e.e.e.e.e.e.e.e.e.e.e.e.e.e.e.e.e.e.",
"e.e.e.e.e.e.e.e.e.e.e.e.e.e.e.e.e.e.e.e.n : : : -.e.>.: < G ( C.n.G G : 1 e.e.: ; : ; 0.e.e.e.e.e.e.e.e.e.e.e.e.e.e.e.e.e.e.e.e.",
"e.e.e.e.e.e.e.e.e.e.e.e.e.e.e.e.N i i i 2 S S S 9 i 1 : < G L ( ( G F : > i i S F F F a i i u 9.e.e.e.e.e.e.e.e.e.e.e.e.e.e.e.e.",
"e.e.e.e.e.e.e.e.e.e.e.e.e.e.e.e.u : : : A G G G < : : : < G G G G L G : ; : : L G G G , : : ; 3.e.e.e.e.e.e.e.e.e.e.e.e.e.e.e.e.",
"e.e.e.e.e.e.e.e.e.e.e.e.e.e.N i D S S S G G +.B.O.S < : R B.c.G ^ n.n.; : F F n.n.^ G F S F F a u 1.e.e.e.e.e.e.e.e.e.e.e.e.e.e.",
"e.e.e.e.e.e.e.e.e.e.e.e.e.e.i : S G G G G G z.C.z.G A : X.C.n.G ( C.V.: , G G C.C.I G G G G G , ; >.e.e.e.e.e.e.e.e.e.e.e.e.e.e.",
"e.e.e.e.e.e.e.e.e.e.e.e.N n 9 A G G +.b.( G ^ O.z.b.O.A P +.O.G L +._ A H b.b.+.+.L G c.b.I G F F a n 3.e.e.e.e.e.e.e.e.e.e.e.e.",
"e.e.e.e.e.e.e.e.e.e.e.e.1 : S G G G b.C.+.G G G z.C.b.G G G G G G G G G I C.C.G G G G V.C.( G G G < ; >.e.e.e.e.e.e.e.e.e.e.e.e.",
"e.e.e.e.e.e.e.e.e.e.e.e.1.<.2 < G G ( +.z.b.O.G ^ +.( G / k.k.k.k.k.j.G L +.+.G G c.b.g.+.I G A < V >.0.e.e.e.e.e.e.e.e.e.e.e.e.",
"e.e.e.e.e.e.e.e.e.e.e.e.e.e.i : S G G G b.C.z.G G G G G ..N.N.N.N.N.M.G G G G G G V.C.I G G G , ; >.e.e.e.e.e.e.e.e.e.e.e.e.e.e.",
"e.e.e.e.e.e.e.e.e.e.e.e.e.e.i : S G G G _ z.( G G G U h.$.@.@.@.@.@.@.h.g.G G G G l.z.L G G G , : >.e.e.e.e.e.e.e.e.e.e.e.e.e.e.",
"e.e.e.e.e.e.e.e.e.e.e.e.e.e.i ; F G G G G G G G G G ..N.a.- - - - - z N.M.G G G G G G G G G G , : >.e.e.e.e.e.e.e.e.e.e.e.e.e.e.",
"e.e.e.e.e.e.e.e.e.e.e.e.e.e.<.;.9 < S G _ z.( G / h.$.@.` - - - - - w @.#.h.h.G G l.z.L G A < V -.9.e.e.e.e.e.e.e.e.e.e.e.e.e.e.",
"e.e.e.e.e.e.e.e.e.e.e.e.e.e.e.e.i ; F G b.C.z.G h.N.a.- - - - - - - - - z N.N.G G V.C.I G , : 3.e.e.e.e.e.e.e.e.e.e.e.e.e.e.e.e.",
"e.e.e.e.e.e.e.e.e.e.e.e.e.e.e.e.;.n 9 D O.b._ G h.N.a.- - - - - - - - - z N.N.G G c.b.H A s n 9.e.e.e.e.e.e.e.e.e.e.e.e.e.e.e.e.",
"e.e.e.e.e.e.e.e.e.e.e.e.e.e.e.e.e.e.n : A G G G h.N.a.- - - - - - - - - z N.N.G G G G , : 3.e.e.e.e.e.e.e.e.e.e.e.e.e.e.e.e.e.e.",
"e.e.e.e.e.e.e.e.e.e.e.e.e.e.e.e.e.e.;.n 9 A F G ) k.$.[ W - - - - - k [ { k.k.G G S D a n 9.e.e.e.e.e.e.e.e.e.e.e.e.e.e.e.e.e.e.",
"e.e.e.e.e.e.e.e.e.e.e.e.e.e.e.e.e.e.e.e.n : A G G G ..N.j.- - - - - z N.M.G G G G , : 7.e.e.e.e.e.e.e.e.e.e.e.e.e.e.e.e.e.e.e.e.",
"e.e.e.e.e.e.e.e.e.e.e.e.e.e.e.e.e.e.7.3.a , K ( I F ..m.@.W W W ` b [ m.k.G G ( ( 2 , 4.3.w.e.e.e.e.e.e.e.e.e.e.e.e.e.e.e.e.e.e.",
"e.e.e.e.e.e.e.e.e.e.e.e.e.e.e.e.e.e.n ; A G z.C.z.G G G _ N.N.N.N.N.M.G G G G C.C.^ G , : 3.e.e.e.e.e.e.e.e.e.e.e.e.e.e.e.e.e.e.",
"e.e.e.e.e.e.e.e.e.e.e.e.e.e.e.e.e.e.V : K ( z.n.y.G G G ) m.m.m.m.m.k.G G G G B.n._ ( 2 : 3.e.e.e.e.e.e.e.e.e.e.e.e.e.e.e.e.e.e.",
"e.e.e.e.e.e.e.e.e.e.e.e.e.e.e.e.e.e.n ; v.C.z.G G G G G G G G G F G G G G G G G G V.C.8 : 3.e.e.e.e.e.e.e.e.e.e.e.e.e.e.e.e.e.e.",
"=.e.e.e.e.e.e.e.e.e.e.e.e.e.e.e.0.0.p , x.V.h.G G G L U L G G G G G G P I G G G G n.V.J : >.0.e.e.e.e.e.e.e.e.e.e.e.e.e.e.e.e.2.",
"=.e.e.e.e.e.e.e.e.e.e.e.e.e.e.e.i ; A G G G G G G G +.C.b.G F ; , G I C.V.G G G G G G G G , ; 3.e.e.e.e.e.e.e.e.e.e.e.e.e.e.e.2.",
"2.e.e.e.e.e.e.e.e.e.e.e.e.e.e.e.i : A G G G L I L G _ V.c.G H 6 , G L V.B.G G ^ I G G G G , : 3.e.e.e.e.e.e.e.e.e.e.e.e.e.e.e.2.",
"=.e.e.e.e.e.e.e.e.e.e.e.e.e.e.e.i : F G G G z.C.z.G G G F : J f.u.: , G G G G C.C.I G G G < : 3.e.e.e.e.e.e.e.e.e.e.e.e.e.e.e.2.",
"5.=.=.5.=.e.e.8.8.8.8.8.e.8.8.8.u ; D G G G z.C.z.G G G S : 0 f.u.: : G G G G C.C.I G G G , ; <.8.8.8.e.8.8.8.7.7.e.e.2.2.2.2.2.",
"=.2.2.=.=.e.e.8.8.8.8.8.e.8.8.% + : A G b.C.z.G G G A : T f.i.E ] f.p.: : G G G G V.C.I G , ; . ,.0.0.e.8.8.8.8.8.e.e.2.=.2.2.2.",
"2.e.e.e.e.e.e.e.e.e.e.e.e.e X r.7 : A G b.C.z.G G G A : T f.i.E ] f.p.: : G G G G V.C.I G , ; t.& X 2.e.e.e.e.e.e.e.e.e.e.e.e.2.",
"2.e.e.e.e.e.e.e.e.e.e.e.e.%   r.d.p.Y : H I H : : , Y p.d.f.i.E ] f.f.p.o.: , : : I I , : o.p.s.=   *.e.e.e.e.e.e.e.e.e.e.e.e.=.",
"2.e.e.e.e.e.e.e.e.e.e.% X z c i.f.f.T : A G A : : : T f.f.f.i.E ] f.f.f.p.: : : : F G , : o.v.v.~ c & X ,.e.e.e.e.e.e.e.e.e.e.2.",
"2.e.e.e.e.e.e.e.e.e.e.X   x E i.f.v.s.* + : +   = b E Q Q Q | s.u.Q Q Q Q T b     : , . t.s.f.f.] E *   :.e.e.e.e.e.e.e.e.e.e.2.",
"e.e.e.e.e.e.e.e.e.e.e.X   } i.d.f.W 3 o + : O   = E E E E E ' f.i.E E E W W E     ; :   = = u.f.p.i.w   *.e.e.e.e.e.e.e.e.e.e.e.",
"e.e.e.e.e.e.e.e.e.e.e.X   r.f.f.v.l   *.9.3.y   c i.i.i.i.i.s.f.d.i.p.i.i.i.p.    >.9.e.X   r.f.f.f.l   *.e.e.e.e.e.e.e.e.e.e.e.",
"e.e.e.e.e.e.e.e.e.t e 5 x u.f.c = j 2.q.e.e.j   b f.f.f.f.f.f.f.f.f.f.f.f.f.f.    7.e.e.2.2.k = u.f.Q x d e &.e.e.e.e.e.e.e.e.e.",
"e.e.e.e.e.e.e.e.e.X   c E i.f.=   =.e.e.e.e.%.  w ] r.f.f.f.s.' r.f.f.f.d.] ]     7.e.e.e.e.%    .f.| E &   j e.e.e.e.e.e.e.e.e.",
"e.e.e.e.e.e.e.e.e.X   c E i.f.=   *.e.e.e.e.j   3 E | f.f.f.i.E ] f.f.f.s.W E     7.e.e.e.e.%   t.f.| E *   j e.e.e.e.e.e.e.e.e.",
"e.e.e.e.e.e.e.e.e.X   c E i.f.3   *.e.e.e.e.5.*.g & x | | | t.u.r.| | | ] & & *.*.q.e.e.e.e.%    .f.| E *   j e.e.e.e.e.e.e.e.e.",
"e.e.e.e.e.e.e.t t ~ ' u.u.s.f.r.' M t 2.e.e.e.e.j   # E E E ' f.i.E E b c     e.e.e.e.e.h t ! ' i.f.i.u.| ' C t 2.e.e.e.e.e.e.e.",
"e.e.e.e.e.e.e.    i.f.f.f.f.f.f.f.x   *.e.e.e.e.j   w u.u.u.u.f.f.u.u.u.r.    e.e.e.e.e.X   r.f.f.f.f.f.f.f.b   %.e.e.e.e.e.e.e.",
"e.e.e.e.e.e.e.    i.f.f.f.' b i.f.l   *.e.e.e.e.j   z f.f.f.f.f.f.f.f.f.i.    e.e.e.e.e.X   r.f.' b u.f.f.f.b   j e.e.e.e.e.e.e.",
"e.e.e.e.e.e.e.    i.f.f.f.=   r.f.l   *.e.e.2.j g 3 E f.f.f.f.f.f.f.f.f.p.= = j j q.e.e.X   r.f.3   ' f.f.f.b   j e.e.e.e.e.e.e.",
"e.e.e.e.e.e.e.    i.f.W b B j v b m j 6.e.e.j   = E  .f.f.f.f.f.f.f.f.f.s.E E     7.e.e.%.j v b B j Z b u.f.b   j e.e.e.e.e.e.e.",
"e.e.e.e.e.e.e.    i.f.@   2.e.%   *.e.e.,.j M b } r.r.r.i.f.f.f.f.f.d.r.r.r. .E E j j q.e.e.%   2.e.f   ' f.b   j e.e.e.e.e.e.e.",
"e.e.e.e.e.e.e.t t ~ ' y t 5.e.%.t 2.e.e.t   b f.f.f.u.E | f.f.f.f.f.s.E ~ f.v.f.f.@   7.e.e.%.t 6.e.*.h v ' C t ,.e.e.e.e.e.e.e.",
"e.e.e.e.e.e.e.e.e.X   8.e.e.e.e.e.e.e.e.t   b f.f.f.i. .t.u. .' | u.u.|  .f.f.f.f.@   7.e.e.e.e.e.e.e.e.t   j e.e.e.e.e.e.e.e.e.",
"e.e.e.e.e.e.e.e.e.h t q.e.e.e.e.e.e.e.e.t   b f.f.f.f.f.u.E x   o E Q f.f.f.f.f.f.@   8.e.e.e.e.e.e.e.e.*.t ,.e.e.e.e.e.e.e.e.e.",
"e.e.e.e.e.e.e.e.e.e.e.e.e.e.e.e.e.e.2.:.d & Q f.f.f.f.f.r.w k t r w x v.f.f.f.f.f.5 * %.*.q.e.e.e.e.e.e.e.e.e.e.e.e.e.e.e.e.e.e.",
"e.e.e.e.e.e.e.e.e.e.e.e.e.e.e.e.e.e.h   w b u.f.f.f.f.f.'   e e.2.  # f.f.f.f.f.f.Q E . . 2.e.e.e.e.e.e.e.e.e.e.e.e.e.e.e.e.e.e.",
"e.e.e.e.e.e.e.e.e.e.e.e.e.e.e.e.5.2.%   z ] u.f.f.f.s.r.b e h e.5.% g r. .f.f.f.f.| ] o   %.2.w.e.e.e.e.e.e.e.e.e.e.e.e.e.e.e.e.",
"e.e.e.e.e.e.e.e.e.e.e.e.e.e.e.e.%       ' f.f.f.f.f.'   t e.q.e.e.e.8.  @ f.f.f.f.f.f.@       2.e.e.e.e.e.e.e.e.e.e.e.e.e.e.e.e.",
"e.e.e.e.e.e.e.e.e.e.e.e.5.2.2.5.d 3 = =  .f.f.f.s.i.E   t e.e.e.e.e.7.  @ i.i.f.f.f.f.q = = = :.2.2.2.7.e.e.e.e.e.e.e.e.e.e.e.e.",
"e.e.e.e.e.e.e.e.e.e.e.e.X       r.f.f.f.f.f.f.f.t.E w   t e.e.e.e.e.7.  . E E f.f.f.f.f.f.f.f.=       *.e.e.e.e.e.e.e.e.e.e.e.e.",
"e.e.e.e.e.e.e.e.e.e.7.7.$ . o . r.f.f.f.f.f.f.s.| c k X h e.e.e.e.e.7.X $ c c s.s.f.f.f.f.f.f.q o o . *.7.q.e.e.e.e.e.e.e.e.e.e.",
"2.e.e.e.e.e.e.e.e.e.X   c E E E i.f.f.f.f.f.r.E =   h e.e.e.e.2.2.e.e.e.8.    E E s.f.f.f.f.f.] E E E *   j e.e.e.e.e.e.e.e.e.2.",
"2.e.e.e.e.e.e.e.e.e.X   x c c c r.i.i.i.i.i.} c =   t e.e.e.e.2.2.e.e.e.7.    c c u.i.i.i.i.i.Q c c c #   j e.e.e.e.e.e.e.e.e.2.",
"2.e.e.e.e.e.e.e.e.e.X                               t e.e.e.e.2.2.e.e.e.7.                                j e.e.e.e.e.e.e.e.e.2.",
"2.e.e.e.e.e.e.e.e.e.X                               t e.e.e.e.2.2.e.e.e.7.                                j e.e.e.e.e.e.e.e.e.2.",
"2.2.=.2.2.e.e.8.8.8.8.8.e.8.8.8.8.8.e.e.8.8.8.8.q.e.e.2.=.2.2.2.=.,.2.2.2.e.e.8.8.8.8.8.e.8.8.8.8.8.e.e.8.8.8.8.8.e.e.2.2.2.=.2."
};
