/* XPM */
static char *_378f82d7e71438dfc11b7d956ca9e58FNHu2fSTlaRCPaQW[] = {
/* columns rows colors chars-per-pixel */
"64 64 150 2 ",
"   c #020001",
".  c #080502",
"X  c #0E0A03",
"o  c #140F04",
"O  c #191306",
"+  c #1F1609",
"@  c #231909",
"#  c #251C09",
"$  c #2B210A",
"%  c #31260C",
"&  c #37290E",
"*  c #3C2F0F",
"=  c #3C300F",
"-  c #3D2C10",
";  c #433211",
":  c #423410",
">  c #4C3715",
",  c #483912",
"<  c #4D3E12",
"1  c #553F16",
"2  c #534214",
"3  c #594715",
"4  c #5F4C17",
"5  c #5D4718",
"6  c #674514",
"7  c #624915",
"8  c #614A16",
"9  c #604B16",
"0  c #604B17",
"q  c #68521A",
"w  c #6C501C",
"e  c #70511E",
"r  c #78521A",
"t  c #71581C",
"y  c #745A1D",
"u  c #7C5C1E",
"i  c #584C22",
"p  c #594C23",
"a  c #534D2F",
"s  c #534D30",
"d  c #5F5833",
"f  c #685620",
"g  c #795720",
"h  c #715D23",
"j  c #7E5C22",
"k  c #71612A",
"l  c #213958",
"z  c #3F4F5B",
"x  c #2A486E",
"c  c #3C4F61",
"v  c #364F6D",
"b  c #374F6E",
"n  c #384F6D",
"m  c #335073",
"M  c #345074",
"N  c #31507A",
"B  c #484E48",
"V  c #545444",
"C  c #54584C",
"Z  c #5D5A48",
"A  c #454B54",
"S  c #424F55",
"D  c #4E5551",
"F  c #48555E",
"G  c #575B54",
"H  c #615941",
"J  c #485964",
"K  c #81581C",
"L  c #88601F",
"P  c #836421",
"I  c #836521",
"U  c #8C6B24",
"Y  c #916621",
"T  c #9A6C25",
"R  c #9A6D25",
"E  c #966D28",
"W  c #957026",
"Q  c #957126",
"!  c #9E7729",
"~  c #9E7C2F",
"^  c #83773C",
"/  c #89713A",
"(  c #A77D2B",
")  c #A5782D",
"_  c #AB7A2A",
"`  c #AA7B2A",
"'  c #AB7D2E",
"]  c #BD872F",
"[  c #AB873E",
"{  c #B48330",
"}  c #B48534",
"|  c #BC8730",
" . c #B08834",
".. c #B98A30",
"X. c #BA8A31",
"o. c #B08C3B",
"O. c #C58D32",
"+. c #C39034",
"@. c #CB9636",
"#. c #CC9636",
"$. c #C59239",
"%. c #D69B37",
"&. c #D29938",
"*. c #D59C38",
"=. c #D59C39",
"-. c #DFA13B",
";. c #DDA23B",
":. c #DEA33B",
">. c #E1A43C",
",. c #E7A83E",
"<. c #E8A83D",
"1. c #958241",
"2. c #9A8346",
"3. c #A78F46",
"4. c #AA924C",
"5. c #B49144",
"6. c #A79D5A",
"7. c #A7A161",
"8. c #BAAE66",
"9. c #A5AA75",
"0. c #BAB774",
"q. c #C39E47",
"w. c #CB9F43",
"e. c #DFAB48",
"r. c #C5A454",
"t. c #CCA850",
"y. c #D2AB53",
"u. c #D6B159",
"i. c #D6B15A",
"p. c #E7AD44",
"a. c #F0AF40",
"s. c #F0B84D",
"d. c #C5B66F",
"f. c #D2B967",
"g. c #F0C15A",
"h. c #F0C15B",
"j. c #C3C17D",
"k. c #DEC670",
"l. c #DEC770",
"z. c #DECF7E",
"x. c #E1C36B",
"c. c #F0CA68",
"v. c #F0D375",
"b. c #F0D77C",
"n. c #CBCC86",
"m. c #D5D68F",
"M. c #D2D896",
"N. c #E8E79A",
"B. c #E7ECA1",
"V. c #F0F7AB",
/* pixels */
"l l l l l N N x x x x x N x x x x x N N x x x x x N N l l l l l l l l l l N N x x x x x N x x x x x N N x x x x x N N l l l l l ",
"l N N N N N N N N N N N N N N N N N N N N N N N N N N N N N N l l N N N N N N N N N N N N N N N N N N N N N N N N N N N N N N l ",
"l N N N N N N N N N N N N N N N N N N N N N N N N N N N N N N l l N N N N N N N N N N N N N N N N N N N N N N N N N N N N N N l ",
"l N N N N N N N N N N N N N N N N N N N N N N N N N N N N N N l l N N N N N N N N N N N N N N N N N N N N N N N N N N N N N N l ",
"l N N N N N N N N N N N N N N N N N N N N N N N N N N N N N N l l N N N N N N N N N N N N N N N N N N N N N N N N N N N N N N l ",
"N N N N N N N N N N N N N N N N N N N N N N N N N N N N N N N N N N N N N N N N N N N N N N N N N N N N N N N N N N N N N N N N ",
"N N N N N N N N N N N N N N N N N N N N N N N N N N N N N N N N N N N N N N N N N N N N N N N N N N N N N N N N N N N N N N N N ",
"N N N N N N N N N N N N N N N N N N N N N N N N N N N N N N N N N N N N N N N N N N N N N N N N N N N N N N N N N N N N N N N N ",
"N N N N N N N N N N N N N N N N N N N N N N N N N N N N N N N N N N N N N N N N N N N N N N N N N N N N N N N N N N N N N N N N ",
"N N N N N N N N N N N N N N N N N N N N N N N N N N N N N N N N N N N N N N N N N N N N N N N N N N N N N N N N N N N N N N N N ",
"N N N N N N N N N N N N N N N N N N N N N N N N N N N N N N N N N N N N N N N N N N N N N N N N N N N N N N N N N N N N N N N N ",
"N N N N N N N N N N N N N N N N N N N N N N N N N N N N N N N N N N N N N N N N N N N N N N N N N N N N N N N N N N N N N N N N ",
"N N N N N N N N N N N N N N N N N N N N N N N N N N N N N N N N N N N N N N N N N N N N N N N N N N N N N N N N N N N N N N N N ",
"N N N N N N N N N N N N N N N N N N N N N N N N N N N N N N N N N N N N N N N N N N N N N N N N N N N N N N N N N N N N N N N N ",
"N N N N N N N N N N N N N N N N N N N N N N N N N N N N N N N N N N N N N N N N N N N N N N N N N N N N N N N N N N N N N N N N ",
"N N N N N N N N N N N N N N N N N N N N N N N N N N N N N N N N N N N N N N N N N N N N N N N N N N N N N N N N N N N N N N N N ",
"N N N N N N N N N N N N N N N N N N N N N N N N N N N N N N N N N N N N N N N N N N N N N N N N N N N N N N N N N N N N N N N N ",
"N N N N N N N N N N N N N N N N N N N N N N N N N N N N N N N N N N N N N N N N N N N N N N N N N N N N N N N N N N N N N N N N ",
"N N N N N N N N N N N N N N N N N N N N N N N N N N m b J k k q 0 f k k d b M N N N N N N N N N N N N N N N N N N N N N N N N N ",
"N N N N N N N N N N N N N N N N N N N N N N N N N N S 4 ^ V.V.j.k 7.N.V.m.k G M N N N N N N N N N N N N N N N N N N N N N N N N ",
"N N N N N N N N N N N N N N N N N N N N N N N N N c W a.a.a.a.c.V.7.7.V.V.V.d.d b N N N N N N N N N N N N N N N N N N N N N N N ",
"N N N N N N N N N N N N N N N N N N N N N N N N F U >.&.)     > =.x.d.2.N.b.<.' A N N N N N N N N N N N N N N N N N N N N N N N ",
"N N N N N N N N N N N N N N N N N N N N N N N b I a.E   . .       g a.$.X.a.<.' A N N N N N N N N N N N N N N N N N N N N N N N ",
"N N N N N N N N N N N N N N N N N N N N N N N S ! { . O $ : @ - - @ g h.i.<.a.<.R b N N N N N N N N N N N N N N N N N N N N N N ",
"N N N N N N N N N N N N N N N N N N N N N N b t >.' # 2 3 3 y ;.p.j w >._ | >.<.R b N N N N N N N N N N N N N N N N N N N N N N ",
"N N N N N N N N N N N N N N N N N N N N N N S W 5.O =   @ 5 $ 4 W ( = w | r 6 _ R b N N N N N N N N N N N N N N N N N N N N N N ",
"N N N N N N N N N N N N N N N N N N N N N N t s.9.O =   - ..4 4 W ( 4 U <.R 8 4 4 s N N N N N N N N N N N N N N N N N N N N N N ",
"l N N N N N N N N N N N N N N N N N N N N N t &.X % , & g @.W W ..O.W I ( R 8 4 4 p N N N N N N N N N N N N N N N N N N N N N l ",
"l N N N N N N N N N N N N N N N N N N N N N t y.o < 3 u =.,.@.@.=.-.@.! ( R 4 4 4 p N N N N N N N N N N N N N N N N N N N N N l ",
"l N N N N N N N N N N N N N N N N N N N N N k M.  @ 5 & I ..4 4 W ( 4 4 ( R 4 4 4 p N N N N N N N N N N N N N N N N N N N N N l ",
"l N N N N N N N N N N N N N N N N N N N N N k M.  - ..4 I ..4 4 W ( 4 4 ( T 0 4 4 p N N N N N N N N N N N N N N N N N N N N N l ",
"l l l l l N N x x x x x N x x x x x N N x x k M.X 1 #.W ( @.W W ..O.W I ( T 0 4 4 p x x N N x x x x x N x x x x x N N l l l l l ",
"l l l l l N N x x x x x N x x x x x N N x x k M.o t <.@.*.<.@.@.=.:.@.! { T 3 4 4 i x x N N x x x x x N x x x x x N N l l l l l ",
"l N N N N N N N N N N N N N N N N N N N N N k M.  = ..4 u ..4 4 Q ( 4 0 ( Q 4 4 4 p N N N N N N N N N N N N N N N N N N N N N l ",
"l N N N N N N N N N N N N N N N N N N N N N h f.  = ..3 L ..2 3 Q ( 4 0 } T 5 0 0 p N N N N N N N N N N N N N N N N N N N N N l ",
"l N N N N N N N N N N N N N N N N N N N N N t ;.: W @. ...:. .{ O.@.P 0 ( T 0 0 0 i N N N N N N N N N N N N N N N N N N N N N l ",
"l N N N N N N N N N N N N N N N N N N N N N w p.1.@.;...;.;.....@.%.Y r ..R 0 4 4 i N N N N N N N N N N N N N N N N N N N N N l ",
"N N N N N N N N N N N N N N N N N N N N N N V o.n.I ..4 k ..4 4 W _ 6 R #.u 4 4 4 i N N N N N N N N N N N N N N N N N N N N N N ",
"N N N N N N N N N N N N N N N N N N N N N N b h z.3...4 L ..4 3 W ` / r._ 8 4 4 4 i N N N N N N N N N N N N N N N N N N N N N N ",
"N N N N N N N N N N N N N N N N N N N N N N b q [ k._ ..X.;.....` K [ g._ 8 4 4 4 i N N N N N N N N N N N N N N N N N N N N N N ",
"N N N N N N N N N N N N N N N N N N N N N N N b k p.4. ...*.o. .L L &.%.L 4 4 4 4 v N N N N N N N N N N N N N N N N N N N N N N ",
"N N N N N N N N N N N N N N N N N N N N N N N m D  .l.0.6.L q k 0.u.O.L 4 4 4 4 4 N N N N N N N N N N N N N N N N N N N N N N N ",
"N N N N N N N N N N N N N N N N N N N N N N N N m Z q.v.l.7.7.8.v.t.L 4 4 4 4 4 B N N N N N N N N N N N N N N N N N N N N N N N ",
"N N N N N N N N N N N N N N N N N N N N N N N N N N G L  .s.h.q.L t 4 4 4 4 4 S N N N N N N N N N N N N N N N N N N N N N N N N ",
"N N N N N N N N N N N N N N N N N N N N N N N N N N b S V Q W I 4 4 4 4 i a z N N N N N N N N N N N N N N N N N N N N N N N N N ",
"N N N N N N N N N N N N N N N N N N N N N N N N N N N N N b b b b b v b m N N N N N N N N N N N N N N N N N N N N N N N N N N N ",
"N N N N N N N N N N N N N N N N N N N N N N N N N N N N N N N N N N N N N N N N N N N N N N N N N N N N N N N N N N N N N N N N ",
"N N N N N N N N N N N N N N N N N N N N N N N N N N N N N N N N N N N N N N N N N N N N N N N N N N N N N N N N N N N N N N N N ",
"N N N N N N N N N N N N N N N N N N N N N N N N N N N N N N N N N N N N N N N N N N N N N N N N N N N N N N N N N N N N N N N N ",
"N N N N N N N N N N N N N N N N N N N N N N N N N N N N N N N N N N N N N N N N N N N N N N N N N N N N N N N N N N N N N N N N ",
"N N N N N N N N N N N N N N N N N N N N N N N N N N N N N N N N N N N N N N N N N N N N N N N N N N N N N N N N N N N N N N N N ",
"N N N N N N N N N N N N N N N N N N N N N N N N N N N N N N N N N N N N N N N N N N N N N N N N N N N N N N N N N N N N N N N N ",
"N N N N N N N N N N N N N N N N N N N N N N N N N N N N N N N N N N N N N N N N N N N N N N N N N N N N N N N N N N N N N N N N ",
"N N N N N N N N N N N N N N N N N N N N N N N N N N N N N N N N N N N N N N N N N N N N N N N N N N N N N N N N N N N N N N N N ",
"N N N N N N N N N N N N N N N N N N N N N N N N N N N N N N N N N N N N N N N N N N N N N N N N N N N N N N N N N N N N N N N N ",
"N N N N N N N N N N N N N N N N N N N N N N N N N N N N N N N N N N N N N N N N N N N N N N N N N N N N N N N N N N N N N N N N ",
"N N N N N N N N N N N N N N N N N N N N N N N N N N N N N N N N N N N N N N N N N N N N N N N N N N N N N N N N N N N N N N N N ",
"N N N N N N N N N N N N N N N N N N N N N N N N N N N N N N N N N N N N N N N N N N N N N N N N N N N N N N N N N N N N N N N N ",
"N N N N N N N N N N N N N N N N N N N N N N N N N N N N N N N N N N N N N N N N N N N N N N N N N N N N N N N N N N N N N N N N ",
"l N N N N N N N N N N N N N N N N N N N N N N N N N N N N N N l l N N N N N N N N N N N N N N N N N N N N N N N N N N N N N N l ",
"l N N N N N N N N N N N N N N N N N N N N N N N N N N N N N N l l N N N N N N N N N N N N N N N N N N N N N N N N N N N N N N l ",
"l N N N N N N N N N N N N N N N N N N N N N N N N N N N N N N l l N N N N N N N N N N N N N N N N N N N N N N N N N N N N N N l ",
"l N N N N N N N N N N N N N N N N N N N N N N N N N N N N N N l l N N N N N N N N N N N N N N N N N N N N N N N N N N N N N N l ",
"l l l l l N N x x x x x N x x x x x N N x x x x x N N l l l l l l l l l l N N x x x x x N x x x x x N N x x x x x N N l l l l l "
};
