/* XPM */
static char *b1c7e7ad5fb94e128275f229a51e697aB5utvEDgKxZuDmeg[] = {
/* columns rows colors chars-per-pixel */
"64 64 138 2 ",
"   c #020001",
".  c #080402",
"X  c #0D0A04",
"o  c #171006",
"O  c #191306",
"+  c #1F1609",
"@  c #1F1808",
"#  c #201608",
"$  c #221A08",
"%  c #241D09",
"&  c #2B210A",
"*  c #2A210B",
"=  c #30260C",
"-  c #38290E",
";  c #392C0E",
":  c #3D2C11",
">  c #483912",
",  c #4E3E13",
"<  c #523B16",
"1  c #534214",
"2  c #594715",
"3  c #5F4C17",
"4  c #5B4118",
"5  c #5F4A18",
"6  c #674514",
"7  c #634815",
"8  c #604B16",
"9  c #604B17",
"0  c #674B1B",
"q  c #654F19",
"w  c #69501B",
"e  c #78521A",
"r  c #71581C",
"t  c #785C1E",
"y  c #7A5E1E",
"u  c #584C22",
"i  c #594C23",
"p  c #594D24",
"a  c #534D2F",
"s  c #685620",
"d  c #665934",
"f  c #716129",
"g  c #213958",
"h  c #2A486E",
"j  c #3E4D60",
"k  c #3C4F61",
"l  c #364F6D",
"z  c #384F6D",
"x  c #335073",
"c  c #345074",
"v  c #31507A",
"b  c #4B4E42",
"n  c #4C4A47",
"m  c #454E4E",
"M  c #454E4F",
"N  c #5A5840",
"B  c #5A5B4D",
"V  c #424F54",
"C  c #4E5551",
"Z  c #48555E",
"A  c #656242",
"S  c #895F1F",
"D  c #88601F",
"F  c #866220",
"G  c #836421",
"H  c #836521",
"J  c #886224",
"K  c #8E6A23",
"L  c #8C6B24",
"P  c #976F25",
"I  c #9A6D25",
"U  c #976D28",
"Y  c #957126",
"T  c #9C722A",
"R  c #816631",
"E  c #83773C",
"W  c #9A7632",
"Q  c #9E7C30",
"!  c #A77D2B",
"~  c #A3782E",
"^  c #AB7A2A",
"/  c #B0832E",
"(  c #B4802C",
")  c #B48330",
"_  c #BC8730",
"`  c #BB8930",
"'  c #B98A30",
"]  c #B98A31",
"[  c #C58D32",
"{  c #C29033",
"}  c #CB9636",
"|  c #CD9435",
" . c #CE9435",
".. c #CC9736",
"X. c #C59339",
"o. c #D29938",
"O. c #D29939",
"+. c #D69B38",
"@. c #D49C39",
"#. c #DFA13A",
"$. c #DFA13B",
"%. c #DEA33B",
"&. c #E1A43C",
"*. c #E7A83E",
"=. c #E7A93E",
"-. c #E8A83D",
";. c #9A8346",
":. c #958748",
">. c #958C4E",
",. c #9E8E4A",
"<. c #AA9652",
"1. c #A7A161",
"2. c #BAAE66",
"3. c #B9B673",
"4. c #BAB774",
"5. c #D2A74C",
"6. c #D5AA4C",
"7. c #C5A454",
"8. c #CEAF5D",
"9. c #D5B359",
"0. c #E8AD44",
"q. c #F0AF40",
"w. c #E1BA5D",
"e. c #DFBC63",
"r. c #F0C15B",
"t. c #CDC177",
"y. c #CCC379",
"u. c #DEC770",
"i. c #E8D17A",
"p. c #F0D375",
"a. c #B4B980",
"s. c #CCCC86",
"d. c #E7D680",
"f. c #F0DC82",
"g. c #DEE198",
"h. c #E8E79A",
"j. c #E7ECA1",
"k. c #F0F7AB",
/* pixels */
"g g g g g v v h h h h h v h h h h h v v h h h h h v v g g g g g g g g g g v v h h h h h v h h h h h v v h h h h h v v g g g g g ",
"g v v v v v v v v v v v v v v v v v v v v v v v v v v v v v v g g v v v v v v v v v v v v v v v v v v v v v v v v v v v v v v g ",
"g v v v v v v v v v v v v v v v v v v v v v v v v v v v v v v g g v v v v v v v v v v v v v v v v v v v v v v v v v v v v v v g ",
"g v v v v v v v v v v v v v v v v v v v v v v v v v v v v v v g g v v v v v v v v v v v v v v v v v v v v v v v v v v v v v v g ",
"g v v v v v v v v v v v v v v v v v v v v v v v v v v v v v v g g v v v v v v v v v v v v v v v v v v v v v v v v v v v v v v g ",
"v v v v v v v v v v v v v v v v v v v v v v v v v v v v v v v v v v v v v v v v v v v v v v v v v v v v v v v v v v v v v v v v ",
"v v v v v v v v v v v v v v v v v v v v v v v v v v v v v v v v v v v v v v v v v v v v v v v v v v v v v v v v v v v v v v v v ",
"v v v v v v v v v v v v v v v v v v v v v v v v v v v v v v v v v v v v v v v v v v v v v v v v v v v v v v v v v v v v v v v v ",
"v v v v v v v v v v v v v v v v v v v v v v v v v v v v v v v v v v v v v v v v v v v v v v v v v v v v v v v v v v v v v v v v ",
"v v v v v v v v v v v v v v v v v v v v v v v v v v v v v v v v v v v v v v v v v v v v v v v v v v v v v v v v v v v v v v v v ",
"v v v v v v v v v v v v v v v v v v v v v v v v v v v v v v v v v v v v v v v v v v v v v v v v v v v v v v v v v v v v v v v v ",
"v v v v v v v v v v v v v v v v v v v v v v v v v v v v v v v v v v v v v v v v v v v v v v v v v v v v v v v v v v v v v v v v ",
"v v v v v v v v v v v v v v v v v v v v v v v v v v v v v v v v v v v v v v v v v v v v v v v v v v v v v v v v v v v v v v v v ",
"v v v v v v v v v v v v v v v v v v v v v v v v v v v v v v v v v v v v v v v v v v v v v v v v v v v v v v v v v v v v v v v v ",
"v v v v v v v v v v v v v v v v v v v v v v v v v v v v v v v v v v v v v v v v v v v v v v v v v v v v v v v v v v v v v v v v ",
"v v v v v v v v v v v v v v v v v v v v v v v v v v v v v v v v v v v v v v v v v v v v v v v v v v v v v v v v v v v v v v v v ",
"v v v v v v v v v v v v v v v v v v v v v v v v v v v v v v v v v v v v v v v v v v v v v v v v v v v v v v v v v v v v v v v v ",
"v v v v v v v v v v v v v v v v v v v v v v v v v v v v v v v v v v v v v v v v v v v v v v v v v v v v v v v v v v v v v v v v ",
"v v v v v v v v v v v v v v v v v v v v v v v v v x l A f f s 3 f f f V l v v v v v v v v v v v v v v v v v v v v v v v v v v v ",
"v v v v v v v v v v v v v v v v v v v v v v v v x N f s.k.j.>.f s.k.k.E 9 k v v v v v v v v v v v v v v v v v v v v v v v v v v ",
"v v v v v v v v v v v v v v v v v v v v v v v z d y.k.k.k.>.4.k.r.q.q.q.-.L z v v v v v v v v v v v v v v v v v v v v v v v v v ",
"v v v v v v v v v v v v v v v v v v v v v v v n [ q.f.h.;.t.w.o.:     U o.q.H k v v v v v v v v v v v v v v v v v v v v v v v v ",
"v v v v v v v v v v v v v v v v v v v v v v v n [ *.q.~ X.q.4       X     ( 0.r v v v v v v v v v v v v v v v v v v v v v v v v ",
"v v v v v v v v v v v v v v v v v v v v v v j ^ q.*.$.e.r.4 # ; : $ 1 * O . @.L k v v v v v v v v v v v v v v v v v v v v v v v ",
"v v v v v v v v v v v v v v v v v v v v v v j ^ -.$.( _ &.< T $.$.9 3 1 1 % ) q.3 v v v v v v v v v v v v v v v v v v v v v v v ",
"v v v v v v v v v v v v v v v v v v v v v v j ^ I 6 e  .0 > ] G 3 $ w $   > X 5.G j v v v v v v v v v v v v v v v v v v v v v v ",
"v v v v v v v v v v v v v v v v v v v v v v p 8 8 8 ^ *.L 3 ] G 3 3 } :   > X a.-.s v v v v v v v v v v v v v v v v v v v v v v ",
"g v v v v v v v v v v v v v v v v v v v v v 3 3 8 8 ^ Y G Y } / Y Y @.J : , * . 0.i v v v v v v v v v v v v v v v v v v v v v g ",
"g v v v v v v v v v v v v v v v v v v v v v 3 3 8 8 ^ Y !  .$.@.} ..*.@.t 2 1 . r.i v v v v v v v v v v v v v v v v v v v v v g ",
"g v v v v v v v v v v v v v v v v v v v v v 3 3 9 8 ^ Y 3 3 ] G 3 9 } G & w o   k.i v v v v v v v v v v v v v v v v v v v v v g ",
"g v v v v v v v v v v v v v v v v v v v v v 3 3 9 8 ^ Y 3 5 ] G 3 3 } G 5  .+   k.p v v v v v v v v v v v v v v v v v v v v v g ",
"g g g g g v v h h h h h v h h h h h v v h h 3 3 9 8 ^ Y G Y } / Y Y @./ Y @.; . k.p h h v v h h h h h v h h h h h v v g g g g g ",
"g g g g g v v h h h h h v h h h h h v v h h 3 3 8 8 ^ Y ! ..%.#.} } *.@.} =.3 . k.p h h v v h h h h h v h h h h h v v g g g g g ",
"g v v v v v v v v v v v v v v v v v v v v v 3 3 8 8 ^ Y 3 3 ' f 3 3 } G 3 } @   k.p x v v v v v v v v v v v v v v v v v v v v g ",
"g v v v v v v v v v v v v v v v v v v v v v 3 3 8 8 ^ Y 3 3 ` D 3 2  .G 3 } @   p.i v v v v v v v v v v v v v v v v v v v v v g ",
"g v v v v v v v v v v v v v v v v v v v v v 3 3 8 8 ^ Y q D @.` / ! %.' ! %.J ; =.i v v v v v v v v v v v v v v v v v v v v v g ",
"g v v v v v v v v v v v v v v v v v v v v v 3 3 8 8 ^ ' e P $.{ ] ] *.{ ] *.{ :.*.i v v v v v v v v v v v v v v v v v v v v v g ",
"v v v v v v v v v v v v v v v v v v v v v v 3 3 8 3 D %.Y 6 _ S 3 3 ..G 3  .r g./ m v v v v v v v v v v v v v v v v v v v v v v ",
"v v v v v v v v v v v v v v v v v v v v v v 3 3 3 9 2 ` 7.R ` D 3 3 ..G 3 ..,.d.9 v v v v v v v v v v v v v v v v v v v v v v v ",
"v v v v v v v v v v v v v v v v v v v v v v 3 3 3 8 7 ` r.W D ` ] ] %...] I i.Q 9 v v v v v v v v v v v v v v v v v v v v v v v ",
"v v v v v v v v v v v v v v v v v v v v v v k 3 3 3 9 Y @.[ y P ! ! %.] / <.0.r v v v v v v v v v v v v v v v v v v v v v v v v ",
"v v v v v v v v v v v v v v v v v v v v v v l 3 3 3 3 9 D  .8.3.f 3 G 2.8.w.;.V v v v v v v v v v v v v v v v v v v v v v v v v ",
"v v v v v v v v v v v v v v v v v v v v v v x a 3 3 3 3 3 L 9.p.2.1.1.u.p.<.C c v v v v v v v v v v v v v v v v v v v v v v v v ",
"v v v v v v v v v v v v v v v v v v v v v v v v m 3 3 9 3 3 y D 6.r.r.Q G Z v v v v v v v v v v v v v v v v v v v v v v v v v v ",
"v v v v v v v v v v v v v v v v v v v v v v v v x V a p 3 3 3 3 G Y Y B V l v v v v v v v v v v v v v v v v v v v v v v v v v v ",
"v v v v v v v v v v v v v v v v v v v v v v v v v v v x l l l l l l l c v v v v v v v v v v v v v v v v v v v v v v v v v v v v ",
"v v v v v v v v v v v v v v v v v v v v v v v v v v v v v v v v v v v v v v v v v v v v v v v v v v v v v v v v v v v v v v v v ",
"v v v v v v v v v v v v v v v v v v v v v v v v v v v v v v v v v v v v v v v v v v v v v v v v v v v v v v v v v v v v v v v v ",
"v v v v v v v v v v v v v v v v v v v v v v v v v v v v v v v v v v v v v v v v v v v v v v v v v v v v v v v v v v v v v v v v ",
"v v v v v v v v v v v v v v v v v v v v v v v v v v v v v v v v v v v v v v v v v v v v v v v v v v v v v v v v v v v v v v v v ",
"v v v v v v v v v v v v v v v v v v v v v v v v v v v v v v v v v v v v v v v v v v v v v v v v v v v v v v v v v v v v v v v v ",
"v v v v v v v v v v v v v v v v v v v v v v v v v v v v v v v v v v v v v v v v v v v v v v v v v v v v v v v v v v v v v v v v ",
"v v v v v v v v v v v v v v v v v v v v v v v v v v v v v v v v v v v v v v v v v v v v v v v v v v v v v v v v v v v v v v v v ",
"v v v v v v v v v v v v v v v v v v v v v v v v v v v v v v v v v v v v v v v v v v v v v v v v v v v v v v v v v v v v v v v v ",
"v v v v v v v v v v v v v v v v v v v v v v v v v v v v v v v v v v v v v v v v v v v v v v v v v v v v v v v v v v v v v v v v ",
"v v v v v v v v v v v v v v v v v v v v v v v v v v v v v v v v v v v v v v v v v v v v v v v v v v v v v v v v v v v v v v v v ",
"v v v v v v v v v v v v v v v v v v v v v v v v v v v v v v v v v v v v v v v v v v v v v v v v v v v v v v v v v v v v v v v v ",
"v v v v v v v v v v v v v v v v v v v v v v v v v v v v v v v v v v v v v v v v v v v v v v v v v v v v v v v v v v v v v v v v ",
"v v v v v v v v v v v v v v v v v v v v v v v v v v v v v v v v v v v v v v v v v v v v v v v v v v v v v v v v v v v v v v v v ",
"g v v v v v v v v v v v v v v v v v v v v v v v v v v v v v v g g v v v v v v v v v v v v v v v v v v v v v v v v v v v v v v g ",
"g v v v v v v v v v v v v v v v v v v v v v v v v v v v v v v g g v v v v v v v v v v v v v v v v v v v v v v v v v v v v v v g ",
"g v v v v v v v v v v v v v v v v v v v v v v v v v v v v v v g g v v v v v v v v v v v v v v v v v v v v v v v v v v v v v v g ",
"g v v v v v v v v v v v v v v v v v v v v v v v v v v v v v v g g v v v v v v v v v v v v v v v v v v v v v v v v v v v v v v g ",
"g g g g g v v h h h h h v h h h h h v v h h h h h v v g g g g g g g g g g v v h h h h h v h h h h h v v h h h h h v v g g g g g "
};
