/* XPM */
static char *_d0dcf4362684ff0fe36c03cb061d704flrT471icF57Ou5n[] = {
/* columns rows colors chars-per-pixel */
"64 64 154 2 ",
"   c #020001",
".  c #080502",
"X  c #0D0A04",
"o  c #130E05",
"O  c #191306",
"+  c #241C09",
"@  c #2E230C",
"#  c #30260C",
"$  c #362A0D",
"%  c #3C2F0E",
"&  c #3B300E",
"*  c #3C300F",
"=  c #433311",
"-  c #423510",
";  c #483911",
":  c #4E3E13",
">  c #4C3914",
",  c #534214",
"<  c #544314",
"1  c #574017",
"2  c #5C4617",
"3  c #594816",
"4  c #5A4816",
"5  c #5F4C17",
"6  c #674514",
"7  c #68501A",
"8  c #6C521C",
"9  c #72541E",
"0  c #785219",
"q  c #71581C",
"w  c #71591C",
"e  c #7A5E1E",
"r  c #7A5F1F",
"t  c #53493A",
"y  c #795720",
"u  c #785721",
"i  c #7B5D20",
"p  c #785B27",
"a  c #6A5533",
"s  c #64563F",
"d  c #705C3C",
"f  c #213958",
"g  c #2A486E",
"h  c #3F4D60",
"j  c #3E4D61",
"k  c #374E6D",
"l  c #384E6D",
"z  c #384F6D",
"x  c #344F73",
"c  c #354F73",
"v  c #31507A",
"b  c #4C4A47",
"n  c #585043",
"m  c #58544A",
"M  c #5D584C",
"N  c #454B54",
"B  c #4D5257",
"V  c #4A535D",
"C  c #515150",
"Z  c #515657",
"A  c #665E4F",
"S  c #625F56",
"D  c #5D605A",
"F  c #746346",
"G  c #895F1F",
"H  c #89601F",
"J  c #815F21",
"K  c #856123",
"L  c #836521",
"P  c #876424",
"I  c #886224",
"U  c #8C6B23",
"Y  c #906A26",
"T  c #9A6D25",
"R  c #976D28",
"E  c #957126",
"W  c #9E7729",
"Q  c #89723A",
"!  c #A37327",
"~  c #A37328",
"^  c #A77D2B",
"/  c #A77E2B",
"(  c #A2782E",
")  c #AB7A2A",
"_  c #AC7A2B",
"`  c #A87B2D",
"'  c #B3812C",
"]  c #B4812D",
"[  c #B0842D",
"{  c #BC872F",
"}  c #B48330",
"|  c #B98A30",
" . c #BD903D",
".. c #C08D33",
"X. c #C28F33",
"o. c #C58D32",
"O. c #C69134",
"+. c #CB9635",
"@. c #CB9636",
"#. c #CC9635",
"$. c #CC9636",
"%. c #C59339",
"&. c #D29938",
"*. c #D59C38",
"=. c #D59D38",
"-. c #D59C39",
";. c #D89E39",
":. c #DDA23B",
">. c #DEA23B",
",. c #DEA33B",
"<. c #E1A43C",
"1. c #E7A93D",
"2. c #E7A83E",
"3. c #E7A93E",
"4. c #958C4F",
"5. c #9E9757",
"6. c #A78F46",
"7. c #A7934D",
"8. c #B4974F",
"9. c #B99C4B",
"0. c #BA9C4B",
"q. c #A38E50",
"w. c #AC9452",
"e. c #888B60",
"r. c #999965",
"t. c #A7A161",
"y. c #B4A562",
"u. c #BDAB65",
"i. c #BAB774",
"p. c #DEB455",
"a. c #F0AF40",
"s. c #F0B347",
"d. c #F0B447",
"f. c #F0B84D",
"g. c #F0B84E",
"h. c #E7B651",
"j. c #E1BA5D",
"k. c #F0BD54",
"l. c #C5B76F",
"z. c #D2BD6E",
"x. c #F0C15A",
"c. c #D5C16D",
"v. c #DEC770",
"b. c #E7C465",
"n. c #F0CA68",
"m. c #F0CF6E",
"M. c #E7CD72",
"N. c #F0D376",
"B. c #F0D77C",
"V. c #CBCC86",
"C. c #CCCC86",
"Z. c #DEE198",
"A. c #F0E590",
"S. c #F0EE9E",
/* pixels */
"f f f f f v v g g g g g v g g g g g v v g g g g g v v f f f f f f f f f f v v g g g g g v g g g g g v v g g g g g v v f f f f f ",
"f v v v v v v v v v v v v v v v v v v v v v v v v v v v v v v f f v v v v v v v v v v v v v v v v v v v v v v v v v v v v v v f ",
"f v v v v v v v v v v v v v v v v v v v v v v v v v v v v v v f f v v v v v v v v v v v v v v v v v v v v v v v v v v v v v v f ",
"f v v v v v v v v v v v v v v v v v v v v v v v v v v v v v v f f v v v v v v v v v v v v v v v v v v v v v v v v v v v v v v f ",
"f v v v v v v v v v v v v v v v v v v v v v v v v v v v v v v f f v v v v v v v v v v v v v v v v v v v v v v v v v v v v v v f ",
"v v v v v v v v v v v v v v v v v v v v v v v v v v v v v v v v v v v v v v v v v v v v v v v v v v v v v v v v v v v v v v v v ",
"v v v v v v v v v v v v v v v v v v v v v v v v v v v v v v v v v v v v v v v v v v v v v v v v v v v v v v v v v v v v v v v v ",
"v v v v v v v v v v v v v v v v v v v v v v v v v v v v v v v v v v v v v v v v v v v v v v v v v v v v v v v v v v v v v v v v ",
"v v v v v v v v v v v v v v v v v v v v v v v v v v v v v v v v v v v v v v v v v v v v v v v v v v v v v v v v v v v v v v v v ",
"v v v v v v v v v v v v v v v v v v v v v v v v v v v v v v v v v v v v v v v v v v v v v v v v v v v v v v v v v v v v v v v v ",
"v v v v v v v v v v v v v v v v v v v v v v v v v v v v v v v v v v v v v v v v v v v v v v v v v v v v v v v v v v v v v v v v ",
"v v v v v v v v v v v v v v v v v v v v v v v v v v v v v v v v v v v v v v v v v v v v v v v v v v v v v v v v v v v v v v v v ",
"v v v v v v v v v v v v v v v v v v v v v v v v v v v v v v v v v v v v v v v v v v v v v v v v v v v v v v v v v v v v v v v v ",
"v v v v v v v v v v v v v v v v v v v v v v v v v v v v v v v v v v v v v v v v v v v v v v v v v v v v v v v v v v v v v v v v ",
"v v v v v v v v v v v v v v v v v v v v v v v v v v v v v v v v v v v v v v v v v v v v v v v v v v v v v v v v v v v v v v v v ",
"v v v v v v v v v v v v v v v v v v v v v v v v v v v v v v v v v v v v v v v v v v v v v v v v v v v v v v v v v v v v v v v v ",
"v v v v v v v v v v v v v v v v v v v v v v v v v v v v v v v v v v v v v v v v v v v v v v v v v v v v v v v v v v v v v v v v ",
"v v v v v v v v v v v v v v v v v v v v v v v v v v v v v v v v v v v v v v v v v v v v v v v v v v v v v v v v v v v v v v v v ",
"v v v v v v v v v v v v v v v v v v v v v v v v v v v v v v v v v v v v v v v v v v v v v v v v v v v v v v v v v v v v v v v v ",
"v v v v v v v v v v v v v v v v v v v v v v v v v c h h d Q Q Q Q Q Z h h k v v v v v v v v v v v v v v v v v v v v v v v v v v ",
"v v v v v v v v v v v v v v v v v v v v v v v c l Z y 0 l.S.S.S.S.S.q.p p Z k x v v v v v v v v v v v v v v v v v v v v v v v v ",
"v v v v v v v v v v v v v v v v v v v v v v c n J 8.n.s.-.} } [ O.+.z.A.A.w.Q Z k v v v v v v v v v v v v v v v v v v v v v v v ",
"v v v v v v v v v v v v v v v v v v v v v c n ] a.a.a.;.: o X . * * P &.s.N.A.7.Z x v v v v v v v v v v v v v v v v v v v v v v ",
"v v v v v v v v v v v v v v v v v v v v l M o.a.:.| P 7 L K 5 & 8 8 X   K ) <.n.l.m x v v v v v v v v v v v v v v v v v v v v v ",
"v v v v v v v v v v v v v v v v v v v c C ~ a.2.[ w E E $.>.R E +.$.u + : - 8 <.n.y.Z v v v v v v v v v v v v v v v v v v v v v ",
"v v v v v v v v v v v v v v v v v v v N G a.2.W w E +.+.>.2.+.+.;.a.+.7 4 , o I &.A.p k v v v v v v v v v v v v v v v v v v v v ",
"v v v v v v v v v v v v v v v v v v l s _ g.9.5 / +.5 5 | +.5 5 | | 7 $ i >     R m.q.Z v v v v v v v v v v v v v v v v v v v v ",
"f v v v v v v v v v v v v v v v v v h T a.h.5.5 / +.5 5 | +.5 5 | | 3 5 $.y     P 2.S.p v v v v v v v v v v v v v v v v v v v f ",
"f v v v v v v v v v v v v v v v v v h T a.+.L / $.>.^ ^ -.>.^ ^ *.*./ / :.} = @ : +.B.y v v v v v v v v v v v v v v v v v v v f ",
"f v v v v v v v v v v v v v v v v v A  .p./ U | -.>.| | >.>.| | >.>.| | a.&.3 & , L :.l.t x v v v v v v v v v v v v v v v v v f ",
"f v v v v v v v v v v v v v v v v v ) n.V.5 5 5 / +.5 5 | +.5 5 | | 5 5 +./ * o % O &.S.6 k v v v v v v v v v v v v v v v v v f ",
"f f f f f v v g g g g g v g g g g g ) n.V.5 5 5 ^ +.5 5 | +.5 5 | | 5 5 +.( 7 + % O &.S.6 k g g g g g v g g g g g v v f f f f f ",
"f f f f f v v g g g g g v g g g g g ) n.C.e | | &.a.| | ;.a.| | >.>.| | >.-.| 8 , ; ;.B.6 z g g g g g v g g g g g v v f f f f f ",
"f v v v v v v v v v v v v v v v v v ) n.C.w / / +.:./ / &.:./ / *.*.^ / >.+.` 5 : % ;.3.6 z v v v v v v v v v v v v v v v v v f ",
"f v v v v v v v v v v v v v v v v v _ n.V.5 5 5 / +.5 5 | +.5 5 | | 5 5 $./ 5 + % O ;.1.6 z v v v v v v v v v v v v v v v v v f ",
"f v v v v v v v v v v v v v v v v v n ( n.C.5 5 / +.5 5 | +.5 5 | | 5 5 $./ % o = Y 1.! N z v v v v v v v v v v v v v v v v v f ",
"f v v v v v v v v v v v v v v v v v b T x.Z.E +.:.2.+.+.a.<.+.+.2.>.+.+.2.>.7 ; 4 $.3.0 v v v v v v v v v v v v v v v v v v v f ",
"v v v v v v v v v v v v v v v v v v b T d.M.7.E ..-.E R +.&.E E +.+.E E >.X.= + K <.s.0 v v v v v v v v v v v v v v v v v v v v ",
"v v v v v v v v v v v v v v v v v v h d { x.t.5 / +.5 5 | +.5 5 | | 5 5 $./ O   T 3.) n v v v v v v v v v v v v v v v v v v v v ",
"v v v v v v v v v v v v v v v v v v v N I d.v.t./ +.5 5 | +.5 5 | | 4 7 e > . e.j.s.0 k v v v v v v v v v v v v v v v v v v v v ",
"v v v v v v v v v v v v v v v v v v v k n ' k.v.7.Y ! +.2.2.+.+.2.>.$.e 7 , r.b.s.W N c v v v v v v v v v v v v v v v v v v v v ",
"v v v v v v v v v v v v v v v v v v v v c n o.f.c.i.6.E $.&.E E +.+.E w 4.9.p.g.{ a c v v v v v v v v v v v v v v v v v v v v v ",
"v v v v v v v v v v v v v v v v v v v v v c s ) g.x.z.V.7.e 5 5 e w 5.C.M.d.2.! B k v v v v v v v v v v v v v v v v v v v v v v ",
"v v v v v v v v v v v v v v v v v v v v v v c C 0 ~ s.k.B.Z.Z.Z.Z.Z.b.g.d.] 0 V v v v v v v v v v v v v v v v v v v v v v v v v ",
"v v v v v v v v v v v v v v v v v v v v v v v k h M I J +.g.g.g.g.g.( 0 0 n l c v v v v v v v v v v v v v v v v v v v v v v v v ",
"v v v v v v v v v v v v v v v v v v v v v v v v v k N h S F F F F F C h h k v v v v v v v v v v v v v v v v v v v v v v v v v v ",
"v v v v v v v v v v v v v v v v v v v v v v v v v v v v v v v v v v v v v v v v v v v v v v v v v v v v v v v v v v v v v v v v ",
"v v v v v v v v v v v v v v v v v v v v v v v v v v v v v v v v v v v v v v v v v v v v v v v v v v v v v v v v v v v v v v v v ",
"v v v v v v v v v v v v v v v v v v v v v v v v v v v v v v v v v v v v v v v v v v v v v v v v v v v v v v v v v v v v v v v v ",
"v v v v v v v v v v v v v v v v v v v v v v v v v v v v v v v v v v v v v v v v v v v v v v v v v v v v v v v v v v v v v v v v ",
"v v v v v v v v v v v v v v v v v v v v v v v v v v v v v v v v v v v v v v v v v v v v v v v v v v v v v v v v v v v v v v v v ",
"v v v v v v v v v v v v v v v v v v v v v v v v v v v v v v v v v v v v v v v v v v v v v v v v v v v v v v v v v v v v v v v v ",
"v v v v v v v v v v v v v v v v v v v v v v v v v v v v v v v v v v v v v v v v v v v v v v v v v v v v v v v v v v v v v v v v ",
"v v v v v v v v v v v v v v v v v v v v v v v v v v v v v v v v v v v v v v v v v v v v v v v v v v v v v v v v v v v v v v v v ",
"v v v v v v v v v v v v v v v v v v v v v v v v v v v v v v v v v v v v v v v v v v v v v v v v v v v v v v v v v v v v v v v v ",
"v v v v v v v v v v v v v v v v v v v v v v v v v v v v v v v v v v v v v v v v v v v v v v v v v v v v v v v v v v v v v v v v ",
"v v v v v v v v v v v v v v v v v v v v v v v v v v v v v v v v v v v v v v v v v v v v v v v v v v v v v v v v v v v v v v v v ",
"v v v v v v v v v v v v v v v v v v v v v v v v v v v v v v v v v v v v v v v v v v v v v v v v v v v v v v v v v v v v v v v v ",
"v v v v v v v v v v v v v v v v v v v v v v v v v v v v v v v v v v v v v v v v v v v v v v v v v v v v v v v v v v v v v v v v ",
"f v v v v v v v v v v v v v v v v v v v v v v v v v v v v v v f f v v v v v v v v v v v v v v v v v v v v v v v v v v v v v v f ",
"f v v v v v v v v v v v v v v v v v v v v v v v v v v v v v v f f v v v v v v v v v v v v v v v v v v v v v v v v v v v v v v f ",
"f v v v v v v v v v v v v v v v v v v v v v v v v v v v v v v f f v v v v v v v v v v v v v v v v v v v v v v v v v v v v v v f ",
"f v v v v v v v v v v v v v v v v v v v v v v v v v v v v v v f f v v v v v v v v v v v v v v v v v v v v v v v v v v v v v v f ",
"f f f f f v v g g g g g v g g g g g v v g g g g g v v f f f f f f f f f f v v g g g g g v g g g g g v v g g g g g v v f f f f f "
};
