/* XPM */
static char *c6a4fca75ae847d2f7324c60c2c5faabTfufrcsDHVFoOq3p[] = {
/* columns rows colors chars-per-pixel */
"64 64 47 1 ",
"  c #5F4C17",
". c #634815",
"X c #604B17",
"o c #604C17",
"O c #704C17",
"+ c #695219",
"@ c #73571B",
"# c #74561A",
"$ c #785219",
"% c #71581C",
"& c #47442F",
"* c #594C23",
"= c #534D2F",
"- c #4E4D3C",
"; c #5F5833",
": c #715D23",
"> c #71612A",
", c #213958",
"< c #3F4F5B",
"1 c #2A486E",
"2 c #3C4F61",
"3 c #394F67",
"4 c #374F6E",
"5 c #344F74",
"6 c #335073",
"7 c #31507A",
"8 c #454E4E",
"9 c #424F55",
"0 c #716D45",
"q c #926621",
"w c #A27327",
"e c #CB9636",
"r c #958241",
"t c #CB9F43",
"y c #F0AF40",
"u c #F0B347",
"i c #F0B84D",
"p c #F0C15B",
"a c #F0CE6F",
"s c #F0D375",
"d c #F0D77C",
"f c #CBCC86",
"g c #D5D68F",
"h c #F0DC83",
"j c #F0E590",
"k c #F0EE9E",
"l c #F0F7AB",
/* pixels */
",,,,,7711111711111771111177,,,,,,,,,,7711111711111771111177,,,,,",
",777777777777777777777777777777,,777777777777777777777777777777,",
",777777777777777777777777777777,,777777777777777777777777777777,",
",777777777777777777777777777777,,777777777777777777777777777777,",
",777777777777777777777777777777,,777777777777777777777777777777,",
"7777777777777777777777777777777777777777777777777777777777777777",
"7777777777777777777777777777777777777777777777777777777777777777",
"7777777777777777777777777777777777777777777777777777777777777777",
"7777777777777777777777777777777777777777777777777777777777777777",
"7777777777777777777777777777777777777777777777777777777777777777",
"7777777777777777777777777777777777777777777777777777777777777777",
"7777777777777777777777777777777777777777777777777777777777777777",
"7777777777777777777777777777777777777777777777777777777777777777",
"7777777777777777777777777777777777777777777777777777777777777777",
"7777777777777777777777777777777777777777777777777777777777777777",
"7777777777777777777777777777777777777777777777777777777777777777",
"7777777777777777777777777777777777777777777777777777777777777777",
"7777777777777777777777777777777777777777777777777777777777777777",
"777777777777777777777777777772>>>;677777777777777777777777777777",
"77777777777777777777777777774:shlf=77777777777777777777777777777",
"77777777777777777777777777779ryuag037777777777777777777777777777",
"7777777777777777777777777777>kyyilf-7777777777777777777777777777",
"7777777777777777777777777777:dyyujf-7777777777777777777777777777",
"7777777777777777777777777777%yyyypf-7777777777777777777777777777",
"7777777777777777777777777777%yyyypf-7777777777777777777777777777",
"7777777777777777777777777777%yyyypf-7777777777777777777777777777",
"7777777777777777777777777777%yyyypf-7777777777777777777777777777",
",777777777777777777777777777%yyyypf-777777777777777777777777777,",
",777777777777777777777777777%yyyypf-777777777777777777777777777,",
",777777777777777777777777777%yyyypf-777777777777777777777777777,",
",777777777777777777777777777%yyyypf-777777777777777777777777777,",
",,,,,7711111711111771111177,%yyyypf&,7711111771111171111177,,,,,",
",,,,,7711111711111771111177,%yyyyyt&,7711111771111171111177,,,,,",
",777777777777777777777777777%yyyyye-777777777777777777777777777,",
",777777777777777777777777777%yyyyye-777777777777777777777777777,",
",777777777777777777777777777%yyyyye-777777777777777777777777777,",
",777777777777777777777777777+qyyyye-777777777777777777777777777,",
"7777777777777777777777777777 $yyyye-7777777777777777777777777777",
"7777777777777777777777777777 $yyyye-7777777777777777777777777777",
"7777777777777777777777777777.Owyyye-7777777777777777777777777777",
"7777777777777777777777777777o..###@-7777777777777777777777777777",
"7777777777777777777777777777 o     -7777777777777777777777777777",
"77777777777777777777777777779     857777777777777777777777777777",
"77777777777777777777777777772     977777777777777777777777777777",
"777777777777777777777777777777= *7777777777777777777777777777777",
"77777777777777777777777777777729<7777777777777777777777777777777",
"7777777777777777777777777777777777777777777777777777777777777777",
"7777777777777777777777777777777777777777777777777777777777777777",
"7777777777777777777777777777777777777777777777777777777777777777",
"7777777777777777777777777777777777777777777777777777777777777777",
"7777777777777777777777777777777777777777777777777777777777777777",
"7777777777777777777777777777777777777777777777777777777777777777",
"7777777777777777777777777777777777777777777777777777777777777777",
"7777777777777777777777777777777777777777777777777777777777777777",
"7777777777777777777777777777777777777777777777777777777777777777",
"7777777777777777777777777777777777777777777777777777777777777777",
"7777777777777777777777777777777777777777777777777777777777777777",
"7777777777777777777777777777777777777777777777777777777777777777",
"7777777777777777777777777777777777777777777777777777777777777777",
",777777777777777777777777777777,,777777777777777777777777777777,",
",777777777777777777777777777777,,777777777777777777777777777777,",
",777777777777777777777777777777,,777777777777777777777777777777,",
",777777777777777777777777777777,,777777777777777777777777777777,",
",,,,,7711111711111771111177,,,,,,,,,,7711111711111771111177,,,,,"
};
