/* XPM */
static char *result[] = {
/* columns rows colors chars-per-pixel */
"64 64 172 2 ",
"   c #000000",
".  c #090604",
"X  c #0C0904",
"o  c #020608",
"O  c #060A0F",
"+  c #0F0A0A",
"@  c #110B06",
"#  c #160A0D",
"$  c #191209",
"%  c #040D10",
"&  c #1B0E12",
"*  c #041016",
"=  c #04121A",
"-  c #0C141E",
";  c #1F1414",
":  c #1C191C",
">  c #25140D",
",  c #20180B",
"<  c #2D1C13",
"1  c #261919",
"2  c #261A19",
"3  c #2C1E1B",
"4  c #361E14",
"5  c #331F18",
"6  c #2D2215",
"7  c #372715",
"8  c #061821",
"9  c #121D29",
"0  c #371F27",
"q  c #16252D",
"w  c #082230",
"e  c #0A2C3D",
"r  c #152336",
"t  c #18283D",
"y  c #2F2F2D",
"u  c #352523",
"i  c #3D2D23",
"p  c #3D242D",
"a  c #3D2A28",
"s  c #3D3027",
"d  c #373131",
"f  c #3D3D3C",
"g  c #413116",
"h  c #402B22",
"j  c #4C2E23",
"k  c #422D2B",
"l  c #45312C",
"z  c #49322E",
"x  c #593527",
"c  c #58352C",
"v  c #5E382C",
"b  c #4E2D39",
"n  c #552733",
"m  c #522E3A",
"M  c #513631",
"N  c #543C34",
"B  c #5B3D37",
"V  c #6F3B27",
"C  c #5B4435",
"Z  c #664838",
"A  c #784633",
"S  c #7F4E3A",
"D  c #6A503E",
"F  c #0B2E40",
"G  c #0D3043",
"H  c #0E364B",
"J  c #0F384E",
"K  c #1B3745",
"L  c #1F324C",
"P  c #0F3B53",
"I  c #1F3652",
"U  c #123D53",
"Y  c #213753",
"T  c #213958",
"R  c #5C3644",
"E  c #61394A",
"W  c #6C3F51",
"Q  c #114059",
"!  c #314E5D",
"~  c #194D67",
"^  c #1D516C",
"/  c #1F5776",
"(  c #2A4469",
")  c #2A486E",
"_  c #2E4B72",
"`  c #225976",
"'  c #225C7A",
"]  c #31507A",
"[  c #514B47",
"{  c #455053",
"}  c #5C5C5A",
"|  c #6B4D41",
" . c #785649",
".. c #7C485C",
"X. c #46616D",
"o. c #4A6E7F",
"O. c #82452D",
"+. c #954F34",
"@. c #8B543B",
"#. c #99573E",
"$. c #A25B3F",
"%. c #803B4D",
"&. c #8B5540",
"*. c #825F4D",
"=. c #9B5D44",
"-. c #95455A",
";. c #96485E",
":. c #A55D41",
">. c #9C6D5D",
",. c #997158",
"<. c #AB6547",
"1. c #B26C52",
"2. c #B06E53",
"3. c #BE7053",
"4. c #8A4D61",
"5. c #875364",
"6. c #9C546A",
"7. c #AA4F67",
"8. c #B0546E",
"9. c #A55D75",
"0. c #A95C75",
"q. c #BE7F61",
"w. c #BD607A",
"e. c #C07356",
"r. c #C47759",
"t. c #C47C5E",
"y. c #CB7C5E",
"u. c #B78869",
"i. c #BF896A",
"p. c #CF8565",
"a. c #D08364",
"s. c #D78D6B",
"d. c #D5916E",
"f. c #DA916F",
"g. c #D99874",
"h. c #D59F7C",
"j. c #DFA47F",
"k. c #E5A07B",
"l. c #276586",
"z. c #587988",
"x. c #9C7A81",
"c. c #B66682",
"v. c #BA6C8A",
"b. c #C66A88",
"n. c #CF708E",
"m. c #D47494",
"M. c #DB7799",
"N. c #DC7B9C",
"B. c #DB7EA1",
"V. c #E27EA2",
"C. c #749BAD",
"Z. c #928E89",
"A. c #9A9A96",
"S. c #B9B9B5",
"D. c #DDA480",
"F. c #D6AF94",
"G. c #EAA781",
"H. c #EDAD86",
"J. c #E5AD88",
"K. c #F4B68D",
"L. c #F5BE9A",
"P. c #E582A5",
"I. c #E887AD",
"U. c #EE88AE",
"Y. c #F28CB2",
"T. c #F890B8",
"R. c #D0A3AC",
"E. c #F4C6A6",
"W. c #D8D8D3",
"Q. c #DADDDA",
"!. c #DAE0DE",
"~. c #F7F7F1",
/* pixels */
"T T T T T ] ] ) ) ) ) ) ] ) ) ) ) ) ] ] ) ) ) ) ) ] ] T T T T T T T T T T ] ] ) ) ) ) ) ] ) ) ) ) ) ] ] ) ) ) ) ) ] ] T T T T T ",
"T ] ] ] ] ] ] ] ] ] ] ] ] ] ] ] ] ] ] ] ] ] ] ] ] ] ] ] ] ] ] T I ] ] ] ] ] ] ] ] ] ] ] ] ] ] ] ] ] ] ] ] ] ] ] ] ] ] ] ] ] ] T ",
"T ] ] ] ] ] ] ] ] ] ] ] ] ] ] ] ] ] ] ] ] ] ] ] ] ] ] ] ] ] ] T T ] ] ] ] ] ] ] ] ] ] ] ] ] ] ] ] ] ] ] ] ] ] ] ] ] ] ] ] ] ] T ",
"T ] ] ] ] ] ] ] ] ] ] ] ] ] ] ] ] ] ] ] ] ] ] ] ] ] ] ] ] ] ] T T ] ] ] ] ] ] ] ] ] ] ] ] ] ] ] ] ] ] ] ] ] ] ] ] ] ] ] ] ] ] T ",
"T ] ] ] ] ] ] ] ] ] ] ] ] ] ] ] ] ] ] ] ] ] ] ] ] ] ] ] ] ] ] T T ] ] ] ] ] ] ] ] ] ] ] ] ] ] ] ] ] ] ] ] ] ] ] ] ] ] ] ] ] ] T ",
"] ] ] ] ] ] ] ] ] ] ] ] ] ] ] ] ] ] ] ] ] ] ] ] ] ] ] ] ] ] ] ] ] ] ] ] ] ] ] ] ] ] ] ] ] ] ] ] ] ] ] ] ] ] ] ] ] ] ] ] ] ] ] ] ",
"] ] ] ] ] ] ] ] ] ] ] ] ] ] ] ] ] ] ] ] ] ] ] ] ] ] ] ] ] ] ] ] ] ] ] ] ] ] ] ] ] ] ] ] ] ] ] ] ] ] ] ] ] ] ] ] ] ] ] ] ] ] ] ] ",
"] ] ] ] ] ] ] ] ] ] ] ] ] ] ] ] ] ] ] ] ] ] ] ] ] ] ] ] ] ] ] ] ] ] ] ] ] ] ] ] ] ] ] ] ] ] ] ] ] ] ] ] ] ] ] ] ] ] ] ] ] ] ] ] ",
"] ] ] ] ] ] ] ] ] ] ] ] ] ] ] ] ] ] ] ] ] ] ] ] ] ] ] ] ] ] ] ] ] ] ] ] ] ] ] ] ] ] ] ] ] ] ] ] ] ] ] ] ] ] ] ] ] ] ] ] ] ] ] ] ",
"] ] ] ] ] ] ] ] ] ] ] ] ] ] ] ] ] ] ] ] ] ] ] ] ] ] ] ] ] ] ] ] ] ] ] ] ] ] ] ] ] ] ] ] ] ] ] ] ] ] ] ] ] ] ] ] ] ] ] ] ] ] ] ] ",
"] ] ] ] ] ] ] ] ] ] ] ] ] ] ] ] ] ] ] ] ] ] ] ] ] ] ] ] ] ] ] ] ] ] ] ] ] ] ] ] ] ] ] ] ] ] ] ] ] ] ] ] ] ] ] ] ] ] ] ] ] ] ] ] ",
"] ] ] ] ] ] ] ] ] ] ] ] ] ] ] ] ] ] ] ] ] ] ] ] ] O                               T ] ] ] ] ] ] ] ] ] ] ] ] ] ] ] ] ] ] ] ] ] ] ",
"] ] ] ] ] ] ] ] ] ] ] ] ] ] ] ] ] ] ] ] ] ] ] ] ] O                               T ] ] ] ] ] ] ] ] ] ] ] ] ] ] ] ] ] ] ] ] ] ] ",
"] ] ] ] ] ] ] ] ] ] ] ] ] ] ] ] ] ] ] ] ] ] ] O   u a a a a a a a a a a a a a a a #   ( ] ] ] ] ] ] ] ] ] ] ] ] ] ] ] ] ] ] ] ] ",
"] ] ] ] ] ] ] ] ] ] ] ] ] ] ] ] ] ] ] ] ] ] ] O   u a a a a a a a a a a a a a a a +   T ] ] ] ] ] ] ] ] ] ] ] ] ] ] ] ] ] ] ] ] ",
"] ] ] ] ] ] ] ] ] ] ] ] ] ] ] ] ] ] ] ] ] t   u a a a k z M k a a a a a a a a a a a a + - ] ] ] ] ] ] ] ] ] ] ] ] ] ] ] ] ] ] ] ",
"] ] ] ] ] ] ] ] ] ] ] ] ] ] ] ] ] ] ] ] ] t   u a a k M B B M a a a a a a a i k a a a + - ] ] ] ] ] ] ] ] ] ] ] ] ] ] ] ] ] ] ] ",
"] ] ] ] ] ] ] ] ] ] ] ] ] ] ] ] ] ] ] ]   ; a a a k z B B B M a a a N *.*.*.*.*. .z a + - ] ] ] ] ] ] ] ] ] ] ] ] ] ] ] ] ] ] ] ",
"] ] ] ] ] ] ] ] ] ] ] ] ] ] ] ] ] ] ] ]   1 k a a k B B B B M a c v *.K.K.K.K.K.L.| a + - ] ] ] ] ] ] ] ] ] ] ] ] ] ] ] ] ] ] ] ",
"] ] ] ] ] ] ] ] ] ] ] ] ] ] ] ] ] ] ] ]   3 M a a k B B B M k c 3.r.D.K.K.K.K.K.K.H.D.7 - ] ] ] ] ] ] ] ] ] ] ] ] ] ] ] ] ] ] ] ",
"] ] ] ] ] ] ] ] ] ] ] ] ] ] ] ] ] ] ] ]   3 M a a z B B M z V #.t.s.K.K.K.K.K.K.K.K.K.i - ] ] ] ] ] ] ] ] ] ] ] ] ] ] ] ] ] ] ] ",
"] ] ] ] ] ] ] ] ] ] ] ] ] ] ] ] ] ] ] ]   3 M a a a k k k &.3.y.y.H.K.K.K.K.K.K.K.K.K.i - ] ] ] ] ] ] ] ] ] ] ] ] ] ] ] ] ] ] ] ",
"] ] ] ] ] ] ] ] ] ] ] ] ] ] ] ] ] ] ] ]   3 M a a a a a a =.y.y.y.y.a.a.a.k.K.K.K.K.K.i - ] ] ] ] ] ] ] ] ] ] ] ] ] ] ] ] ] ] ] ",
"] ] ] ] ] ] ] ] ] ] ] ] ] ] ] ] ] ] ] ]   3 M 3 1 1 1 a c e.y.y.y.&.S @.S i.d.k.K.K.K.i - ] ] ] ] ] ] ] ] ] ] ] ] ] ] ] ] ] ] ] ",
"] ] ] ] ] ] ] ] ] ] ] ] ] ] ] ] ] ] ] ]   3 M o       u V e.y.y.y.&       V :.y.H.K.K.i - ] ] ] ] ] ] ] ] ] ] ] ] ] ] ] ] ] ] ] ",
"] ] ] ] ] ] ] ] ] ] ] ] ] ] ] ] ] ] ] ]   . . =.q.h.j.2 4 r.y.y.t.g.F.W.W.| V 1.d.K.K.i - ] ] ] ] ] ] ] ] ] ] ] ] ] ] ] ] ] ] ] ",
"] ] ] ] ] ] ] ] ] ] ] ] ] ] ] ] ] ] ] ]       1.f.K.K.$ 4 r.y.y.y.H.E.~.~.L < +.<.K.K.i - ] ] ] ] ] ] ] ] ] ] ] ] ] ] ] ] ] ] ] ",
"T ] ] ] ] ] ] ] ] ] ] ] ] ] ] ] ] ] ] ]       1.f.K.K.@.$.y.y.y.y.H.E.~.~.z @ x @.K.K.i - ] ] ] ] ] ] ] ] ] ] ] ] ] ] ] ] ] ] I ",
"T ] ] ] ] ] ] ] ] ] ] ] ] ] ] ] ] ] ] ]       1.f.K.K.=.:.y.y.y.y.J.E.~.~.C     h K.K.i 8 ] ] ] ] ] ] ] ] ] ] ] ] ] ] ] ] ] ] T ",
"I ] ] ] ] ] ] ] ] ] ] ] ] ] ] ] ] ] ] ]       A 2.K.K.A A e.y.f.H.K.K.L.L.H.h.j.h.K.K.J.,.O ( ] ] ] ] ] ] ] ] ] ] ] ] ] ] ] ] T ",
"T ] ] ] ] ] ] ] ] ] ] ] ] ] ] ] ] ] ] ]         C K.K., 4 <.y.H.K.K.K.K.K.K.K.K.K.K.K.K.u.  T ] ] ] ] ] ] ] ] ] ] ] ] ] ] ] ] T ",
"T T T T T ] ] ) ) ) ) ) ] ) ) ) ) ) ] ] Y     A.Z.s s   4 $.e.G.K.K.K.K.K.K.K.K.K.K.K.K.u.  I ) ) ) ) ] ) ) ) ) ) ] ] I T T T T ",
"T T T T T ] ] ) ) ) ) ) ] ) ) ) ) ) ] ] )     W.A.      4 +.+.G.K.K.K.K.K.K.K.K.K.K.K.K.u.  Y _ ) ) ) ] ) ) ) ) ) ] ] T T T T T ",
"T ] ] ] ] ] ] ] ] ] ] ] ] ] ] ] ] ] ] - -     f } S.S.: > V V j.K.K.K.D i i i i i | K.D d T _ ] ] ] ] ] ] ] ] ] ] ] ] ] ] ] ] T ",
"T ] ] ] ] ] ] ] ] ] ] ] ] ] ] ] ] ] ]           } ~.~.[ f y   j.K.K.K.Z 5 5 6 5 6 Z K.i 8 ] ] ] ] ] ] ] ] ] ] ] ] ] ] ] ] ] ] T ",
"T ] ] ] ] ] ] ] ] ] ] ] ] ] ] ] ] - - G G G G H ! X.X.!.~.A.  =.<.p.s.k.G.G.G.G.G.i.i @ - ] ] ] ] ] ] ] ] ] ] ] ] ] ] ] ] ] ] Y ",
"T ] ] ] ] ] ] ] ] ] ] ] ] ] ] ] ]     Q Q Q Q Q J e G !.~.A.  O.+.r.y.G.K.K.K.K.K.u.    - ] ] ] ] ] ] ] ] ] ] ] ] ] ] ] ] ] ] T ",
"] ] ] ] ] ] ] ] ] ] ] ] ] ] ] - - G G Q Q Q ~ / / ~ e !.~.W.S.l > 5 5 i i i i i i 3     - ] ] ] ] ] ] ] ] ] ] ] ] ] ] ] ] ] ] ] ",
"] ] ] ] ] ] ] ] ] ] ] ] ] ] ]     Q Q Q Q Q ~ l.l.^ e !.~.~.~.:                         - ] ] ] ] ] ] ] ] ] ] ] ] ] ] ] ] ] ] ] ",
"] ] ] ] ] ] ] ] ] ] ] ] ] ] ]     Q Q ' ' / / ~ ~ Q J X.X.Q.~.S.S.S.x.%.%.6.9.1 y S.S.Z.o - r _ ] ] ] ] ] ] ] ] ] ] ] ] ] ] ] ] ",
"] ] ] ] ] ] ] ] ] ] ] ] ] ] ]     Q Q l.l.l.` Q Q Q Q G e Q.~.~.~.~.R.7.7.n.N.0 f ~.~.S.@ i d ( T ] ] ] ] ] ] ] ] ] ] ] ] ] ] ] ",
"] ] ] ] ] ] ] ] ] ] ] ] ] ] ]     >.>.U U U J = * J Q P P !.~.~.~.~.R.7.7.m.V.p f ~.~.S.s K.u.  O ] ] ] ] ] ] ] ] ] ] ] ] ] ] ] ",
"] ] ] ] ] ] ] ] ] ] ] ] ] ] ]     y.y.{ { { { s i K P Q Q z.C.C.C.} 5.7.7.P.T.p 9 o.o.! i K.u.  O ] ] ] ] ] ] ] ] ] ] ] ] ] ] ] ",
"] ] ] ] ] ] ] ] ] ] ] ] ] ] ]     y.y.K.K.K.K.K.K.; P U Q Q l.l.l.  n 7.7.V.T.p % Q Q G h K.u.  O ] ] ] ] ] ] ] ] ] ] ] ] ] ] ] ",
"] ] ] ] ] ] ] ] ] ] ] ] ] ] ]     y.y.K.K.K.K.K.K.; e H U ` l.` `   n 7.7.P.T.p * Q Q G i K.u.  O ] ] ] ] ] ] ] ] ] ] ] ] ] ] ] ",
"] ] ] ] ] ] ] ] ] ] ] ] ] ] ]     y.y.K.K.K.K.D C q e e Q l.l.O   -.7.7.7.V.T.p * Q Q G i K.u.  O ] ] ] ] ] ] ] ] ] ] ] ] ] ] ] ",
"] ] ] ] ] ] ] ] ] ] ] ] ] ] ]     y.y.H.H.K.K.i 1 w e F U ` ' 9 # -.7.7.7.M.Y.p * Q Q G i K.u.  O ] ] ] ] ] ] ] ] ] ] ] ] ] ] ] ",
"] ] ] ] ] ] ] ] ] ] ] ] ] ] ] L L j j y.y.g.K.K.K., = F F o   -.7.7.7.7.7.7.m.9.E - 8 = + C [ L T ] ] ] ] ] ] ] ] ] ] ] ] ] ] ] ",
"] ] ] ] ] ] ] ] ] ] ] ] ] ] ] ] ]     y.y.g.K.K.K.; * e F & # -.7.7.7.8.8.8.m.B.c.& ; & +   - ] ] ] ] ] ] ] ] ] ] ] ] ] ] ] ] ] ",
"] ] ] ] ] ] ] ] ] ] ] ] ] ] ] ] ]     j j c C C C + o = = ;.7.7.7.7.7.n.N.N.Y.T.T.T.Y.N.9.  - ] ] ] ] ] ] ] ] ] ] ] ] ] ] ] ] ] ",
"] ] ] ] ] ] ] ] ] ] ] ] ] ] ] ] ]         . & # & & ; ; 1 -.7.7.8.8.8.m.V.V.Y.T.T.T.Y.V.9.  - ] ] ] ] ] ] ] ] ] ] ] ] ] ] ] ] ] ",
"] ] ] ] ] ] ] ] ] ] ] ] ] ] ] ] ]         n 7.7.w.N.P.T.T.8.7.w.N.N.N.Y.T.Y.T.T.T.T.T.T.v.  - ] ] ] ] ] ] ] ] ] ] ] ] ] ] ] ] ] ",
"] ] ] ] ] ] ] ] ] ] ] ] ] ] ] ] ]     4.4.0.b.b.m.U.Y.T.T.B.M.M.N.V.V.U.T.T.T.N.I.T.T.T.v.  - ] ] ] ] ] ] ] ] ] ] ] ] ] ] ] ] ] ",
"] ] ] ] ] ] ] ] ] ] ] ] ] ] ] ] ]     N.N.N.V.N.P.T.T.T.T.T.T.U.N.Y.T.T.T.T.T.p p T.T.T.v.  - ] ] ] ] ] ] ] ] ] ] ] ] ] ] ] ] ] ",
"] ] ] ] ] ] ] ] ] ] ] ] ] ] ] ] ]     N.N.N.N.N.P.T.T.T.T.T.T.U.N.Y.T.T.T.T...h 3 5.T.T.v.  - ] ] ] ] ] ] ] ] ] ] ] ] ] ] ] ] ] ",
"] ] ] ] ] ] ] ] ] ] ] ] ] ] ] ] ] L L m m m m B.Y.T.T.W R R R R m.Y.T.T.T...3 7 g 3 R R b   - ] ] ] ] ] ] ] ] ] ] ] ] ] ] ] ] ] ",
"] ] ] ] ] ] ] ] ] ] ] ] ] ] ] ] ] ] ]         B.T.T.T.1         b.Y.T.T.T.p @ g g 7         - ] ] ] ] ] ] ] ] ] ] ] ] ] ] ] ] ] ",
"] ] ] ] ] ] ] ] ] ] ] ] ] ] ] ] ] ] ] ] ] ] ] O           $ g g .                         - ] ] ] ] ] ] ] ] ] ] ] ] ] ] ] ] ] ] ",
"] ] ] ] ] ] ] ] ] ] ] ] ] ] ] ] ] ] ] ] ] ] ] O     X $ , 6 g g .                         - ] ] ] ] ] ] ] ] ] ] ] ] ] ] ] ] ] ] ",
"T ] ] ] ] ] ] ] ] ] ] ] ] ] ] ] ] ] ] ] ] ] ] O     $ g g g g g 7 X q ] ] ] ] ] ] ] ] ] ] ] ] ] ] ] ] ] ] ] ] ] ] ] ] ] ] ] ] T ",
"T ] ] ] ] ] ] ] ] ] ] ] ] ] ] ] ] ] ] ] ] ] ] O     $ g g g g g g . 9 ] ] ] ] ] ] ] ] ] ] ] ] ] ] ] ] ] ] ] ] ] ] ] ] ] ] ] ] T ",
"T ] ] ] ] ] ] ] ] ] ] ] ] ] ] ] ] ] ] ] ] ] ] ] ] O               ) ] ] ] ] ] ] ] ] ] ] ] ] ] ] ] ] ] ] ] ] ] ] ] ] ] ] ] ] ] T ",
"T ] ] ] ] ] ] ] ] ] ] ] ] ] ] ] ] ] ] ] ] ] ] ] ] O               ) ] ] ] ] ] ] ] ] ] ] ] ] ] ] ] ] ] ] ] ] ] ] ] ] ] ] ] ] ] T ",
"T T T T T ] ] ) ) ) ) ) ] ) ) ) ) ) ] ] ) ) ) ) ) ] ] T T T T T T T T T T ] ] ) ) ) ) ) ] ) ) ) ) ) ] ] ) ) ) ) ) ] ] T T T T T "
};
