/* XPM */
static char *result[] = {
/* columns rows colors chars-per-pixel */
"64 64 171 2 ",
"   c #000000",
".  c #090604",
"X  c #020608",
"o  c #05090E",
"O  c #0F0B0A",
"+  c #110B06",
"@  c #160D0D",
"#  c #1C0F0A",
"$  c #17100F",
"%  c #181208",
"&  c #030B10",
"*  c #080D15",
"=  c #1C0F13",
"-  c #051218",
";  c #0C141E",
":  c #1F1415",
">  c #1F1F1E",
",  c #25130D",
"<  c #22190B",
"1  c #291817",
"2  c #261A19",
"3  c #331F17",
"4  c #331F18",
"5  c #2D201E",
"6  c #3A2C13",
"7  c #342518",
"8  c #38251E",
"9  c #061821",
"0  c #0D1924",
"q  c #371F27",
"w  c #142025",
"e  c #0D2735",
"r  c #0B293A",
"t  c #152435",
"y  c #162A35",
"u  c #182A3C",
"i  c #2E2E2D",
"p  c #3D2D23",
"a  c #3A2429",
"s  c #3D2A28",
"d  c #3D3D3C",
"f  c #40261D",
"g  c #413116",
"h  c #401D26",
"j  c #472E27",
"k  c #4C2E23",
"l  c #432D2B",
"z  c #43342C",
"x  c #4B322E",
"c  c #4C382C",
"v  c #5D3121",
"b  c #53342A",
"n  c #5E382C",
"m  c #522E3A",
"M  c #493634",
"N  c #523337",
"B  c #553934",
"V  c #5B3D37",
"C  c #6D3A27",
"Z  c #673E2D",
"A  c #5B4435",
"S  c #72432F",
"D  c #6F4738",
"F  c #7B4735",
"G  c #7F4E3A",
"H  c #0B2E40",
"J  c #1B2D44",
"K  c #0D3043",
"L  c #0E3549",
"P  c #1F324C",
"I  c #163B4E",
"U  c #0F3B53",
"Y  c #113C53",
"T  c #223754",
"R  c #213958",
"E  c #4E3547",
"W  c #5D3645",
"Q  c #603544",
"!  c #6A3140",
"~  c #763849",
"^  c #114059",
"/  c #354855",
"(  c #174963",
")  c #174964",
"_  c #1F5674",
"`  c #2B466B",
"'  c #2A486E",
"]  c #385765",
"[  c #215976",
"{  c #225C7B",
"}  c #31507A",
"|  c #504743",
" . c #455053",
".. c #5C5C5A",
"X. c #6F5240",
"o. c #755245",
"O. c #7A5B46",
"+. c #72525A",
"@. c #7D5B62",
"#. c #46606C",
"$. c #4A6E7F",
"%. c #6C6C69",
"&. c #636F74",
"*. c #864D38",
"=. c #954F34",
"-. c #88553D",
";. c #9A5338",
":. c #A25B3F",
">. c #803B4D",
",. c #815B46",
"<. c #825F4D",
"1. c #985D46",
"2. c #906856",
"3. c #997258",
"4. c #AB674B",
"5. c #B76B4E",
"6. c #BA6D50",
"7. c #BD7053",
"8. c #B7775B",
"9. c #8A4D61",
"0. c #8B5168",
"q. c #9C556B",
"w. c #9B5A73",
"e. c #AA4F67",
"r. c #AD516A",
"t. c #B0546E",
"y. c #A55C75",
"u. c #B75A74",
"i. c #C47759",
"p. c #C77C5E",
"a. c #CB7C5E",
"s. c #CB8665",
"d. c #D08364",
"f. c #D48B6A",
"g. c #CC916F",
"h. c #D4926E",
"j. c #D89673",
"k. c #D59F7C",
"l. c #E19D79",
"z. c #E5A17C",
"x. c #E8A47E",
"c. c #276687",
"v. c #BD6D8B",
"b. c #C66B89",
"n. c #CB6C8A",
"m. c #D47393",
"M. c #DB779A",
"N. c #DC7B9C",
"B. c #D97EA1",
"V. c #E07DA0",
"C. c #739AAB",
"Z. c #93908C",
"A. c #A18589",
"S. c #B9B9B5",
"D. c #DAA684",
"F. c #EAA781",
"G. c #EEAE87",
"H. c #E5AD88",
"J. c #F4B68D",
"K. c #F4BE9A",
"L. c #E380A3",
"P. c #E887AD",
"I. c #EE88AE",
"U. c #F28BB2",
"Y. c #F890B8",
"T. c #DAB8BD",
"R. c #AFBCC0",
"E. c #BCC4C4",
"W. c #CBD1CF",
"Q. c #D8D8D3",
"!. c #F7F7F1",
/* pixels */
"R R R R R } } ' ' ' ' ' } ' ' ' ' ' } } ' ' ' ' ' } } R R R R R R R R P R } } ' ' ' ' ' } ' ' ' ' ' } } ' ' ' ' ' } } R R R R R ",
"R } } } } } } } } } } } } } } } } } } } } } } } } } } } } } } R R } } } } } } } } } } } } } } } } } } } } } } } } } } } } } } R ",
"R } } } } } } } } } } } } } } } } } } } } } } } } } } } } } } R R } } } } } } } } } } } } } } } } } } } } } } } } } } } } } } R ",
"R } } } } } } } } } } } } } } } } } } } } } } } } } } } } } } R R } } } } } } } } } } } } } } } } } } } } } } } } } } } } } } R ",
"R } } } } } } } } } } } } } } } } } } } } } } } } } } } } } } R R } } } } } } } } } } } } } } } } } } } } } } } } } } } } } } R ",
"} } } } } } } } } } } } } } } } } } } } } } } } } } } } } } } } } } } } } } } } } } } } } } } } } } } } } } } } } } } } } } } } ",
"} } } } } } } } } } } } } } } } } } } } } } } } } } } } } } } } } } } } } } } } } } } } } } } } } } } } } } } } } } } } } } } } ",
"} } } } } } } } } } } } } } } } } } } } } } } } } } } } } } } } } } } } } } } } } } } } } } } } } } } } } } } } } } } } } } } } ",
"} } } } } } } } } } } } } } } } } } } } } } } } } } } } } } } } } } } } } } } } } } } } } } } } } } } } } } } } } } } } } } } } ",
"} } } } } } } } } } } } } } } } } } } } } } } } } } } } } } } } } } } } } } } } } } } } } } } } } } } } } } } } } } } } } } } } ",
"} } } } } } } } } } } } } } } } } } } } } } } } } } } } } } } } } } } } } } } } } } } } } } } } } } } } } } } } } } } } } } } } ",
"} } } } } } } } } } } } } } } } } } } } } } P                         X     ; } } } } } } } } } } } } } } } } } } } } } } } } } ",
"} } } } } } } } } } } } } } } } } } } } } } P                               ; } } } } } } } } } } } } } } } } } } } } } } } } } ",
"} } } } } } } } } } } } } } } } } } } } u   $ s s s s s s s s s s s s s s s 5   ; } } } } } } } } } } } } } } } } } } } } } } } ",
"} } } } } } } } } } } } } } } } } } } } u   $ s s s s s s s s s s s s s s s a   ; } } } } } } } } } } } } } } } } } } } } } } } ",
"} } } } } } } } } } } } } } } } } } }   : s s s s s s s s s s s s x x x l s a a 5   ` ' } } } } } } } } } } } } } } } } } } } } ",
"} } } } } } } } } } } } } } } } } } }   : s s s s s s s s s s s s V V V N l s s 5   R } } } } } } } } } } } } } } } } } } } } } ",
"} } } } } } } } } } } } } } } } } } }   : s B <.<.<.<.<.<.M s s s B V V V l s s s s @ ; } } } } } } } } } } } } } } } } } } } } ",
"} } } } } } } } } } } } } } } } } } }   : s <.J.J.J.J.J.J.D n b s B V V V V l s s l O ; } } } } } } } } } } } } } } } } } } } } ",
"} } } } } } } } } } } } } } } } } } } X X.z.H.J.J.J.J.J.J.j.i.4.j l B V V V z s s B @ ; } } } } } } } } } } } } } } } } } } } } ",
"} } } } } } } } } } } } } } } } } } }   O.J.J.J.J.J.J.J.J.F.f.7.*.n l B V V l s s B @ ; } } } } } } } } } } } } } } } } } } } } ",
"} } } } } } } } } } } } } } } } } } }   O.J.J.J.J.J.J.J.J.J.z.a.p.i.F l l s s s s B @ ; } } } } } } } } } } } } } } } } } } } } ",
"} } } } } } } } } } } } } } } } } } }   O.J.J.J.J.J.F.d.d.d.a.a.a.a.*.s p s s s s B $ ; } } } } } } } } } } } } } } } } } } } } ",
"} } } } } } } } } } } } } } } } } } }   O.J.J.G.l.h.8.G G G 1.a.a.a.5.x a 2 2 2 2 B $ ; } } } } } } } } } } } } } } } } } } } } ",
"} } } } } } } } } } } } } } } } } } }   O.J.J.z.a.;.v X X   k a.a.a.7.b 2       O B $ ; } } } } } } } } } } } } } } } } } } } } ",
"} } } } } } } } } } } } } } } } } } }   O.J.J.s.5.C 2.Q.Q.D.h.a.a.a.i., x k.k.8.*.. X ; } } } } } } } } } } } } } } } } } } } } ",
"} } } } } } } } } } } } } } } } } } }   O.J.J.:.=.+ ..!.!.K.z.a.a.a.7., p J.J.f.1.    ; } } } } } } } } } } } } } } } } } } } } ",
"R } } } } } } } } } } } } } } } } } }   O.J.J.S v X ..!.!.K.z.a.a.a.a.=.1.J.J.f.1.    ; } } } } } } } } } } } } } } } } } } } R ",
"R } } } } } } } } } } } } } } } } } }   O.J.J.<     ..!.!.K.l.a.a.a.p.:.4.J.J.f.1.    ; } } } } } } } } } } } } } } } } } } } R ",
"R } } } } } } } } } } } } } } } } J & k.H.J.J.k.k.k.H.K.K.J.J.F.f.p.6.S -.J.J.1.Z     ; } } } } } } } } } } } } } } } } } } } R ",
"R } } } } } } } } } } } } } } } } u   J.J.J.J.J.J.J.J.J.J.J.J.J.z.a.;., p J.J.z       ; } } } } } } } } } } } } } } } } } } } R ",
"R R R R P } } ' ' ' ' ' } ' ' ' ' y   J.J.J.J.J.J.J.J.J.J.J.J.J.l.i.;., + p j Z.Z.  * R } } ' ' ' ' ' } ' ' ' ' ' } } R R R R R ",
"R R R R R } } ' ' ' ' ' } ' ' ' ' t   J.J.J.J.J.J.J.J.J.J.J.J.J.s.=.=.,       S.S.  ; ' } } ' ' ' ' ' } ' ' ' ' ' } } R R R R R ",
"R } } } } } } } } } } } } } } } } ' R p 3.J.A p p p p p O.J.J.J.s.C C # i S.S...i   X ; t } } } } } } } } } } } } } } } } } } R ",
"R } } } } } } } } } } } } } } } } } }   O.J.j 3 3 4 7 3 ,.J.J.J.3.  i d %.!.!.d         0 } } } } } } } } } } } } } } } } } } R ",
"R } } } } } } } } } } } } } } } } } }   : p g.F.F.F.F.x.z.f.a.4.S   Q.!.W.#.#.I K K K K e ; t } } } } } } } } } } } } } } } } R ",
"R } } } } } } } } } } } } } } } } } }       k.J.J.J.J.J.z.a.5.=.v   Q.!.E.H H Y U ^ ^ ^ K   ; } } } } } } } } } } } } } } } } R ",
"} } } } } } } } } } } } } } } } } } }       p p p p p p 8 7 1 , | S.!.!.E.H ) { { ( ^ ^ Y K r ; 0 } } } } } } } } } } } } } } } ",
"} } } } } } } } } } } } } } } } } } }                           ..!.!.!.E.r [ c.c.( ^ U ^ ^ K   o } } } } } } } } } } } } } } } ",
"} } } } } } } } } } } } } } } } } ; ;   S.S.S.> q y.q.>.>.A.S.S.Q.!.W.#.] Y ( ) ( { { { _ ^ H   o } } } } } } } } } } } } } } } ",
"} } } } } } } } } } } } } } } R R z p   !.!.!.2 m B.n.e.e.T.!.!.!.!.E.K K ^ ^ ^ ^ { c.c.{ U H   o } } } } } } } } } } } } } } } ",
"} } } } } } } } } } } } } } }     J.J.  !.!.!.w m V.m.e.e.T.!.!.!.!.R.U Y ^ L - ; Y U ^ / 3.o.X o } } } } } } } } } } } } } } } ",
"} } } } } } } } } } } } } } }     J.J.  $.$.$.o W Y.M.e.e.@.&.C.C.C.$.^ ^ ^ u p p  . . .+.s.1.  o } } } } } } } } } } } } } } } ",
"} } } } } } } } } } } } } } }     J.J.  ^ ^ ^ X W Y.M.e.e.h ; c.c.{ ^ ^ ^ K p J.J.J.J.J.F.a.1.  * } } } } } } } } } } } } } } } ",
"} } } } } } } } } } } } } } }     J.J.  ^ ^ ^ X W Y.N.e.e.h - [ { c.[ U L e p J.J.J.J.J.x.d.1.  o } } } } } } } } } } } } } } } ",
"} } } } } } } } } } } } } } }     J.J.  ^ ^ ^ o Q U.M.e.e.e.!   e c.c.Y H r w A 2.J.J.J.x.s.1.  o } } } } } } } } } } } } } } } ",
"} } } } } } } } } } } } } } }     J.J.  ^ Y ^ o W U.m.e.e.e.~ @ t [ { Y H r t : c J.G.x.z.a.1.  o } } } } } } } } } } } } } } } ",
"} } } } } } } } } } } } } } } P P A A   0 9 9 +.y.n.e.e.e.e.e.e.Z X o H H & s J.J.J.f.s.4.g M P T } } } } } } } } } } } } } } } ",
"} } } } } } } } } } } } } } } } }     = = : : b.V.n.t.t.r.e.e.e.~ @ * H H & s J.J.J.f.a.1.  ; } } } } } } } } } } } } } } } } } ",
"} } } } } } } } } } } } } } } } }     N.N.Y.Y.Y.Y.I.N.B.n.e.e.e.e.e.~ - - X + A A A b k f   ; } } } } } } } } } } } } } } } } } ",
"} } } } } } } } } } } } } } } } }     V.V.Y.Y.Y.Y.U.V.V.n.t.t.t.e.e.~ 2 : = = @ @ @         ; } } } } } } } } } } } } } } } } } ",
"} } } } } } } } } } } } } } } } }     Y.Y.Y.Y.Y.Y.Y.Y.Y.I.N.N.N.r.e.n.Y.Y.V.B.u.e.e.1       ; } } } } } } } } } } } } } } } } } ",
"} } } } } } } } } } } } } } } } }     Y.Y.Y.Y.B.P.Y.Y.Y.I.B.N.N.M.M.V.Y.Y.U.P.m.n.n.e.9.Q   ; } } } } } } } } } } } } } } } } } ",
"} } } } } } } } } } } } } } } } }     Y.Y.Y.Y.= W Y.Y.Y.Y.Y.I.N.U.Y.Y.Y.Y.Y.Y.V.N.N.N.N.y.  ; } } } } } } } } } } } } } } } } } ",
"} } } } } } } } } } } } } } } } }     Y.Y.Y.+.3 a w.Y.Y.Y.Y.U.N.Y.Y.Y.Y.Y.Y.Y.L.N.N.N.N.y.  ; } } } } } } } } } } } } } } } } } ",
"} } } } } } } } } } } } } } } } }     W W W 7 6 6 , w.Y.Y.Y.I.y.W W W Q 0.Y.Y.U.v.m m m E P T } } } } } } } } } } } } } } } } } ",
"} } } } } } } } } } } } } } } } }           6 g g . W Y.Y.Y.I.9.X       a Y.Y.Y.b.X X X ; } } } } } } } } } } } } } } } } } } } ",
"} } } } } } } } } } } } } } } } } }                           % g g .           ; } } } } } } } } } } } } } } } } } } } } } } } ",
"} } } } } } } } } } } } } } } } } }                           % g g < , < .     ; } } } } } } } } } } } } } } } } } } } } } } } ",
"R } } } } } } } } } } } } } } } } } } } } } } } } } } } } o % g g g g g g +     ; } } } } } } } } } } } } } } } } } } } } } } R ",
"R } } } } } } } } } } } } } } } } } } } } } } } } } } } } o % g g g g g g +     ; } } } } } } } } } } } } } } } } } } } } } } R ",
"R } } } } } } } } } } } } } } } } } } } } } } } } } } } } } P               ; } } } } } } } } } } } } } } } } } } } } } } } c.T ",
"R } } } } } } } } } } } } } } } } } } } } } } } } } } } } } P               0 } } } } } } } c.} } } } } } } } c.} } } } } } } T ",
"R R R R R } } ' ' ' ' ' } ' ' ' ' ' } } ' ' ' ' ' } } R R R R R R R R R R } } ' ` ` ` ` } ` ` ` ` ` } } ` ` ` ' ` } } R R R T T "
};
