/* XPM */
static char *result[] = {
/* columns rows colors chars-per-pixel */
"64 64 21 1 ",
"  c black",
". c #010101",
"X c #3D2A28",
"o c #413116",
"O c #5B3D37",
"+ c #0B2E40",
"@ c #213958",
"# c #114059",
"$ c #2A486E",
"% c #31507A",
"& c #954F34",
"* c #A94F67",
"= c #AA4F67",
"- c #CB7C5E",
"; c #E5A174",
": c #276687",
"> c #DC7B9C",
", c #F4B68D",
"< c #F78FB7",
"1 c #F890B8",
"2 c #F7F7F1",
/* pixels */
"@@@@@%%$$$$$%$$$$$%%$$$$$%%@@@@@@@@@@%%$$$$$%$$$$$%%$$$$$%%@@@@@",
"@%%%%%%%%%%%%%%%%%%%%%%%%%%%%%%@@%%%%%%%%%%%%%%%%%%%%%%%%%%%%%%@",
"@%%%%%%%%%%%%%%%%%%%%%%%%%%%%%%@@%%%%%%%%%%%%%%%%%%%%%%%%%%%%%%@",
"@%%%%%%%%%%%%%%%%%%%%%%%%%%%%%%@@%%%%%%%%%%%%%%%%%%%%%%%%%%%%%%@",
"@%%%%%%%%%%%%%%%%%%%%%%%%%%%%%%@@%%%%%%%%%%%%%%%%%%%%%%%%%%%%%%@",
"%%%%%%%%%%%%%%%%%%%%%%%%%%%%%%%%%%%%%%%%%%%%%%%%%%%%%%%%%%%%%%%%",
"%%%%%%%%%%%%%%%%%%%%%%%%%%%%%%%%%%%%%%%%%%%%%%%%%%%%%%%%%%%%%%%%",
"%%%%%%%%%%%%%%%%%%%%%%%%%%%%%%%%%%%%%%%%%%%%%%%%%%%%%%%%%%%%%%%%",
"%%%%%%%%%%%%%%%%%%%%%%%%%%%%%%%%%%%%%%%%%%%%%%%%%%%%%%%%%%%%%%%%",
"%%%%%%%%%%%%%%%%%%%%%%%%%%%%%%%%%%%%%%%%%%%%%%%%%%%%%%%%%%%%%%%%",
"%%%%%%%%%%%%%%%%%%%%%%%%%%%%%%%%%%%%%%%%%%%%%%%%%%%%%%%%%%%%%%%%",
"%%%%%%%%%%%%%%%%%%%%%%%%%%            %%%%%%%%%%%%%%%%%%%%%%%%%%",
"%%%%%%%%%%%%%%%%%%%%%%%%%%            %%%%%%%%%%%%%%%%%%%%%%%%%%",
"%%%%%%%%%%%%%%%%%%%%%%%%  XXXXXXXXXXXX  %%%%%%%%%%%%%%%%%%%%%%%%",
"%%%%%%%%%%%%%%%%%%%%%%%%  XXXXXXXXXXXX  %%%%%%%%%%%%%%%%%%%%%%%%",
"%%%%%%%%%%%%%%%%%%%%%%  XXXXXXXXXXXXXXOO  %%%%%%%%%%%%%%%%%%%%%%",
"%%%%%%%%%%%%%%%%%%%%%%  XXXXXXXXXXXXXXOO  %%%%%%%%%%%%%%%%%%%%%%",
"%%%%%%%%%%%%%%%%%%%%  XXXXXXXXXXOOOOXXXXOO  %%%%%%%%%%%%%%%%%%%%",
"%%%%%%%%%%%%%%%%%%%%  XXXXXXXXXXOOOOXXXXOO  %%%%%%%%%%%%%%%%%%%%",
"%%%%%%%%%%%%%%%%%%%%  XXXXXXXXXXOOOOOOOOXX  %%%%%%%%%%%%%%%%%%%%",
"%%%%%%%%%%%%%%%%%%%%  XXXXXXXXXXOOXXOOOOXX  %%%%%%%%%%%%%%%%%%%%",
"%%%%%%%%%%%%%%%%%%%%  XXXXXXXXXXOOXXOOXXXX  %%%%%%%%%%%%%%%%%%%%",
"%%%%%%%%%%%%%%%%%%    XXXXXXXXXXOOXXOOXXXX    %%%%%%%%%%%%%%%%%%",
"%%%%%%%%%%%%%%%%%%    XXXXXXXXXXXXXXXXXXXX    %%%%%%%%%%%%%%%%%%",
"%%%%%%%%%%%%%%%%  --  XXXXXXXXXXXXXXXXXXXX  ;;  %%%%%%%%%%%%%%%%",
"%%%%%%%%%%%%%%%%  --  XXXXXXXXXXXXXXXXXXXX  ;;  %%%%%%%%%%%%%%%%",
"%%%%%%%%%%%%%%%%  --&&  XXXXXXXXXXXXXXXX  &&;;  %%%%%%%%%%%%%%%%",
"@%%%%%%%%%%%%%%%  --&&  XXXXXXXXXXXXXXXX  &&;;  %%%%%%%%%%%%%%%@",
"@%%%%%%%%%%%%%%%  --  --&&XXXXXXXXXXXX&&--  --  %%%%%%%%%%%%%%%@",
"@%%%%%%%%%%%%%%%  --  --&&XXXXXXXXXXXX&&--  --  %%%%%%%%%%%%%%%@",
"@%%%%%%%%%%%%%%%%%    ----,,,,,,,,,,,,----    %%%%%%%%%%%%%%%%%@",
"@@@@@%%$$$$$%$$$$$    ----,,,,,,,,,,,,----    $$$$$%$$$$$%%@@@@@",
"@@@@@%%$$$$$%$$$$$%%    --,,,,,,,,,,,,--    %%$$$$$%$$$$$%%@@@@@",
"@%%%%%%%%%%%%%%%%%%%    --,,,,,,,,,,,,--    %%%%%%%%%%%%%%%%%%%@",
"@%%%%%%%%%%%%%%%%%  ##22                22##  %%%%%%%%%%%%%%%%%@",
"@%%%%%%%%%%%%%%%%%  ##22                22##  %%%%%%%%%%%%%%%%%@",
"@%%%%%%%%%%%%%%%  ::::##2222222222222222++::::  %%%%%%%%%%%%%%%@",
"%%%%%%%%%%%%%%%%  ::::##2222222222222222++::::  %%%%%%%%%%%%%%%%",
"%%%%%%%%%%%%%%  ::::::##+++++++:::::::::++::::::  %%%%%%%%%%%%%%",
"%%%%%%%%%%%%%%  ::::::##+++++++:::::::::++::::::  %%%%%%%%%%%%%%",
"%%%%%%%%%%%%  ##::##++####::::::::::::::::++##::##  %%%%%%%%%%%%",
"%%%%%%%%%%%%  ##::##++####::::::::::::::##++##::##  %%%%%%%%%%%%",
"%%%%%%%%%%%%  --::::++##::::::::::::::::##++::::,,  %%%%%%%%%%%%",
"%%%%%%%%%%%%  --::::++##::::::::::::::::##++::::,,  %%%%%%%%%%%%",
"%%%%%%%%%%%%  --,,  ++::::::::::::::::::##++  --,,  %%%%%%%%%%%%",
"%%%%%%%%%%%%  --,,  ++::::::::::::::::::##++  --,,  %%%%%%%%%%%%",
"%%%%%%%%%%%%  --,,  ++::::::::::::::::::##++  --,,  %%%%%%%%%%%%",
"%%%%%%%%%%%%%%  --  ++::::::::::::::::::##++  --  %%%%%%%%%%%%%%",
"%%%%%%%%%%%%%%  --  ++::::::::::::::::::##++  --  %%%%%%%%%%%%%%",
"%%%%%%%%%%%%%%%%    ++++::::##::::::::##++++    %%%%%%%%%%%%%%%%",
"%%%%%%%%%%%%%%%%    ++++::::##::::::::##++++    %%%%%%%%%%%%%%%%",
"%%%%%%%%%%%%%%%%       +++++++++++++++++++      %%%%%%%%%%%%%%%%",
"%%%%%%%%%%%%%%%%       +++++++++++++++++++    ..%%%%%%%%%%%%%%%%",
"%%%%%%%%%%%%%%%%%%  1==                   11==11  %%%%%%%%%%%%%%",
"%%%%%%%%%%%%%%%%  111==                   11==11  %%%%%%%%%%%%%%",
"%%%%%%%%%%%%%%%%  >>>>1111111111>>1111==1111====  %%%%%%%%%%%%%%",
"%%%%%%%%%%%%%%%%  >>>>1111111111>>1111==11<<****  %%%%%%%%%%%%%%",
"%%%%%%%%%%%%%%%%    >>>>  ==>>>>  ====11        %%%%%%%%%%%%%%%%",
"%%%%%%%%%%%%%%%%%%  >>>>  ==>>>>  ====11        %%%%%%%%%%%%%%%%",
"@%%%%%%%%%%%%%%%%%  oo          @%       ooo  %%%%%%%%%%%%%%%%%@",
"@%%%%%%%%%%%%%%%%%  oo          @%       ooo  %%%%%%%%%%%%%%%%%@",
"@%%%%%%%%%%%%%%%%%        %%%%%@@%%%%%        %%%%%%%%%%%%%%%%%@",
"@%%%%%%%%%%%%%%%%%        %%%%%@@%%%%%        %%%%%%%%%%%%%%%%%@",
"@@@@@%%$$$$$%$$$$$%%$$$$$%%@@@@@@@@@@%%$$$$$%$$$$$%%$$$$$%%@@@@@"
};
