/* XPM */
static char *result[] = {
/* columns rows colors chars-per-pixel */
"64 64 188 2 ",
"   c #000000",
".  c #090506",
"X  c #080805",
"o  c #060A0F",
"O  c #0F0A0A",
"+  c #120B07",
"@  c #150B0D",
"#  c #190F0C",
"$  c #17100F",
"%  c #1A110C",
"&  c #050E12",
"*  c #1A0E12",
"=  c #04131A",
"-  c #0C141E",
";  c #1E1414",
":  c #1E1B1D",
">  c #200F13",
",  c #281917",
"<  c #341F16",
"1  c #2E2116",
"2  c #372614",
"3  c #051720",
"4  c #081822",
"5  c #0C1924",
"6  c #121E2E",
"7  c #331D27",
"8  c #07202C",
"9  c #08202D",
"0  c #17222D",
"q  c #0A2331",
"w  c #0A2837",
"e  c #0A2B3C",
"r  c #132335",
"t  c #1A2638",
"y  c #18283D",
"u  c #18303C",
"i  c #372D2A",
"p  c #372E2A",
"a  c #3D2A28",
"s  c #282739",
"d  c #49281C",
"f  c #532D1E",
"g  c #401D26",
"h  c #4C2E23",
"j  c #462B28",
"k  c #432E2B",
"l  c #4C332E",
"z  c #5D3121",
"x  c #56372A",
"c  c #4C2631",
"v  c #4E2A36",
"b  c #552733",
"n  c #552D3A",
"m  c #4E3631",
"M  c #513631",
"N  c #573C33",
"B  c #5B3D37",
"V  c #653E2F",
"C  c #6B3B29",
"Z  c #5B4334",
"A  c #74412F",
"S  c #68493A",
"D  c #744636",
"F  c #7F4E3A",
"G  c #0B2E40",
"H  c #162D40",
"J  c #1A2C44",
"K  c #0C3043",
"L  c #0E364B",
"P  c #0F384E",
"I  c #1E324C",
"U  c #0F3C52",
"Y  c #1F3553",
"T  c #103D55",
"R  c #242F47",
"E  c #253955",
"W  c #223958",
"Q  c #5D3645",
"!  c #693242",
"~  c #6E3D4E",
"^  c #753647",
"/  c #184054",
"(  c #114059",
")  c #32434E",
"_  c #294A5A",
"`  c #164964",
"'  c #1D4D66",
"]  c #1D516C",
"[  c #1E5673",
"{  c #1F5876",
"}  c #284163",
"|  c #2B466B",
" . c #2A486E",
".. c #2E576C",
"X. c #2E4B72",
"o. c #225A78",
"O. c #31507A",
"+. c #3C6375",
"@. c #494241",
"#. c #5F554D",
"$. c #404F5A",
"%. c #5C5C5A",
"&. c #78475B",
"*. c #6C5454",
"=. c #4B6673",
"-. c #666C6C",
";. c #82452D",
":. c #954F34",
">. c #905139",
",. c #A15C3F",
"<. c #835342",
"1. c #955D47",
"2. c #94455A",
"3. c #8F634C",
"4. c #997157",
"5. c #997158",
"6. c #A46348",
"7. c #B76B4E",
"8. c #AB6A53",
"9. c #B26C52",
"0. c #AB7957",
"q. c #AC7A5E",
"w. c #BC7254",
"e. c #BE7458",
"r. c #925168",
"t. c #AA4F67",
"y. c #AF536C",
"u. c #B1546E",
"i. c #A85B75",
"p. c #B85C76",
"a. c #BC5E7A",
"s. c #8B7975",
"d. c #B77C64",
"f. c #BD607B",
"g. c #C47759",
"h. c #CB7C5E",
"j. c #C0627E",
"k. c #9D8370",
"l. c #B08A74",
"z. c #CD8365",
"x. c #C78A69",
"c. c #D08364",
"v. c #D48C6A",
"b. c #DA916F",
"n. c #D08B70",
"m. c #D89875",
"M. c #E29D78",
"N. c #E5A174",
"B. c #E5A17C",
"V. c #266485",
"C. c #366782",
"Z. c #597987",
"A. c #627882",
"S. c #C56683",
"D. c #C96A88",
"F. c #D16F8F",
"G. c #CF7697",
"H. c #D57594",
"J. c #DB779A",
"K. c #DC7B9C",
"L. c #D97EA1",
"P. c #E37FA3",
"I. c #678592",
"U. c #75909B",
"Y. c #938A88",
"T. c #9A9A96",
"R. c #A7988B",
"E. c #849BA5",
"W. c #A1B2B8",
"Q. c #B9B9B5",
"!. c #CFA28F",
"~. c #E8A983",
"^. c #EEAD86",
"/. c #F4B68D",
"(. c #E682A5",
"). c #EA85AA",
"_. c #EF89AF",
"`. c #F78FB7",
"'. c #F890B8",
"]. c #D3BAB7",
"[. c #E1B9A7",
"{. c #E6C9BA",
"}. c #E3B9C4",
"|. c #CEC3C1",
" X c #D8D8D3",
".X c #E3CDCE",
"XX c #E7E7E2",
"oX c #F7F7F1",
/* pixels */
"W W W W W O.O. . . . . .O. . . .X. .O.O. . . . . .O.O.W Y W W W Y W Y W W O.O.X.X. . . .O. . . . . .O.O. . . . . .O.O.W W W W W ",
"W O.O.O.O.O.O.O.O.O.O.O.O.O.O.O.O.O.O.O.O.O.O.O.O.O.O.O.O.O.O.W W O.O.O.O.O.O.O.O.O.O.O.O.O.O.O.O.O.O.O.O.O.O.O.O.O.O.O.O.O.O.W ",
"W O.O.O.O.O.O.O.O.O.O.O.O.O.O.O.O.O.O.O.O.O.O.O.O.O.O.O.O.O.O.W W O.O.O.O.O.O.O.O.O.O.O.O.O.O.O.O.O.O.O.O.O.O.O.O.O.O.O.O.O.O.W ",
"Y O.O.O.O.O.O.O.O.O.O.O.O.O.O.O.O.O.O.O.O.O.O.O.O.O.O.O.O.O.O.W W O.O.O.O.O.O.O.O.O.O.O.O.O.O.O.O.O.O.O.O.O.O.O.O.O.O.O.O.O.O.W ",
"W O.O.O.O.O.O.O.O.O.O.O.O.O.O.O.O.O.O.O.O.O.O.O.O.O.O.O.O.O.O.W Y O.O.O.O.O.O.O.O.O.O.O.O.O.O.O.O.O.O.O.O.O.O.O.O.O.O.O.O.O.O.W ",
"O.O.O.O.O.O.O.O.O.O.O.O.O.O.O.O.O.O.O.O.O.O.O.O.O.O.O.O.O.O.O.O.O.O.O.O.O.O.O.O.O.O.O.O.O.O.O.O.O.O.O.O.O.O.O.O.O.O.O.O.O.O.O.O.",
"O.O.O.O.O.O.O.O.O.O.O.O.O.O.O.O.O.O.O.O.O.O.O.O.O.O.O.O.O.O.O.O.O.O.O.O.O.O.O.O.O.O.O.O.O.O.O.O.O.O.O.O.O.O.O.O.O.O.O.O.O.O.O.O.",
"O.O.O.O.O.O.O.O.O.O.O.O.O.O.O.O.O.O.O.O.O.O.O.O.O.O.O.O.O.O.O.O.O.O.O.O.O.O.O.O.O.O.O.O.O.O.O.O.O.O.O.O.O.O.O.O.O.O.O.O.O.O.O.O.",
"O.O.O.O.O.O.O.O.O.O.O.O.O.O.O.O.O.O.O.O.O.O.O.O.O.O.O.O.O.O.O.O.O.O.O.O.O.O.O.O.O.O.O.O.O.O.O.O.O.O.O.O.O.O.O.O.O.O.O.O.O.O.O.O.",
"O.O.O.O.O.O.O.O.O.O.O.O.O.O.O.O.O.O.O.O.O.O.O.O.O.O.O.O.O.O.O.O.O.O.O.O.O.O.O.O.O.O.O.O.O.O.O.O.O.O.O.O.O.O.O.O.O.O.O.O.O.O.O.O.",
"O.O.O.O.O.O.O.O.O.O.O.O.O.O.O.O.O.O.O.O.O.O.O.O.O.O.O.O.O.O.O.O.O.O.O.O.O.O.O.O.O.O.O.O.O.O.O.O.O.O.O.O.O.O.O.O.O.O.O.O.O.O.O.O.",
"O.O.O.O.O.O.O.O.O.O.O.O.O.O.O.O.O.O.O.O.O.O.O.O.O.O.I                        .O.O.O.O.O.O.O.O.O.O.O.O.O.O.O.O.O.O.O.O.O.O.O.O.O.",
"O.O.O.O.O.O.O.O.O.O.O.O.O.O.O.O.O.O.O.O.O.O.O.O.O.W t @ O O O O O O O O O O E W O.O.O.O.O.O.O.O.O.O.O.O.O.O.O.O.O.O.O.O.O.O.O.O.",
"O.O.O.O.O.O.O.O.O.O.O.O.O.O.O.O.O.O.O.O.O.O.O.O. .  $ a a a a a a a a a a a X o O.O.O.O.O.O.O.O.O.O.O.O.O.O.O.O.O.O.O.O.O.O.O.O.",
"O.O.O.O.O.O.O.O.O.O.O.O.O.O.O.O.O.O.O.O.O.O.W y y ; , a a a a a a a a a a a 7 : y y  .O.O.O.O.O.O.O.O.O.O.O.O.O.O.O.O.O.O.O.O.O.",
"O.O.O.O.O.O.O.O.O.O.O.O.O.O.O.O.O.O.O.O.O.O.y   X a a a a a a a a a a a a a Z m     E O.O.O.O.O.O.O.O.O.O.O.O.O.O.O.O.O.O.O.O.O.",
"O.O.O.O.O.O.O.O.O.O.O.O.O.O.O.O.O.O.O.O. .I 0 # * a a a a a a a a m k m a a m m , > y I O.O.O.O.O.O.O.O.O.O.O.O.O.O.O.O.O.O.O.O.",
"O.O.O.O.O.O.O.O.O.O.O.O.O.O.O.O.O.O.O.O.I   ; a a a a a a a a a k B B B l a a a N B $   O.O.O.O.O.O.O.O.O.O.O.O.O.O.O.O.O.O.O.O.",
"O.O.O.O.O.O.O.O.O.O.O.O.O.O.O.O.O.O.O.O.I   ; a a a a a a a a a k B B B m k l k m m @   O.O.O.O.O.O.O.O.O.O.O.O.O.O.O.O.O.O.O.O.",
"O.O.O.O.O.O.O.O.O.O.O.O.O.O.O.O.O.O.O.O.I   ; a a a a a a a a a k B B B B B B B k a +   O.O.O.O.O.O.O.O.O.O.O.O.O.O.O.O.O.O.O.O.",
"O.O.O.O.O.O.O.O.O.O.O.O.O.O.O.O.O.O.O.O.I   ; a k V x k a a a a k B M k M B D D k a +   O.O.O.O.O.O.O.O.O.O.O.O.O.O.O.O.O.O.O.O.",
"O.O.O.O.O.O.O.O.O.O.O.O.O.O.O.O.O.O.O.O.I   ; a j :.C j a a a a l B M a M B :.:.j a O   O.O.O.O.O.O.O.O.O.O.O.O.O.O.O.O.O.O.O.O.",
"O.O.O.O.O.O.O.O.O.O.O.O.O.O.O.O.O.O.X.- &   ; a m w.8.6.S a a a k k a a <.8.g.w.m a O   - r O.O.O.O.O.O.O.O.O.O.O.O.O.O.O.O.O.O.",
"O.O.O.O.O.O.O.O.O.O.O.O.O.O.O.O.O.O. .      ; a M h.h.h.F a a a a a a a 1.h.h.h.l a O     - O.O.O.O.O.O.O.O.O.O.O.O.O.O.O.O.O.O.",
"O.O.O.O.O.O.O.O.O.O.O.O.O.O.O.O.O.o % h.F   ; a m h.h.h.h.h.^./././././././.h.h.m a O   N.0.  6 O.O.O.O.O.O.O.O.O.O.O.O.O.O.O.O.",
"O.O.O.O.O.O.O.O.O.O.O.O.O.O.O.O.O.o # h.>.  ; a m h.h.h.h.h.^./././././././.c.h.m a O   N.0.  6 O.O.O.O.O.O.O.O.O.O.O.O.O.O.O.O.",
"O.O.O.O.O.O.O.O.O.O.O.O.O.O.O.O.O.o # h.6.z 2 $ ; h A 6.w.h.v.b.~./././.n.w.x h > % f z N.0.  6 O.O.O.O.O.O.O.O.O.O.O.O.O.O.O.O.",
"W O.O.O.O.O.O.O.O.O.O.O.O.O.O.O.O.o # h.7.:.d       < :.7.h.h.h.m./././.w.:.+ .     C :.N.0.  6 O.O.O.O.O.O.O.O.O.O.O.O.O.O.O.W ",
"W O.O.O.O.O.O.O.O.O.O.O.O.O.O.O.O.o # h.>.+ V 9.!. XY.@ C :.e.z.m./.m.,.d + Q. Xd.9.< + v.6.  6 O.O.O.O.O.O.O.O.O.O.O.O.O.O.O.W ",
"Y O.O.O.O.O.O.O.O.O.O.O.O.O.O.O.O.o % h.F   V h.[.oXT.  f ;.h.v.N./.x.;.,    XoXn.h.<   h.1.  6 O.O.O.O.O.O.O.O.O.O.O.O.O.O.O.W ",
"W O.O.O.O.O.O.O.O.O.O.O.O.O.O.O.O.W } < #   V h.[.oXT.      m./././.4.       XoXn.h.<   1 i W  .O.O.O.O.O.O.O.O.O.O.O.O.O.X.O.W ",
"W W W Y W O.O.X. . . . .O. . . . . .|       V h.!.{.l.j Z Z ~./././.l.Z x h [.{.z.h.<     -  . . . . .O. . . . . .O.O.W W W W W ",
"Y W W W W O.O. . . . . .O. . . . . .O.O.J       Z h.h.h.B./././././././.b.h.h.h.%       O.O. . . . . .O.X. . . . .O.O.W W W W Y ",
"W O.O.O.O.O.O.O.O.O.O.O.O.O.O.O.O.O.O.O.I       C h.h.h.B./././././././.b.h.h.h.%       O.O.O.O.O.O.O.O.O.O.O.O.O.O.O.O.O.O.O.W ",
"W O.O.O.O.O.O.O.O.O.O.O.O.O.O.O.O.O.X.0 w w =   V h.v.B.^./././././././.~.M.c.h.%   9 e 6 J O.O.O.O.O.O.O.O.O.O.O.O.O.O.O.O.O.W ",
"W O.O.O.O.O.O.O.O.O.O.O.O.O.O.O.O.O.|   4 ( 8   V h.b./././././././././././.c.h.%   K (   - O.O.O.O.O.O.O.O.O.O.O.O.O.O.O.O.O.W ",
"W O.O.O.O.O.O.O.O.O.O.O.O.O.O.O.O.- 4 o.[ ( ( P 0 % x c.~./.S ; ; ; ; $ 1.z.1 ; e P { o.o./ o t O.O.O.O.O.O.O.O.O.O.O.O.O.O.O.Y ",
"O.O.O.O.O.O.O.O.O.O.O.O.O.O.O.| | - 4 V.o.( ( ( u : x 9.n.~.S % % ; $ $ ;.9.p , L ( { V.o.] & q | X.O.O.O.O.O.O.O.O.O.O.O.O.O.O.",
"O.O.O.O.O.O.O.O.O.O.O.O.O.O.O.o   o.V.V.V.V.[ ( E.oXT.  z :.e.h.v./.B.z.h    XoX_ e T ( ( ` V./   0 O.O.O.O.O.O.O.O.O.O.O.O.O.O.",
"O.O.O.O.O.O.O.O.O.O.O.O.O.I I 4 4 o.V.o.[ ] ` ( E.oXQ.%.M z F >.>.4.3.>.*.%.XXoX_ L L T ( ` V. .q H I W O.O.O.O.O.O.O.O.O.O.O.O.",
"O.O.O.O.O.O.O.O.O.O.O.O.O.    P ( V.V.( P K P ( E.oXoXoX%.  .   X       T.oXoXoX..( G G ( ' V.V.V./   - O.O.O.O.O.O.O.O.O.O.O.O.",
"O.O.O.O.O.O.O.O.O.O.O.O.O.    ) ) C.V.' ( e L ( +.I.W.oXQ.T.s.! B ! Y.T. XoXU.I.' T G G ( ( ] =.R.%.  - O.O.O.O.O.O.O.O.O.O.O.O.",
"O.O.O.O.O.O.O.O.O.O.O.O.O.    9.z.C.V.V.] K P ( ( ( I.oXoXoX.Xt.t.t..XoXoXoX..T T ( G G ` ( T -./.5.  - O.O.O.O.O.O.O.O.O.O.O.O.",
"O.O.O.O.O.O.O.O.O.O.O.O.O.    9.h.A.Z.Z.=.e K T T T Z.Q.]. X].p.a.f.}..X|.Q._ ( ( T q q $.$.) s./.5.  5 O.O.O.O.O.O.O.O.O.O.O.O.",
"O.O.O.O.O.O.O.O.O.O.O.O.O.    9.z.^././.k.G G G L ( w   g t.H.K.).`.J.t.g   P ( ( (     h.h.h.b./.5.  - O.O.O.O.O.O.O.O.O.O.O.O.",
"O.O.O.O.O.O.O.O.O.O.O.O.O.    9.h.^.m.4.#.e G G P ( w   g t.H.K.).`.J.t.g   P ( ( (     F F e.b./.5.  - O.O.O.O.O.O.O.O.O.O.O.O.",
"O.O.O.O.O.O.O.O.O.O.O.O.O.    9.h.^.5.  = G G G L ( w   g t.H.K.).`.J.t.g   P ( ( T         9.b./.5.  - O.O.O.O.O.O.O.O.O.O.O.O.",
"O.O.O.O.O.O.O.O.O.O.O.O.O.I I j h x.x.4.#.G G G P ( w   g t.H.K.P.(.P.J.n   P ( T U     F F m.q.Z @.I E O.O.O.O.O.O.O.O.O.O.O.O.",
"O.O.O.O.O.O.O.O.O.O.O.O.O.O.O.o   9.b./.k.e G G L ( e   g t.J.K.K.K.(.'.Q   L ( K e     h.h./.5.  0 O.O.O.O.O.O.O.O.O.O.O.O.O.O.",
"O.O.O.O.O.O.O.O.O.O.O.O.O.O.O.W I j x Z p = 8 G K L 9   g t.p.j.a.a.S.S.c   e L - =     h h N p I E O.O.O.O.O.O.O.O.O.O.O.O.O.O.",
"O.O.O.O.O.O.O.O.O.O.O.O.O.O.O.O.O.O         4 K G G 4   g t.t.t.t.t.t.t.a   e G o   .         o O.O.O.O.O.O.O.O.O.O.O.O.O.O.O.O.",
"O.O.O.O.O.O.O.O.O.O.O.O.O.O.O.O.O.J 6   > b 7 3 3 3 =   g t.j.j.S.S.D.F.v   = = &.&.n b ~ &.. o O.O.O.O.O.O.O.O.O.O.O.O.O.O.O.O.",
"O.O.O.O.O.O.O.O.O.O.O.O.O.O.O.O.O.O.I   g t.b           7 t.H.K.J.J.(.'.Q       K.`.f.t.J.'.; o O.O.O.O.O.O.O.O.O.O.O.O.O.O.O.O.",
"O.O.O.O.O.O.O.O.O.O.O.O.O.O.O.O.O.J s b &.S.r.~ ~ ~ ! b ^ t.H.K.(.)._.'.i.~ &.~ ).`.J.F.F.J.r.&.J } O.O.O.O.O.O.O.O.O.O.O.O.O.O.",
"O.O.O.O.O.O.O.O.O.O.O.O.O.O.O.O.O.o g t.a.J.K.K.K.K.D.t.t.t.J.K.).'.'.'.(.J.G.(.'.'.`.`.D.a.'.L.  I O.O.O.O.O.O.O.O.O.O.O.O.O.O.",
"O.O.O.O.O.O.O.O.O.O.O.O.O.O.O.O.O.. j j.D.J.K.K.K.(.H.t.t.t.H.K.H.S.H.(.(.K.j.S.(.(._.`.S.y.D.i.  I O.O.O.O.O.O.O.O.O.O.O.O.O.O.",
"O.O.O.O.O.O.O.O.O.O.O.O.O.O.O.O.O.o n K.K.K.K.K.L.'.J.t.t.t.H.K.f.t.a.K.K.K.u.u.K.K.).`.S.t.t.2.  I O.O.O.O.O.O.O.O.O.O.O.O.O.O.",
"O.O.O.O.O.O.O.O.O.O.O.O.O.O.O.O.O.E t ; v u.u.u.! ; b t.t.t.u.u.7 # c u.u.u.P.G.; ; ; ; @ @ @ ; | X.O.O.O.O.O.O.O.O.O.O.O.O.O.O.",
"O.O.O.O.O.O.O.O.O.O.O.O.O.O.O.O.O.O.I   g t.t.y.b   g t.t.t.t.t.,   g t.t.y._.L.      X       o O.O.O.O.O.O.O.O.O.O.O.O.O.O.O.O.",
"Y O.O.O.O.O.O.O.O.O.O.O.O.O.O.O.O.O.I   % f 2 % .   . @ @ @ @ * R | R @ @ @ > >     1 2 $ - | | O.O.O.O.O.O.O.O.O.O.O.O.O.O.O.W ",
"W O.O.O.O.O.O.O.O.O.O.O.O.O.O.O.O.O.I   % 2 2                   J O.I               2 2 # - O.O.O.O.O.O.O.O.O.O.O.O.O.O.O.O.O.W ",
"W O.O.O.O.O.O.O.O.O.O.O.O.O.O.O.O.O.I   X + X       R W W W W J Y O.| W W W 6       X +   - O.O.O.O.O.O.O.O.O.O.O.O.O.O.O.O.O.W ",
"W O.O.O.O.O.O.O.O.O.O.O.O.O.O.O.O.O.I               W O.O.O.O.Y W O.O.O.O.O.6             - O.O.O.O.O.O.O.O.O.O.O.O.O.O.O.O.O.W ",
"W W Y W W O.O. . . . . .O. . . . . .O.O. . . .X.X.O.O.W W W W W W W W W W O.O.X. . . . .O. . . . . .O.O. . . . .X.O.O.W Y W W W "
};
