/* XPM */
static char *_1d0666f29114f7bbce03d970277a4c14kupXrnjnIgTHlu2[] = {
/* columns rows colors chars-per-pixel */
"64 64 245 2 ",
"   c #030102",
".  c #0B0304",
"X  c #04050C",
"o  c #09060B",
"O  c #0D0A0C",
"+  c #160509",
"@  c #040713",
"#  c #0A0B13",
"$  c #130C12",
"%  c #190B14",
"&  c #0C131D",
"*  c #171519",
"=  c #24060A",
"-  c #280A13",
";  c #380C16",
":  c #24131A",
">  c #351319",
",  c #0D1421",
"<  c #121522",
"1  c #161A27",
"2  c #1C1D24",
"3  c #131D2D",
"4  c #151E31",
"5  c #271A25",
"6  c #371B25",
"7  c #301430",
"8  c #1E2626",
"9  c #192539",
"0  c #262329",
"q  c #36272A",
"w  c #3B252B",
"e  c #262937",
"r  c #3A2B35",
"t  c #2B323D",
"y  c #3C343A",
"u  c #410B14",
"i  c #45121B",
"p  c #561418",
"a  c #631A16",
"s  c #461A27",
"d  c #501C2F",
"f  c #46222C",
"g  c #552128",
"h  c #472A35",
"j  c #572838",
"k  c #48363A",
"l  c #57343C",
"z  c #692B33",
"x  c #6F2931",
"c  c #693136",
"v  c #1B2A43",
"b  c #1E324D",
"n  c #1F3350",
"m  c #2A2E44",
"M  c #23324C",
"N  c #28334A",
"B  c #373646",
"V  c #213553",
"C  c #293B57",
"Z  c #213958",
"A  c #343D53",
"S  c #293F62",
"D  c #4C3744",
"F  c #563846",
"G  c #673A47",
"H  c #793B49",
"J  c #703957",
"K  c #5E3E63",
"L  c #3A4253",
"P  c #36445A",
"I  c #394159",
"U  c #294265",
"Y  c #2B466B",
"T  c #2A486E",
"R  c #384A66",
"E  c #3C516E",
"W  c #2F4B73",
"Q  c #374F72",
"!  c #3E5475",
"~  c #31507A",
"^  c #3E5479",
"/  c #5A4549",
"(  c #464759",
")  c #5C4957",
"_  c #49505E",
"`  c #6B444B",
"'  c #6E4D55",
"]  c #674958",
"[  c #754758",
"{  c #76535A",
"}  c #484D69",
"|  c #574A64",
" . c #544D6B",
".. c #45526C",
"X. c #4A526D",
"o. c #555168",
"O. c #474E74",
"+. c #564E73",
"@. c #425374",
"#. c #42567B",
"$. c #4A5779",
"%. c #56577A",
"&. c #674C65",
"*. c #7B4A67",
"=. c #68556A",
"-. c #785866",
";. c #675879",
":. c #765A76",
">. c #4C617F",
",. c #726876",
"<. c #77647A",
"1. c #902E38",
"2. c #8B343B",
"3. c #B22F32",
"4. c #A73539",
"5. c #B23639",
"6. c #853844",
"7. c #8E3648",
"8. c #973646",
"9. c #A93B43",
"0. c #B83D42",
"q. c #8E4E56",
"w. c #884A59",
"e. c #AE4B55",
"r. c #875769",
"t. c #965A69",
"y. c #895B78",
"u. c #985A7C",
"i. c #A75967",
"p. c #B55867",
"a. c #A45C79",
"s. c #88656A",
"d. c #9B636D",
"f. c #8B6579",
"g. c #976776",
"h. c #98757C",
"j. c #AD6269",
"k. c #A86779",
"l. c #B86979",
"z. c #A8767D",
"x. c #B6757D",
"c. c #BC737D",
"v. c #C2494D",
"b. c #C7555C",
"n. c #C95963",
"m. c #C66C77",
"M. c #D36C75",
"N. c #C77179",
"B. c #3E5781",
"V. c #445C83",
"C. c #4B5D83",
"Z. c #495885",
"A. c #585C85",
"S. c #665A89",
"D. c #745686",
"F. c #4C6085",
"G. c #4C638B",
"H. c #53648B",
"J. c #586689",
"K. c #516991",
"L. c #546B94",
"P. c #5B6C94",
"I. c #5A6D98",
"U. c #5A7296",
"Y. c #5B739B",
"T. c #666789",
"R. c #776788",
"E. c #756C8D",
"W. c #676C95",
"Q. c #677599",
"!. c #62759D",
"~. c #7A7699",
"^. c #747A9C",
"/. c #5D78A3",
"(. c #5F7BA5",
"). c #6877A4",
"_. c #637CA5",
"`. c #6B7AA3",
"'. c #627DAA",
"]. c #737BA3",
"[. c #7B78A3",
"{. c #895986",
"}. c #975C86",
"|. c #A05D86",
" X c #87698A",
".X c #996988",
"XX c #877387",
"oX c #9A758A",
"OX c #876A96",
"+X c #966893",
"@X c #877698",
"#X c #957995",
"$X c #A76987",
"%X c #B66C86",
"&X c #A87687",
"*X c #B87587",
"=X c #A76B94",
"-X c #B16E92",
";X c #A77795",
":X c #BC7A94",
">X c #8479A1",
",X c #9579A2",
"<X c #A37CA1",
"1X c #C47383",
"2X c #C67A8C",
"3X c #D57B8A",
"4X c #C87C95",
"5X c #D27D93",
"6X c #C27EA2",
"7X c #7881A9",
"8X c #90819C",
"9X c #B1888F",
"0X c #A98597",
"qX c #B88695",
"wX c #9787AB",
"eX c #A987A7",
"rX c #B989A6",
"tX c #B094B1",
"yX c #BBA2B2",
"uX c #C88599",
"iX c #D48D9A",
"pX c #E78E9A",
"aX c #C988A5",
"sX c #D78CA5",
"dX c #C897A9",
"fX c #D598A7",
"gX c #CD9CB4",
"hX c #D998B5",
"jX c #E497A6",
"kX c #E79DB5",
"lX c #CDA8B4",
"zX c #D9A6B8",
"xX c #E4A3BA",
"cX c #D19EC0",
"vX c #D6A6C5",
"bX c #D2B3C5",
"nX c #E4A4C2",
"mX c #E3B6C8",
"MX c #DACED8",
"NX c #EDD0DB",
"BX c #F2DAE6",
"VX c #F8E2EA",
"CX c #FBEAF4",
"ZX c #FDF3FB",
"AX c #FEFBFF",
/* pixels */
"Z Z Z Z Z ~ ~ T T T T T ~ T T T T T ~ ~ T T T T T ~ ~ Z Z Z Z Z Z Z Z Z V ~ ~ T T T T T ~ T T T T T ~ ~ T T T T T ~ ~ Z Z Z Z Z ",
"Z ~ ~ ~ ~ ~ ~ ~ ~ ~ ~ ~ ~ ~ ~ ~ ~ ~ ~ ~ ~ ~ ~ ~ ~ ~ ~ ~ ~ ~ ~ Z Z ~ ~ ~ ~ ~ ~ ~ ~ ~ ~ ~ ~ ~ ~ ~ ~ ~ ~ ~ ~ ~ ~ ~ ~ ~ ~ ~ ~ ~ ~ Z ",
"Z ~ ~ ~ ~ ~ ~ ~ ~ ~ ~ ~ ~ ~ ~ ~ ~ ~ ~ ~ ~ ~ ~ ~ ~ ~ ~ ~ ~ ~ ~ Z Z ~ ~ ~ ~ ~ ~ ~ ~ ~ ~ ~ ~ ~ ~ ~ ~ ~ ~ ~ ~ ~ ~ ~ ~ ~ ~ ~ ~ ~ ~ Z ",
"Z ~ ~ ~ ~ ~ ~ ~ ~ ~ ~ ~ ~ ~ ~ ~ ~ ~ ~ ~ ~ ~ ~ ~ ~ ~ ~ ~ ~ ~ ~ Z Z ~ ~ ~ ~ ~ ~ ~ ~ ~ ~ ~ ~ ~ ~ ~ ~ ~ Y U V V W ~ ~ ~ ~ ~ ~ ~ ~ Z ",
"Z ~ ~ ~ ~ ~ ~ ~ ~ ~ ~ ~ ~ ~ ~ ~ ~ ~ ~ ~ ~ ~ ~ ~ ~ ~ ~ ~ ~ ~ ~ Z Z ~ ~ ~ ~ ~ ~ ~ ~ ~ ~ ~ ~ ~ ~ ~ ~ W V * @ 3 W ~ ~ ~ ~ ~ ~ ~ ~ Z ",
"~ ~ ~ ~ ~ ~ ~ ~ ~ ~ ~ ~ ~ ~ ~ ~ ~ ~ ~ ~ ~ ~ ~ ~ ~ ~ ~ ~ ~ ~ ~ ~ ~ ~ ~ ~ ~ ~ ~ ~ ~ ~ ~ ~ ~ ~ ~ ~ T b # # , ~ ~ ~ ~ ~ ~ ~ ~ ~ ~ ~ ",
"~ ~ ~ ~ ~ ~ ~ ~ ~ W T ~ ~ ~ ~ ~ ~ ~ ~ ~ ~ ~ ~ ~ ~ ~ ~ ~ ~ ~ ~ ~ ~ ~ ~ ~ ~ ~ ~ ~ ~ ~ ~ ~ ~ ~ ~ T 9 @ # 4 ~ ~ ~ ~ ~ ~ ~ ~ ~ ~ ~ ~ ",
"~ ~ ~ ~ ~ ~ ~ ~ Y : % ~ ~ ~ ~ ~ ~ ~ ~ ~ ~ ~ ~ ~ ~ ~ ~ ~ ~ ~ ~ ~ ~ ~ ~ ~ ~ ~ ~ ~ ~ ~ ~ ~ ~ ~ N 8 * # # 8 ~ ~ ~ ~ ~ ~ ~ ~ ~ ~ ~ ~ ",
"~ ~ ~ ~ ~ ~ M   O F F o T ~ ~ ~ ~ ~ ~ ~ ~ ~ ~ ~ ~ ~ ~ ~ ~ ~ ~ ~ ~ ~ ~ ~ ~ ~ ~ ~ ~ ~ ~ ~ ~ ~ 3       . < ~ ~ ~ ~ ~ ~ ~ ~ ~ ~ ~ ~ ",
"~ ~ ~ ~ ~ ~ M   $ w.{   Y ~ ~ ~ ~ ~ ~ ~ ~ ~ ~ ~ ~ ~ ~ ~ ~ ~ ~ ~ ~ ~ ~ ~ ~ ~ ~ ~ ~ ~ ~ ~ ~ ~ 3   $ 5 7 % # ~ ~ ~ ~ ~ ~ ~ ~ ~ ~ ~ ",
"~ ~ ~ ~ b < : ; s d.h.: 9 e m t e m y m m N N N N C M M M M M M V n n n b n M N N 9 9 9 t t #   : f h : o 4 T ~ 4 & < M ~ ~ ~ ~ ",
"~ ~ ~ ~ 4 . - i p l.9X+ h ] ' H G ` J ] =.=.XX=.) } P P C P R R R R R R R R A A _ ,.,.E.,.) 8   > G G j + 2 m m 5 $ $ 4 ~ ~ ~ ~ ",
"~ ~ ~ ~ 4 . - u p x.9X  w.9Xc.j.p.i.k.$XrXbXMX#XR.,.J.$.! ! K.L.L.L.L.L.K.F.O.| h.MXMXMXbX0Xq   f q.r.G - : % 6 w 6 : 1 v b ~ ~ ",
"~ ~ ~ ~ 4 + i x x x.9X. d.pXpX3Xm.m.uXqXbXZXZXyXtX0X@XT.$.V.U.Y._._.'.!.Q.T.<.<.wXAXAXAXNXyXk   k l.%X7.j ; = 7 h 7 5 % X 1 ~ ~ ",
"~ ~ Z N 0 = a q.e.uXqX. d.jXpXM.1XiXfXlXNXZXZXMXMXlX8X,.$.^ G.G.Y._._.U.J.R.+XeXlXAXAXAXVXlXk O l *XuXk.q.F ; f q * o . . 9 ~ ~ ",
"~ ~ < + > a 6.x.x.iXdX+ d.pXpXpX5XfXzXMXAXAXZXCXCXbX0XE.$.^ B.V.I._._.W.%.R.rXvXMXZXZXAXVXbX' = G qXfXuX1Xq.g d 5 @ X # < M ~ ~ ",
"~ ~ < = g 6.e.c.9XoX0X% r.6XsX5XsXkXvXMXAXAXCXBXNXgX;XXXJ.J.A.A.Q.!._.!.%. XaXhXmXVXVXAXZXNXd.c ` r.$XqXuXd.` / : . & N ~ ~ ~ ~ ",
"~ ~ & - ` k.*XdX0X% 6 7 J |.4XsXkXkXzXmXCXCXCXxXzXuX;X@X[.~.@XXX~.^.`.P.$.:.rXkXxXzXlXAXAXAXzXc.[ > 6 z.9X9Xz./ *   9 ~ ~ ~ ~ ~ ",
"      . = q q h r 2 4 K ;XaXsX6X:X%X:X:XuXfXxXxXxXsX0X@X~. X$X%XoX8X].P.%.=.k.3XiXzXzXAXAXZXzX9X.X=.F F h q 0     b ~ ~ ~ ~ ~ ~ ",
"          . . . O 7 e =.eXvXhX:X%X%X%X2X*XiXxXkXxXuX&X@X~.oXc.N.z.#X~.P.%.:.a.1X4XkXzXCXVXVXfXuX.X:.K < o o O   V W ~ ~ ~ ~ ~ ~ ",
"  + q h *       X 0 t X.D.R.=XaXhXhXcXcXhXsX4X3XiX1X9X@X@XXXc.M.x.oX~.Q.E.XXl.1X5XkXxXmXxXfXuX*X.X;.o.L * * o Z W ~ ~ ~ ~ ~ ~ ~ ",
"  = h l :       X 0 e E $.+. XtXcXvXvXvXvXaX1Xm.M.N.*X#X@X#X&X*Xx.9XXX7X~.XXz.1X2XkXhXzXfX0X9X&Xf.%._ t 8 * o T ~ ~ ~ ~ ~ ~ ~ ~ ",
"  > ` { q .     X e e } E X.S.E.>X>XwXtXwXaXaXN.N.N.&X#X^.~.#X$Xx.x.oX7X~.XXz.*X:XuXuXuXrX8X@X#XQ.o._ B q * o T ~ ~ ~ ~ ~ ~ ~ ~ ",
"  s r.d.f .     X 8 m R ! @.O.#.Z./.'.7X[.rXgX2X*XuX0X8X].].~.@X&X&XoX7X^.~.$X-X&X&X;X;X0X~.7X].T.>.R y 8 8 9 T ~ ~ ~ ~ ~ ~ ~ ~ ",
"  6 H w.G k >   o e t R ..! ! ^ Z.I.'.'.].wXtX0X#XeXwX7X'.'.).~.8X#X8X].`.^.@XoX#X XR. XR.P.P.P.,.>.L e & 9 W C V T ~ ~ ~ ~ ~ ~ ",
"  + > i t.9X{ O   8 e R ! @.! ! Z.Y.'.'.`.7X7X>X[.].`.7X'.(.'.).7X^.].'._._.^.~.~.;.%.%.X.$.$.Z.>.$.P 1   ~ ~ 5 $ V ~ ~ ~ ~ ~ ~ ",
"& ,   - s.9X-.6 * 2 8 R @.! @.! V.K.)./.'.'.'.'.(.(.'.(.'.'.'.'.'.7X(.(.'._.`.`.W.O.O.O.@.@.#.O.! E L 1   U P q r L U T ~ ~ ~ ~ ",
"Z ~ & + 6 k ` { ` X X U ! @.#.@.#.V.G.L._._.'.'.7X'.'.7X'.'.'.(._._./.(._._._.Q.W.+.+.+.+.+.O.O.@...L 8   + + ` -.0 o 9 ~ ~ ~ Z ",
"Z ~ & o .   q { )   @ b R ! @.#.^ #.$.G.U.L.L.(.(.'.7X(.U.L.I.L.I.K.G.L.P.K.H.T.R.;X;X+X<XOXS.Z.$.X.L 2   l c s.h.q   3 ~ ~ ~ Z ",
"Z ~ ~ ~ 3           @   V ! @.@.X.} X.+.+.@.#.U.(.'.Q.W.C.^ X.X.} O.+.K  .| | &.}.nXnXnXnXvX<XE.%.X.L #   iXxXuX0Xr   3 ~ ~ ~ Z ",
"Z ~ ~ ~ 3   . . + = +   M E @.@.| *.r.-.:.D.S.Q.W.E.OX X:.-.:.r.t.w.7.H H 6.w.a.%XkXkXnXnXnX,XT.$...L 2   z.jX9Xh.0   3 ~ ~ ~ Z ",
"Z Z Z 9 O . = i p q.s.  b R ! ..=.g.%X:XdXtXtX,.=.y.$X.X.X$Xz.l.m.e.9.1.4.9.p.m.3XkXkXkXnXvX@XA.$...L 2   uXxXh.' *   & Z Z Z Z ",
"V Z v < + = u p a x.&X  M R @.@.;. X;X<XcXhXzXy.r.|.:X:X%X$X%X%Xm.n.v.0.0.3.v.n.M.pXpXkXxXlX~.%.....L $   uXzX' l *   & Z Z Z Z ",
"Z ~ 1 % ; u x 8.i.iXqX  M Q V.H.T.~.,X+X=X:XuX$X|.4XsXaX%X|.|.|.1Xm.n.b.0.3.3.0.e.N.uXjXxXdXE.%.E ..L *   d.qXh * .   3 ~ ~ ~ Z ",
"Z B., + ; d 6.l.x.fXlX  v E G.L.!.`.[.OX{.|.-X%X%XaXkXsX4X=X|.}.%Xm.M.n.0.3.3.0.e.M.N.kXzXqXE.$.@...L *   t.h.l $   X 9 ~ ~ ~ Z ",
"4 b 7 7 d j J w.q.s.,.X b Q V.K.P.Q.>XOX+X|.$X%X1X2X5X6XaX6X=X|.a.p.m.n.0.3.e.p.b.m.N.sXaX8XT.$.@...( 2 . q.-.) * * 9 C ~ ~ ~ Z ",
"X   r F F G G d i +   X M Q ^ B.C.W.].>X,X|.}.-X-X1X%X4XhXsX:X-X|.p.1Xn.5.9.p.1XN.m.c.*X0X~.J.#.@.X.D 7 + G F k O b ~ ~ ~ ~ ~ Z ",
"X X 5 h j F d d : .   # C Q B.V.K.P.W.W.@X+X}.|.%X%Xm.1XsXsX6X6X|.|.|.p.e.p.a.%Xc.x.x.&X#XE.$.#.@. .) F f D r * * Z ~ ~ ~ ~ ~ ~ ",
"X o X   .             L ! ^ G.Y.Y.G.Z.K.^.@X+X}.a.l.m.m.1X2XsXhX4X|.}.|.=X+X{.D.R.#X8XQ.Q.C.$.$. .&.:.0XlX-.O # Z ~ ~ ~ ~ ~ ~ ~ ",
"  .         .   .     C ! ^ V.Y.Y.Z.V.K.].[.+X.Xi.l.m.l.l.%X4X4XcX:X=X+X+X{.S.A.,.^.7X$.F.#.@.X.&.r.k.aXlX,.$ Y ~ ~ ~ ~ ~ ~ ~ ~ ",
"~ ~ ,         . .     R @.^ G.Y.Y.G.B.L.7X).@X$X%Xx.c.m.c.%X-X-XcXtX<XOXR.S.A.Z.A.U.U.! @.X. .&.q.x.iXfXzX,.O Y ~ ~ ~ ~ ~ ~ ~ ~ ",
"~ ~ < . .   o * $     R @.#.F.K.K.K.L.L.G.K.OX;X$X|.a.k.%X%Xu.{.eX<X,XW.A.$.C.P.H.F.>.E O.| r.i.e.v.e.N.9X,.O Y ~ ~ ~ ~ ~ ~ ~ ~ ",
"~ ~ ,       < S U     R #.! ^ #.B.L.7XU.B.H.@X#X+X.X}.}.-X=X{.{.,X>X].W.F.>.H.U.U.X.o.| ] [ j.n.b.0.5.j.x.{ O Y ~ ~ ~ ~ ~ ~ ~ ~ ",
"~ ~ Z V M V Z ~ T .   R @.@.^ ^ B.U.(./.G.H.T.@X>X+X}.}.=X+X{. X[.].'./.K.K.U.Q.J.X.&.r.t.e.p.b.e.5.4.b.z.k o Y ~ ~ ~ ~ ~ ~ ~ ~ ",
"~ ~ ~ ~ ~ ~ ~ ~ T     R ! ! ! >.B.K.(.7X/.K.C.Q.>X+X+X+X{.}.+X@X[.`.(.(./.Y.Q.Q.J.o.*.$X%Xm.e.e.5.5.9.j.9Xy O Y ~ ~ ~ ~ ~ ~ ~ ~ ",
"~ ~ ~ ~ ~ ~ Y v 9 8 3 E ! ! ! ~ B.G.(.L.(./.C.P.W.OXOXOXOXOX>X>X].'.(.(.`.~.~.OXR.;.y.=X$Xu.r.w.6.` { s.s./ O Y ~ ~ ~ ~ ~ ~ ~ ~ ",
"~ ~ ~ ~ ~ ~ V X # P Z ! ! >.! ! V.(./.7X_._.L.G.Z.W.[.>X~.OX[.`.'._._.(.^.@X#X+XOXD.D.OXR.;.| ) / _ / { =.y X T ~ ~ ~ ~ ~ ~ ~ ~ ",
"~ ~ ~ ~ ~ ~ V X # ..! ! ! ! ~ ~ B.K.7X7X(.'._.V.Z.I.).].].].`.`.'.'._.7X`.OX+X#X+XS.S.S.%.+.&.&.{ { ) =.) r o Z C U T ~ ~ ~ ~ ~ ",
"~ ~ ~ ~ ~ ~ n X @ ..@.@.@.@.@.! >.L.7X/.7XL._.V.V.I./._._.`.).`.'.'.'./.I.S.OX+XD.Z.Z.$.%.<.f.g.d.d.d.d.g.y o . o o v ~ ~ ~ ~ ~ ",
"~ ~ ~ ~ ~ ~ Z X # ..@.@.@.@...@.$.U./.7X(.(.'.Z.V.P.!.!.!._._.!././././.G.Z.S.W.P.#.V.! %.R.oX&Xx.x.x.*Xx./ O       9 ~ ~ ~ ~ ~ ",
"~ ~ ~ ~ ~ ~ Z X # X.@.@.E ! ! ! $.J.~.W.7XY.Q.%.+.A.A.J.J.A.A.H./.'.'./.).I.!.W.A.Z.E ! $.;.,.,.<.<.-.' l w.z.r./ r w A ~ ~ ~ ~ ",
"~ ~ ~ ~ ~ ~ n @ # ....@.......} o.,..X.X,.R.f.*.J w.[ J J &.=.$.W./.'.'.).).).~.R.&.o.....E ..o.o.) F s ; d.z.g.{ ` F r % 4 ~ ~ ",
"~ ~ ~ ~ v @ & 5 7 B m } X.X.( B G t.k.i.7.7.8.8.8.8.8.4.8.8.j.&XA.Z.!.'.'._.`.~.+Xk.f.5 m N P R t % q oXrXg.s i d d h h h 5 O @ ",
"~ ~ ~ ~ 9 X # 2 e m r K ] [ G j x i.l.p.7.6.6.6.6.6.7.1.4.4.p.x.&.A.).)._._.^. X.Xx.d.; q t P _ e . > z.dXf.s 6 s 7 d j D 7     ",
"~ ~ ~ ~ 9 @ X O % w d G 6.7.1.1.1.8.e.q.F F F F F F z 2.1.4.e.e.g.E.C.I.(.Y.T.;.d.c.j.w.-.y 0 2 w ` ' r.l w : % $ + - 6 f 5     ",
"~ ~ ~ ~ 4 @     o 6 d x 2.6.7.1.2.2.2.` L I A A A A D z 1.1.2.x h.XX$.A.Y.Q.%.] -.c.c.&Xh.k $   h s.g.` - $         . % q *     ",
"~ ~ ~ ~ n 9 &     : > x c c c c z c F ) ~ ~ ~ ~ ~ ~ R D c z c l ' =.} $.U.U.o./ F { q.' / q O   q ` / w = O   3 4 #   O * %     ",
"~ ~ ~ ~ ~ ~ b     . + h h y y h y y A ~ ~ ~ ~ ~ ~ ~ ~ P q w w q r A M E P.J...N e 0 0 + . .     O % .         Y ~ 3         X X ",
"~ ~ ~ ~ ~ ~ b     . , ~ ~ ~ ~ ~ ~ ~ ~ ~ ~ ~ ~ ~ ~ ~ ~ P t t t t m ~ C U >.>.! ~ ~ ~ ~ .                       Y ~ v 1 &   # e 4 ",
"Z ~ ~ ~ ~ ~ V # O < ~ ~ ~ ~ ~ ~ ~ ~ ~ ~ ~ ~ ~ ~ ~ ~ ~ ~ Q Q W Z Z ~ ~ ~ ~ ~ ~ ~ ~ ~ ~ X #                     Y ~ ~ ~ n   & ~ Z ",
"Z ~ ~ ~ ~ ~ ~ ~ ~ ~ ~ ~ ~ ~ ~ ~ ~ ~ ~ ~ ~ ~ ~ ~ ~ ~ ~ ~ ~ ~ ~ Z Z ~ ~ ~ ~ ~ ~ ~ ~ ~ ~ ~ ~ &                   Y ~ ~ ~ b   , ~ Z ",
"Z ~ ~ ~ ~ ~ ~ ~ ~ ~ ~ ~ ~ ~ ~ ~ ~ ~ ~ ~ ~ ~ ~ ~ ~ ~ ~ ~ ~ ~ ~ Z Z ~ ~ ~ ~ ~ ~ ~ ~ ~ ~ ~ ~ ~ ~ ~ ~ ~ ~ ~ ~ ~ ~ ~ ~ ~ ~ ~ ~ ~ ~ Z ",
"Z ~ ~ ~ ~ ~ ~ ~ ~ ~ ~ ~ ~ ~ ~ ~ ~ ~ ~ ~ ~ ~ ~ ~ ~ ~ ~ ~ ~ ~ ~ Z Z W ~ ~ ~ ~ ~ ~ ~ ~ ~ ~ ~ ~ ~ ~ ~ ~ ~ ~ ~ ~ ~ ~ ~ ~ ~ ~ ~ ~ ~ Z ",
"Z Z Z Z Z ~ ~ T T T T T ~ T T Y T T ~ ~ T T T T T ~ ~ Z Z Z Z Z Z Z Z Z Z ~ ~ T T T T T ~ T T T T T ~ ~ T T T T T ~ ~ Z Z Z Z Z "
};
