/* XPM */
static char *_7337826bfa84b92b515c120bbc484c2MtmzgdrRYTSc7W6l[] = {
/* columns rows colors chars-per-pixel */
"64 64 152 2 ",
"   c #010102",
".  c #090306",
"X  c #04040A",
"o  c #0B050C",
"O  c #05090E",
"+  c #0A090F",
"@  c #11070C",
"#  c #12080B",
"$  c #050711",
"%  c #0B0712",
"&  c #060A13",
"*  c #0B0B14",
"=  c #070D1B",
"-  c #0C0D1A",
";  c #100614",
":  c #130B15",
">  c #130E1A",
",  c #1C0E1A",
"<  c #0C121D",
"1  c #11101D",
"2  c #1B101D",
"3  c #210F18",
"4  c #22121D",
"5  c #060F22",
"6  c #090F23",
"7  c #150F21",
"8  c #061124",
"9  c #0C1423",
"0  c #0F1927",
"q  c #071128",
"w  c #0B152B",
"e  c #0E192C",
"r  c #131423",
"t  c #1B1222",
"y  c #121926",
"u  c #14162C",
"i  c #1A162A",
"p  c #131B2D",
"a  c #1B1A2C",
"s  c #0A1732",
"d  c #0D1935",
"f  c #0D1B3A",
"g  c #121732",
"h  c #121C34",
"j  c #1B1C33",
"k  c #121C3B",
"l  c #1C1D3C",
"z  c #231524",
"x  c #231827",
"c  c #21172E",
"v  c #241A2C",
"b  c #281C2E",
"n  c #221D32",
"m  c #281F32",
"M  c #211E3B",
"N  c #152235",
"B  c #1D2135",
"V  c #16233B",
"C  c #1D233C",
"Z  c #19283E",
"A  c #252237",
"S  c #24233C",
"D  c #29243B",
"F  c #21283E",
"G  c #0E1E42",
"H  c #131E42",
"J  c #1C1E43",
"K  c #151E48",
"L  c #201F42",
"P  c #0F2145",
"I  c #0F2248",
"U  c #122245",
"Y  c #1C2344",
"T  c #1B2A43",
"R  c #14254C",
"E  c #1A254A",
"W  c #14284F",
"Q  c #1D2B4B",
"!  c #1F324D",
"~  c #1F324E",
"^  c #132750",
"/  c #132851",
"(  c #1D2B53",
")  c #1F2F59",
"_  c #1F3551",
"`  c #232740",
"'  c #232443",
"]  c #252540",
"[  c #242742",
"{  c #292643",
"}  c #222A41",
"|  c #242A45",
" . c #272946",
".. c #272C46",
"X. c #282845",
"o. c #232649",
"O. c #242E49",
"+. c #222A4D",
"@. c #252A4C",
"#. c #282B4A",
"$. c #2A2F4B",
"%. c #2D2D48",
"&. c #292C4D",
"*. c #2B2F4D",
"=. c #20324D",
"-. c #27304E",
";. c #28304E",
":. c #242C52",
">. c #292E53",
",. c #233355",
"<. c #243155",
"1. c #223755",
"2. c #243454",
"3. c #273556",
"4. c #283052",
"5. c #2B3256",
"6. c #283557",
"7. c #233856",
"8. c #25365A",
"9. c #27325C",
"0. c #2B335A",
"q. c #29365C",
"w. c #213958",
"e. c #223A59",
"r. c #26385E",
"t. c #29395E",
"y. c #283B5F",
"u. c #283460",
"i. c #2B3C62",
"p. c #2A3E66",
"a. c #294266",
"s. c #2A4169",
"d. c #294368",
"f. c #2C426B",
"g. c #2B466B",
"h. c #2B476C",
"j. c #2E446C",
"k. c #2C466C",
"l. c #2C476C",
"z. c #2A486E",
"x. c #30466D",
"c. c #2F4670",
"v. c #2E4B73",
"b. c #2F4C73",
"n. c #304772",
"m. c #304B76",
"M. c #304B79",
"N. c #314C79",
"B. c #314E79",
"V. c #314E7A",
"C. c #314F7A",
"Z. c #31507A",
/* pixels */
"w.w.w.w.w.Z.Z.z.z.z.z.z.Z.z.z.z.l.z.Z.Z.z.z.z.z.z.Z.Z.1.w.w.w.w.w.w.w.w.w.Z.Z.z.z.z.z.z.Z.z.z.z.z.z.Z.Z.z.z.z.z.z.Z.Z._ _ a._ _ ",
"w.Z.Z.Z.Z.Z.Z.Z.Z.Z.Z.Z.Z.Z.Z.Z.Z.Z.Z.Z.Z.Z.Z.Z.Z.Z.Z.Z.Z.Z.Z.w.w.Z.Z.Z.Z.Z.Z.Z.Z.Z.Z.Z.Z.Z.Z.Z.Z.Z.Z.Z.Z.Z.Z.Z.Z.Z.Z.Z.Z.Z.Z.w.",
"w.Z.Z.Z.Z.Z.Z.Z.Z.Z.Z.Z.Z.Z.Z.Z.Z.Z.Z.Z.Z.Z.Z.Z.Z.Z.Z.Z.Z.Z.Z.w.w.Z.Z.Z.Z.Z.Z.Z.Z.Z.Z.Z.Z.Z.Z.Z.Z.Z.Z.Z.Z.Z.Z.Z.Z.Z.Z.Z.Z.Z.Z.w.",
"w.Z.Z.Z.Z.Z.Z.Z.Z.Z.Z.Z.Z.Z.Z.Z.Z.Z.Z.Z.Z.Z.Z.Z.Z.Z.Z.Z.Z.Z.Z.w.w.Z.Z.Z.Z.Z.Z.Z.Z.Z.Z.Z.Z.Z.Z.Z.Z.Z.z._ ! _ v.Z.Z.Z.Z.Z.Z.Z.Z.w.",
"w.Z.Z.Z.Z.Z.Z.Z.Z.Z.Z.Z.Z.Z.Z.Z.Z.Z.Z.Z.Z.Z.Z.Z.Z.Z.Z.Z.Z.Z.Z.w.w.Z.Z.Z.Z.Z.Z.Z.Z.Z.Z.Z.Z.Z.Z.Z.Z.v.T O X 9 b.Z.Z.Z.Z.Z.Z.Z.Z.w.",
"Z.Z.Z.Z.Z.Z.Z.Z.Z.Z.Z.Z.Z.Z.Z.Z.Z.Z.Z.Z.Z.Z.Z.Z.Z.Z.Z.Z.Z.Z.Z.Z.Z.Z.Z.Z.Z.Z.Z.Z.Z.Z.Z.Z.Z.Z.Z.Z.v.Q X X & Z.Z.Z.Z.Z.Z.Z.Z.Z.Z.Z.",
"Z.Z.Z.Z.Z.Z.Z.Z.Z.k.k.Z.Z.Z.Z.Z.Z.Z.Z.Z.Z.Z.Z.Z.Z.Z.Z.Z.Z.Z.Z.Z.Z.Z.Z.Z.Z.Z.Z.Z.Z.Z.Z.Z.Z.Z.v.z.V X X < Z.Z.Z.Z.Z.Z.Z.Z.Z.Z.Z.Z.",
"Z.Z.Z.Z.Z.Z.Z.Z.h.+ X Z.Z.Z.Z.Z.Z.Z.Z.Z.Z.Z.Z.Z.Z.Z.Z.Z.Z.Z.Z.Z.Z.Z.Z.Z.Z.Z.Z.Z.Z.Z.Z.Z.Z.Z.Z & O   X = Z.Z.Z.Z.Z.Z.Z.Z.Z.Z.Z.Z.",
"Z.Z.Z.Z.Z.Z.=.  X r 9   k.Z.Z.Z.C.Z.Z.Z.Z.Z.Z.Z.Z.Z.Z.Z.Z.Z.Z.Z.Z.Z.Z.Z.Z.Z.Z.Z.Z.Z.Z.Z.Z.Z.p         - Z.Z.Z.Z.Z.Z.Z.Z.Z.Z.Z.Z.",
"Z.Z.Z.Z.Z.C.=.  . u a   g.Z.Z.Z.C.C.Z.Z.Z.Z.C.C.Z.Z.Z.Z.Z.Z.Z.Z.Z.Z.Z.Z.Z.Z.Z.Z.Z.Z.Z.Z.Z.C.p   X * $ X & Z.Z.Z.Z.Z.Z.Z.Z.Z.Z.Z.",
"Z.Z.Z.Z.T 9 * + o A C X 0 p p p p p h p d h h h N f d N h N h h N f h N f f N h s w e p e p X   X * - o   y g.C.V < 9 Z Z.Z.Z.Z.",
"Z.Z.Z.Z.p . . @ o S F X - u y r r r r u g N Z h e e s w q q s s s s s s s w w 9 y N Z Z Z y O   o r r - X X h V < X X N Z.Z.Z.Z.",
"Z.Z.Z.Z.p   . o # S F   a F S A n n l S +.r.p.Y U V V f s f P P P P I P U P d s Y a.a.a.y.T *   * a a 7 X X X % * * O < T ~ Z.Z.",
"Z.Z.Z.Z.p . + > : S }   B ;.%.D D S } ;.q.N.C.<.=.Q Y U f G P R U W / I U U k l Q Z.C.C.k.&.<   > S S u > + . * - * X X & y Z.Z.",
"Z.Z.1.! 1 . : a v ..O.  A *.%.D D X.4.<.s.C.C.s.p.<.E Z f f G K I ^ ^ R U U [ +.8.Z.C.C.n.0.<   > F &.M i > o * - X X   & e Z.Z.",
"Z.Z.9   o + 2 A S ;.;.  l *.*.{ { 4.q.i.C.C.C.m.m.q.+.U f f f f R / ^ U f k :.9.i.b.C.C.k.i.r . r | >.{ S i : * & X   O N Z Z.Z.",
"Z.Z.< . * 2 a S [ Y | X l o.&.&.&.>.0.i.N.C.n.k.p.5.o.Y U H G H R R R R f J &.0.y.x.k.Z.m.f.l > r j C { ..j t r O X O T Z.Z.Z.Z.",
"Z.Z.9 . t B F ;.T X * % u l o.>.5.>.5.i.N.n.n.0.0.@.Y E E E Y Y U E / U f l @.>.5.6.q.Z.C.C.5.F u + * C } } Z y X   Z Z.Z.Z.Z.Z.",
"        o + * - - $ % g o.:.&.o.[ ' ' o.#.5.0.0.5.&.| E R Y Y S Y T R U k h M X.&.5.0.Z.C.m.q.[ M g 7 9 < * *     ! Z.Z.Z.Z.Z.Z.",
"                X & = h :.9.>.o.L { [ { ' &.>.0.0.#.T Y U Y S A [ T E U k h l S X.0.5.m.m.x.3.{ S k g $         1.z.Z.Z.Z.Z.Z.Z.",
"  X * - X         & = d k J Y :.9.>.>.9.>.@.X.X.{ S [ E E Y S S S Y E R T C C [ X.5.0.0.q.&.} [ Y k h < X O   i.v.Z.Z.Z.Z.Z.Z.Z.",
"  X > 1 O       X & = s k f J ) 9.u.u.u.0.>.[ M D D [ E E Y ' S S S T R U Y S S X.>.5.0.>.o.} [ Y h e 8 $ O   h.Z.Z.Z.Z.Z.Z.Z.Z.",
"  . t y +         = 5 s d d G H E ( :.<.( :.&.D D S } T E E Y ' [ } Y R E Y C S [ @.&.&.+.Q E E U h p 9 & &   h.Z.Z.Z.Z.Z.Z.Z.Z.",
"  * j B *       X & = s d d s f f K ^ R R :.>.{ F | +.E / R R Y Y [ T Q R Y Y ' ' o.Y [ Q Q R E U f w = & O Z h.Z.Z.Z.Z.Z.Z.Z.Z.",
"  . r a 1 < O     & 9 e f f s f G U ^ ^ R :.<.Q E :.( ^ / ^ ^ R Y E Q ^ R E E Y Y J J H Y U K U P f e & X N b.7.! g.Z.Z.Z.Z.Z.Z.",
"  . o % j O.p .   & = s s f f f G K ^ ^ ^ ^ ^ E E E / ^ / ^ ^ R Q E / / ^ R R E R k f k d f f f f d w &   Z.Z.< X ! Z.Z.Z.Z.Z.Z.",
"< < . X B F j + O & & s f f d f f I ^ ^ ^ ^ ^ ^ ^ ^ ^ / ^ / ^ ^ ^ ^ ^ I W W / R U f f d d f d d f d w O   w.7.- * T a.a.Z.Z.Z.Z.",
"w.Z.<   * 1 1 p 9 X X 8 s f f d f G G K ^ ^ ^ ^ / / / / ^ ^ ^ ^ ^ ^ ^ ^ R W R R K g g k h f f f f d w &   . . r p * X N Z.Z.Z._ ",
"w.Z.< X     + p y   X 5 s d f f d f f H U I R ^ / / ^ ^ I I U U U U K U U H G U L @.o.L +.J k k f s e O   1 1 j Z =   p Z.Z.Z._ ",
"w.Z.Z.Z.p           X   q s f d d s d h f f f U R ^ R H k f g d d d f g h d g g M 0.0.0.u.u.( R N s w X   -.5...F *   N Z.Z.Z.w.",
"w.Z.Z.Z.p       . . .   q d f d d g j h g k H U Y Y Y C k h j j j a t 7 7 7 a j J 5.0.0.9.0.Q H f f w O   S 4.O.Z *   p Z.Z.Z.w.",
"7.1.7.h O   . o o a p   5 s d d h l S { >.<.<.H g l J Y Y S J S M x z 3 3 z b M { 5.5.0.5.u.E N f d q $   ..5.C y o   e _ _ a._ ",
"_ 1.h X . . @ @ @ S C   8 s d d k J o.:.9.0.9.l j M o.L L L L M S m z 4 4 4 z m D ;.*.5.0.0.U k d d 9 X   ..5.u < X   9 _ w.w.w.",
"7.C.9 X X o : i a O.O.X 8 s G G U R Y Y J ' &.M M o.>.&.' L M M S m m b 4 3 3 4 x D D 5.5.>.Y k d d 9 $   A | - +     e Z.Z.Z.1.",
"w.Z.9 . o ; 7 M S -.3.X 5 s G I E E E K J L ' D L &.>.&.o.L J J M D M b 4 3 3 4 z A S 5.5.Q U d f d q O   j C 9 .   X N Z.Z.Z.7.",
"V _ 9 % ; > 7 a a B h X 5 f G G U R E K J L L ' ' X.&.&.&.&.o.L M M m b 4 4 z b b A A ;.*.Q U k d h q *   a a r X < p _ Z.Z.Z.w.",
"  X * 9 r 7 7 > o .   X 5 d G f G U ^ E K L L L L S L X.>.>.o.L M M L c z z n M D S S S T E H f f s w *   r 9 < X ~ Z.Z.Z.Z.Z.w.",
"    & - - > - % .     X q d G G G I K R E J J L L S S [ &.>.o.o.L M M n v c M J S F S Y E U f f d h u 9 % 1 * O & w.Z.Z.Z.Z.Z.Z.",
"  .               .   8 d f P I I G G H E E Y l l M D S D { >.>.o.L J J L L L l C Y Q U E f f f h g j [ 6.h . O i.Z.Z.Z.Z.Z.Z.Z.",
"                      8 f f G I U G G P ^ Q E l M m S m S L o.@.>.&.o.J J K H k U E W f G f f g g j l &.6.B X g.Z.Z.Z.Z.Z.Z.Z.Z.",
"C.C.<                 s d f G I I P G P R R Y [ L S S S S S J ' 0.:.( J K H f f H R U d f d g u a S ..;.5.N X h.Z.Z.Z.Z.Z.Z.Z.Z.",
"Z.C.9       X X X     e f f f I P I I P P U Y Y [ M l M [ L J l +.+.( K H f H G P f f d d e j j v x z A ..N   h.Z.Z.Z.Z.Z.Z.Z.Z.",
"Z.Z.<       < w.1.    e f d f G G I ^ R f U E Y Y L J L o.L J J E ( R R G G P R U f h h u i n A b 4 4 A F y   l.Z.Z.Z.Z.Z.Z.Z.Z.",
"Z.Z.w.! =.7.w.Z.h.    s f d f d f I ^ R K H H R Y J J J L L J J E R ^ U U P P U U d u j j v v v z 4 4 v F 1   g.Z.Z.Z.Z.Z.Z.Z.Z.",
"Z.Z.Z.Z.Z.Z.Z.Z.z.    s d f d f f I / I I I G R E Y K J J J E E / / ^ ^ R U U R V d u L M M v z 4 4 t A F <   h.Z.Z.Z.Z.Z.Z.Z.Z.",
"Z.Z.Z.Z.Z.Z.s.Z N & $ d f d f f P I / / ^ I G U K R E o.K J E E E ^ ^ ^ R E Y E H k l L L M j t 2 r y j Z <   h.Z.Z.Z.Z.Z.Z.Z.Z.",
"Z.Z.Z.Z.Z.Z.! X X q q d d f d f f I / R ^ / I G H U K ( E K E / / ^ ^ ^ R E Y Y J H H J J h g u r u y p p <   z.Z.Z.Z.Z.Z.Z.Z.Z.",
"Z.Z.Z.Z.Z.b.! X X s f f d f f f f I / R ^ / ^ f f K / E W / R R / ^ ^ ^ ^ E Y o.Y K H H k k g p p p p y p <   w.y.w.h.Z.Z.Z.Z.Z.",
"Z.Z.Z.Z.Z.Z.! X X w f d d d f d f I / / / R R G f I R / ^ R ^ ^ ^ ^ ^ ^ H K K E K G H f k k B l l j j A B <     X   Z Z.Z.Z.Z.Z.",
"Z.Z.Z.Z.Z.Z.! X X s d f d f d f f U W W / / R G G I R R R R R R I ^ ^ K G H K K H f f d d Y Y } S S S F F 1         Z Z.Z.Z.Z.Z.",
"Z.Z.Z.Z.Z.Z.! X X s d d d d d f f U U R R R R k f k k G k H H H ^ ^ ^ ^ I ^ R U G f f f f N V h l h j y > a C j y - - T Z.Z.Z.Z.",
"Z.Z.Z.Z.Z.C.! X X e f f d d d s e l Y Y V l l u u a u u u u h f I ^ ^ ^ R ^ ^ E K g s s d d d f y u r % o l C A y r > - O h Z.Z.",
"Z.Z.Z.Z.V & O $ % 6 5 s d s w < 1 j S n t a t 2 t t 2 t 4 t B F k f R ^ ^ ^ R U ' l B & 5 8 w e < X * F @.l % o % - - > < X * O ",
"Z.Z.Z.Z.h X X & = - 6 u p p r > > v A v 2 t 2 2 7 t 2 3 4 4 b S h k R ^ ^ R R Y C S l o & < w e =   * Y <.B * % % % % - > *     ",
"Z.Z.Z.Z.N     X X * - 7 t 7 , , 2 t x t 1 1 < 1 > 1 > > , , 4 a B V G K R R U k l S A r a < & $ * r y a 1 * X X O o X % * *     ",
"Z.Z.Z.Z.e X       % % , t , t , 2 2 2 y ! ! ! ! +.Q j > , 2 2 2 C Y f G U E h y a S S F Z < .   - j C r . X           . * X     ",
"Z.Z.Z.Z._ p <     X o > > > > , > > y O.Z.Z.Z.Z.Z.Z.w.N > > 1 1 p h e f W U f < 9 a y y y +     * r r * . X   0 p O     O X     ",
"Z.Z.Z.Z.Z.Z._     .   a a p p p p N F Z.Z.Z.Z.Z.Z.Z.Z.7.* * * & - g w f P U d N y y y .         X X           g.C.p             ",
"Z.Z.Z.Z.Z.Z.!       < Z.Z.Z.Z.Z.Z.Z.Z.Z.Z.Z.Z.Z.Z.Z.Z.w.p p N h p v.Q f W ! w.Z.Z.Z.Z.                        g.C.Z y =   O e 0 ",
"w.Z.Z.Z.Z.Z.7.O O < Z.Z.Z.Z.Z.Z.Z.Z.Z.Z.Z.Z.Z.Z.Z.Z.Z.Z.Z.Z.Z.w.w.Z.Z.Z.Z.Z.Z.Z.Z.Z.Z.O O                     g.Z.Z.Z.!   9 Z.7.",
"w.Z.Z.Z.Z.Z.Z.Z.Z.Z.Z.Z.Z.Z.Z.Z.Z.Z.Z.Z.Z.Z.Z.Z.Z.Z.Z.Z.Z.Z.Z.w.w.Z.Z.Z.Z.Z.Z.Z.Z.Z.Z.Z.Z.<                   g.Z.Z.Z.!   < Z.w.",
"w.Z.Z.Z.Z.Z.Z.Z.Z.Z.Z.Z.Z.Z.Z.Z.Z.Z.Z.Z.Z.Z.Z.Z.Z.Z.Z.Z.Z.Z.Z._ w.Z.Z.Z.Z.Z.Z.Z.Z.Z.Z.Z.Z.Z.C.Z.Z.Z.Z.Z.Z.Z.Z.Z.Z.Z.Z.Z.Z.Z.Z.w.",
"w.Z.Z.Z.Z.Z.Z.Z.Z.Z.Z.Z.Z.Z.Z.Z.Z.Z.Z.Z.Z.Z.Z.Z.Z.Z.Z.Z.Z.Z.Z.w.w.Z.Z.Z.Z.Z.Z.Z.Z.Z.Z.Z.Z.Z.Z.Z.Z.Z.Z.Z.Z.Z.Z.Z.Z.Z.Z.Z.Z.Z.Z.w.",
"w.w.1.w.w.Z.Z.z.z.h.h.h.Z.h.h.b.z.z.Z.Z.l.z.l.l.v.Z.Z.7._ a.1.w.w.1._ w.1.Z.Z.z.z.z.z.z.Z.z.z.z.z.z.Z.Z.z.z.z.z.z.Z.Z.w.w.w.w.w."
};
