/* XPM */
static char *_898607507fb436c879fcf2fef4e87ffMJaJB7klkHziwifD[] = {
/* columns rows colors chars-per-pixel */
"64 64 223 2 ",
"   c #020204",
".  c #0B0305",
"X  c #04030B",
"o  c #0C040B",
"O  c #03090F",
"+  c #0D0A0D",
"@  c #150505",
"#  c #160806",
"$  c #14050A",
"%  c #19060C",
"&  c #140A0D",
"*  c #190A0B",
"=  c #050B13",
"-  c #0C0C13",
";  c #0B0915",
":  c #0A0C19",
">  c #130512",
",  c #1A0511",
"<  c #140C15",
"1  c #1B0C14",
"2  c #120D1A",
"3  c #1D0D1B",
"4  c #0F1017",
"5  c #0C121D",
"6  c #141116",
"7  c #1A1115",
"8  c #13121B",
"9  c #1B131D",
"0  c #210B16",
"q  c #210F1C",
"w  c #25111D",
"e  c #0B0923",
"r  c #190F24",
"t  c #051427",
"y  c #0D1524",
"u  c #0F1924",
"i  c #05122B",
"p  c #08172B",
"a  c #07182D",
"s  c #0B192C",
"d  c #131322",
"f  c #1B1425",
"g  c #121824",
"h  c #191822",
"j  c #11162C",
"k  c #1B162C",
"l  c #13192C",
"z  c #1C1A2C",
"x  c #0C1733",
"c  c #071931",
"v  c #0C1A34",
"b  c #051C3B",
"n  c #0C1C3B",
"m  c #131632",
"M  c #1C1633",
"N  c #131C35",
"B  c #1C1A35",
"V  c #1E173B",
"C  c #131C3A",
"Z  c #1C1B3A",
"A  c #230D22",
"S  c #231224",
"D  c #2B1123",
"F  c #24152A",
"G  c #2B152C",
"H  c #221A2D",
"J  c #291A2E",
"K  c #31132D",
"L  c #2F0F39",
"P  c #231533",
"I  c #2B1633",
"U  c #251A34",
"Y  c #2B1A35",
"T  c #24163B",
"R  c #2C163A",
"E  c #231B3C",
"W  c #2C1A3A",
"Q  c #331533",
"!  c #391335",
"~  c #331936",
"^  c #33163B",
"/  c #3B163D",
"(  c #331A3B",
")  c #3A193D",
"_  c #0E2235",
"`  c #0C223D",
"'  c #142235",
"]  c #1A2234",
"[  c #13233A",
"{  c #1A233C",
"}  c #19293F",
"|  c #252032",
" . c #23213B",
".. c #31233F",
"X. c #40153D",
"o. c #0B1D40",
"O. c #131E40",
"+. c #1C1D42",
"@. c #221D42",
"#. c #2C1B43",
"$. c #2D1E4C",
"%. c #351641",
"&. c #3C1642",
"*. c #341A42",
"=. c #3C1943",
"-. c #3A1548",
";. c #351D4B",
":. c #3C1C4C",
">. c #3B1D52",
",. c #0B2243",
"<. c #0E2946",
"1. c #0E264A",
"2. c #0C294B",
"3. c #122442",
"4. c #1B2342",
"5. c #152943",
"6. c #1A2942",
"7. c #12264A",
"8. c #1B244A",
"9. c #152C4D",
"0. c #192D4C",
"q. c #1F304A",
"w. c #152D52",
"e. c #1B2C53",
"r. c #172F5A",
"t. c #182E5C",
"y. c #163154",
"u. c #1A3255",
"i. c #16325C",
"p. c #1A335C",
"a. c #1C385E",
"s. c #232343",
"d. c #2C2444",
"f. c #252B44",
"g. c #24254A",
"h. c #2B254B",
"j. c #212C4E",
"k. c #2D2E4E",
"l. c #342144",
"z. c #33214B",
"x. c #3B224F",
"c. c #24334F",
"v. c #292655",
"b. c #232B54",
"n. c #2B2A54",
"m. c #2C2D5C",
"M. c #352452",
"N. c #3A2352",
"B. c #352957",
"V. c #332B5C",
"C. c #223354",
"Z. c #2C3050",
"A. c #23345C",
"S. c #2A315C",
"D. c #213958",
"F. c #2A3A5E",
"G. c #323158",
"H. c #173561",
"J. c #1B3662",
"K. c #1D3A64",
"L. c #193669",
"P. c #173C6B",
"I. c #1C3B6B",
"U. c #1D3E72",
"Y. c #262E60",
"T. c #2B2E62",
"R. c #332C61",
"E. c #392D62",
"W. c #233462",
"Q. c #2B3363",
"!. c #223B63",
"~. c #2C3B65",
"^. c #293469",
"/. c #223C6B",
"(. c #293E6A",
"). c #353462",
"_. c #323368",
"`. c #223D73",
"'. c #293D71",
"]. c #3A3C73",
"[. c #421644",
"{. c #421945",
"}. c #441548",
"|. c #491349",
" X c #421A49",
".X c #1C406D",
"XX c #1D4173",
"oX c #1F4379",
"OX c #2C4065",
"+X c #21406C",
"@X c #2F4468",
"#X c #2A486E",
"$X c #334164",
"%X c #33446C",
"&X c #214274",
"*X c #214275",
"=X c #224475",
"-X c #234477",
";X c #2A4376",
":X c #2C4876",
">X c #23447B",
",X c #26477E",
"<X c #2A467D",
"1X c #25497C",
"2X c #27487F",
"3X c #2B4B7D",
"4X c #334574",
"5X c #314A7C",
"6X c #31507A",
"7X c #274D81",
"8X c #2A4A81",
"9X c #2B4A81",
"0X c #2B4C80",
"qX c #2A4E83",
"wX c #294B85",
"eX c #2D4A84",
"rX c #284D84",
"tX c #2B4C85",
"yX c #294C86",
"uX c #314C81",
"iX c #2C5185",
"pX c #2B5188",
"aX c #335387",
/* pixels */
"D.D.s a p a p a p p p a p p p p a p p p p a p p p a a p a v a.D.p p a a a p p p p a p p p p a a u a a p a a p a p p 0.u.D.D.D.D.",
"D.6Xv p p a p p p t a a p p p p p s p a p p p p p t p p s v 6XD.p p a a u a p a a a p a p p a a a a p p a p p p p p 0.6X6X6X6XD.",
"s _ [ [ ' [ [ [ ' ' ' ' [ ' ' _ [ ' [ _ ' ' ' ' _ [ [ _ [ _ c i ' [ [ [ [ [ _ [ _ [ ' [ ' [ ` [ [ _ [ [ [ [ ' ' [ [ ' s 5.6X6XD.",
"a a l _ 5.9.9.w.y.y.y.9.9.y.9.y.w.9.w.w.y.9.y.y.6...( } w.7.i t [ [ 9.0.9.9.0.9.y.9.9.9.9.9.0.0.0.9.9.9.9.9.9.y.9.u.9.p [ 6X6XD.",
"p a u ' q.K.I.I.U.L.I.I.P.I.I.I.I.I.L.U.I.L.I.I.m.&.&.z.I.L.t i 3.3.!.I..XP.P.I.I.K.I.I.I.I././..X.XK.I.I.I.I.I.I./.p.a ' 6X6XD.",
"p p 5 _ 9..XU.XXU.U.U.XXXXXXU.U.U.U.U.U.U.U.U.U.^.M.[.M.U.L.i i [ 3./.U.XXXXU.*X`.XXXX&XU.U.^.!.+X.XXX`.*XXXI.U.XXU.r.s } 6X6X6X",
"a p 5 _ 9..X.X.XU.U.XXP.U.U.U.P.XX.XU.XXU.U.XXU.`.^.A.W.U.K.i t ` ` I.U.I..XXXXX.XU.XX/.I.I.m.;.Q.I.XX.XI.I.XXXX*X/.y.p } 6X6X6X",
"p p l 5.u.+X=X=X=XXX=X=X=X=X=X=X=X=XXX-X-XXX=X=X=XXXI.A.=XI.i i [ [ /.=X=X*X*X*X&XXX>X*X=X*XT.>.Q.=X*X*X=X=X*X*XXX=Xy.u } 6X6X6X",
"p p ' p./.<X3X9X8X8X8X8X8X8X3X8X0X9X3X8X8X8X8X8X3X`.h.h.8X=Xt i  . .:X3X9X9X3X<X2X2X2X,X,X,X;X4X<X2X2X2X2X2X2X2X8X2Xp.a [ 6X6X6X",
"p p [ U.-X9XeXeX<X;X(.,XyXyXtXyXtXyXtXtXtXtXyXyXeX(.W k.wX`.i i  .W 5XqXeXyXyXwXwXyXyXyXwXwX<XuXeXyXyXyX8X8XyXyXrX3XOXp } 6X6X6X",
"p p } U.>X8XuX9X^.g.g.(.0X0X0X0X3X3XqXqX3X0X0X3X8X~.*.N.8X;Xi t W W :X8X0X9XqXyXrXyXyXyXyX8X(.V.].wXrXyXyXrXyXyXyXiXOXp 6.6X6X6X",
"p p N i.I.`.`.`.b.R h.(.(.+X(.OX+X(.(.OXOX+X%X(.(.V.{.x.+XA.i t W W '.'.`.(.`./.+X+X&X+X`./.M.&.V.`./.=X+X.X*X.X.X+Xy.s } 6X6X6X",
"s p 5 a s x C N T %.R x x x x x v v x x x x c c x P {.%.c x i i *.( m x x x x a x x s a x m R  XW x x s x x x x a c c p <.6X6X6X",
"p p y u g s s s E =.#.m s p p p p a p p p p a a p Z {.*.a t i t {. Xp a s a p a p p p p p s W [.T p p p a s p t p p c v [ 6X6X6X",
"p p N 3.7.<.<.,.@.[.;.8.2.2.2.2.2.2.2.2.1.2.2.2.2.g.[.;.2.2.t i {.[.8.1.1.2.2.7.7.2.2.7.7.7.$.X.v.1.2.7.7.7.2.7.7.7.7.` 6.6X6X6X",
"p p .X*X*X=XA.,.W  XB.;XXX=XXXXXoXXXXXXX=XXXXXXXU.Q.{.M.U.L.i t {. X(.U.=XXX`.`.=X`.`.`.`.`.V.[.].`.;X`.`.`.>X`.`.,X/.a [ 6X6X6X",
"p p +X>Xt.n c x W =.@.b b b b b b b b b b b b b b +.[.:.g.@.i i [. XO.b b b n c b b n c n n W %.n.n n c c n b v t.uX!.j 6.6X6X6X",
"p p .X=Xw.x a x E =.#.p x a c b a c c b x c c c c Z  X[.%.W t i [. Xm c a c x a p a x s x i i m s a x x a a v p u.5X!.j } 5X6X6X",
"p p +X=Xy.x s v Z ( E o.o.,.o.,.o.,.,.o.,.o.,.o.,.@.=.l.R.B.i t  X&.j n o.o.,.` o.o.,.` n o.x k C ` ,.` o.,.o.n W.uX!.j } 6X6X6X",
"p p +XXXw.x s v B W @./.`.>XU.U.=XU.U.`.oXoXU.t.C E &.M.uX;Xi i &.-.N n i.U.>X>X=X;X>X;X=X`.v./ m.=X*XXX.X/.p.n u.uX!.a [ 6X6X6X",
"p p .X=Xw.x s v B T g./.>X>X>XoX>X>X>X>XoXi.w.8.#.^ %.B.aX<Xi t %.( l c 7.i.P.=XXXoXoXoXoX`.;./ R.>XU.>X<X3Xw.c u.uX/.i o.6X6X6X",
"p p +XXXw.N s v C R d.^.`.`.`.U.`.U.U.L.*X7.b @.%.&.( B.aX<Xi i W W l x [ 7.J.I.`.I.U.U.I.!.*.[.R.XX`.U.>XtXw.i p.yXK.i 3.5X6X6X",
"p a +X>Xy.v s v V T $.>.R.T.`.^.`.`.U.O.g.#.%.%.[.%.^ h.>XU.t t U Y l x [ 8.p.I.I.P.XXXXw.4.@.}.V.U.U./.1XiXw.i w.3XK.c 3.6X6X6X",
"p p +X=Xw.v s s V T %.|.>.E.`.`.`.U.U.b +.-.[.&.&./ W g.`.I.i i Y U l s [ 7.J.I./..XoX2X7.m T [.B.`.U.I.-XiXw.s w.yX!.i ,.6X6X6X",
"a p .X*Xw.v s _ Z Z Y *.:.N.T.T.T.Y.Y.+.#.&.[.&.%./ P 8.`.I.i i U U l s [ 3.H.K.a.u.D.a.,.N B R g.p.K..X>XiXr.i w.qXI.i ,.6X6X6X",
"p p +X=Xw.x s ' [ C  .W *.=.;.:.>.$.-.-.{.[.[./ ^ P m w.`.I.t i T W j s { 7.H.i.9.5.[ C x n M m C <.u..X2XyX1.i w.yXJ.c 3.5X6X6X",
"a p +XXXw.N s n 3.5.6.Z E ( ^ / &.T #.%.%.*.%.z.B.@.x 7.*X!.i i U U j N [ 7.H.H.y.u.0.0.O.C T P 4.9.a..XoXiXw.i w.qXJ.i [ 6X6X6X",
"p p +X=Xw.x s [ 9.K.u.v v C B Y R R T R ( ( ( G.4X^.o.O.*XK.i i I U j s [ 3.H.I.I.*X=X:Xe.B R &.n.P..XXXoX3X1.c i.1XJ.i ,.6X6XD.",
"p a +X=Xw.x s [ 9.J.r.v N C Z U P Q ~ ( ( %.^ ).3XI.n O.>X/.p y U Y j x { 4.a.P.K.J.!.(.b.U ^ }.n.K.K..XXX3X7.i w.2XJ.i 3.6X6XD.",
"p p +XXXy.x s _ 0.J.H.C C B U l l U Y =. X|.[.).5X/.n 1.&X/.P Y Y U j s ' [ i.i.3.n x j P R %.=.E <.i.XXXX1X9.i 1.(.J.i 3.5X6XD.",
"p p .X=Xw.N s ' 9.J.t.C C V %.,.3.4.s.*.=.=.%.B.].S.n C !.A.( Y U Y j l [ [ p.H.w.9.7.3.#.( *.M.8.w.i.U.oXqXw.i ` j.4.a ` 6X6XD.",
"p a +X*Xw.x s ' 9.a.t.C C +.:.I.I.I./.l.W I I &. X( 8 - $ A {.&.R W j s [ 3.a..X+X*X+X(.N.&.R./.XXU.U.U.=XyXw.i 5 & - u n D.D.D.",
"p p .XoXr.x s C 0.J.t.n C T -..X.X.XA.W W R W =. X( y 8 1 q {.) *.R j l [ 3.J.P..XXXI.(.N. XT.I.I.XXU.U.>XyXw.i : < 2 u n D.D.D.",
"p p +X=Xw.c s [ 7.J.H.C C E |.h.7.U.U././.[ B U W P s g S K {.X.R W j x [ 6.a.I.P..Xi.[ *. X^.XXXXXXU.U.<XpX7.j T ^ G 9 { 5X6XD.",
"p p +XoXw.N s _ 0.J.t.C C R {.*.Z `.=X`./.3.N Z Y P x M U ~ {.X.R R N l [ 3.H.I..X!.b.P *.:.R.^.'.-X`.(.>X:Xw.y R :.K > { 6X6XD.",
"p a +XXXw.U U [ 0.J.I.L.L.W.Z =.*.8.3.,.n C N U W ^ ^ W I ~ [.[.W W N C *.$.Y.a.9.,.E ) ^ ^ ;.;.`.U.w.,.p.3X7.y I =.K * { 6X6XD.",
"p p +XXX+Xl.E { 7.K.`.XXoXI.m =.=.T B x v x N E I ^ ) ( Y ~  X:.G T N { %.;.Q.A.@.T R ^ R T ( -._.P.<.s w.3Xe.j I ..K > { 6X6XD.",
"p a +X=XQ.=. .6.w.J.U.XXXXI.m {.=.%.#.C C x v E %.) Y U U J %.^ 3 r N N W *.M.;.;.%.^ W Z m ( L T.I.y._ y.<Xe.M ~ X.X.K I  .{ 6X",
"p a +XXXm.(  .{ 7.J.I.p.H.e.B ;.-. X XZ Z @.+.W %.( H H z h W F $ < v N U T ;.*.R R *.z.m n Z R b.T.g.s.b.~.g.P G K ! ) Q , 2 6X",
"p s +X=Xe.Z [ 3.0.J.H.O.3.Z *.).).:.&.%.%.:.*.W Y S 7 7 6 6 I H e f.C N C Z E Z B Z n.'.J.H.W.Q.$.>.;.*.;.h.Z M 9 1 A Y G , - 6X",
"p p +X*Xw.N N [ 9.a.t.C B T =.Q.W.*.*.>.>.;.*.l. .| & & # 7 J Y B A.[ [ [ 3.8.3.n C e./.I.I.I.(.$.*.:.>.;.W B M f 0 S ~ J $ - 6X",
"p a .X=Xu.E [ [ 9.J.p.E U ^ [.l z { +.T.Q.8.4.S.%Xc.8 6 # 0 ....Y Z C N _ y.a.9.3.[ O.3.3.[ 3.3.s.E n.Q.b.Z E E I K / ) Q % < 6X",
"p p .X=XS.*.E [ 0.J.A.W ~ ) X.$ < ' _ K.I.9.,./.aXK.5 6 * 0 {.X.^ @.C C [ a..Xa.3.3.v s s p s t [ [ u.`.t.C Z W *.[.[.&.Q 0 2 6X",
"p p .X&Xm.*.@.B 0.!.e.*.~ ) G H N 6.7.I.I.y.w./.uX!.- 9 w K {.X./ W C N { y./.J.w.7.7.7.,.1.<.,.0.7.K.I.t.O.Z ( &.[.X.) G , - 6X",
"p p .X=XA.x.*.4.u.A.E =.[.G d ~.aXK..XI.U.U.XX7X6XC.- w X.) {.|.[.( C N [ u././.^.I.+X:X2X2X<X:XI.I..X`.r.n W =.&.[./ ( q % 2 5X",
"a p !.(.Q.:.*.{  .W *.{.{.Q F 8.5X7.6.u.J..XP.7XaXD.- q ( X.{.{.( ~ m j ' a.+XJ.y.y.9.y.9.0.0.0.0.9.J.*Xp._ Z ) / ^ I F @ @ < 5X",
"p p f Y ( {.%.~ ( / [.[.[.) R x u y s [ 3.a./.>X3Xu.o 6 ..( {.) I J > 2 j u..X7._ _ a a s a a v [ ,.u..Xr.v B P I W S , % @ - 6X",
"p p f z Y %.R Y ( X.[.|.[.[.%.M l < 8 ' [ 0.u.0.} ] 8 f Y Y Y ~ ( I S f 8 5.!.a.t.u.y.w.w.w.2.y.y.y.K.I.I.p.8.M U U G D w $ 2 6X",
"a p 8 z Y Y W U W *.[.|.|.|.{.( | @ $ ] 5.[ ' y O - H H z H H J *.*.Y F $ ] F.!./.+X=XXX=XXX=X`.XXXXU.U.>XpXi.N U W *.{.! , < 6X",
"e 2 3 3 9 z U Y ( ^ *.( ^ / I H H 9 h : 5 = O h f r P U Y Y ( ) [.&.^ Y F k d p n <.7.9.7.7.7.9.9.7.7.3.3.7.n N U R &. X! % 2 6X",
"V I % $ 2 d l Y W W Y H H I W U H z z         8 ~ ( ( W ( ^ [.{.) / ( W R 3 % 8 ' ' [ [ ' [ [ [ [ ' ' ' ' ` c j M I ( =.Q o < 6X",
"Z I f 8 3 k U M k f F H Y / ) / ) Q ..f 8 + O + 1 A ( *.) &.[.&.~ / ( ~ ( 3 $ $ < 8 - - - - = - = O = O p n C U Y W ( ^ ~ Q ~ H ",
"T R z 8 h W Y k 9 < 3 I ( ) [.X.X.[.X.J z o     . 3 ( ) [.{. X%.I ~ ~ I W q % $ @ @                     5 c E Y ( W R ^ ^ {./ $ ",
"{ F f z k P U j d 2 9 Y Y ~ {.X.! ) ..J z 8 + $ $ 0 ( *.{.{. X) I Y R Y U f < , % @ @ . o - + - - - - - g m U Y Y I ^ Q / [./ % ",
"d 6 9 | z k j z z H J Y W W ( | Y H U j a y u & # 0 ..( X.{.{.) I Y Y U k g d < & @ $ & 4 y y u u u u u z H Y Y ^ ~ / X.X.[.) % ",
": & f ( P U H U Y Y ( Y | Y J z l g z y y 4 4 # @ 0 ~ ~ / &.{.( k M k k U l k d < & $ $ + ; : : : : : 4 f F ~ ) / / X.[.[.&.) , ",
"f A I Y Y Y Y I ^ ( ( I H H H h y g k < $ $ # # # * f F ~ ) [.( y j d k U ^ ( I F S < o . o X X X X X $ # 1 K [.&.{.[.[.{.{...% ",
"E W ~ W d.k.k.Y ^ / ( U U U I I P k k 3 1 @ # * 1 q A G ( / %.^ M M P T R ^ %.~ G F l { { ] N ' N ' ' { ] ] U K K Q Q Q ! Q ~  .",
"k.^ W Y Z.%X$Xl.Y R W W W *.{.&.&.( Y I F & 6 9 G ( {.{.{.&.^ ^ R R &.[.{.%.( F < < 6.6X6X6X6X6X6X6X6X6X6X6X{ 2 , $ $ $ % % d 5X",
"c.h.h.f.S.6X@XZ.h.h.h.W W *.&.&.&.h.h.d.d.B ] H S ~ =.[.X.&.^ ( ^ R -.&./ Q I F z ' D.6X6X6X6X6X6X6X6X6X6X6X6.] B h f h h h ] D.",
"a.6X6X6X6X6X6X6X6X6X~.W W W ( ~ W 6X6X6X6X6X6X] + 9 ~ ^ &.[.) %.~ Y ( I 1 @ $ C.6X6X6X6X6X6X6X6X6X6X6X6X6X6X6X6X6X6X6X6X6X6X6XD.",
"D.6X6X6X6X6X6X6X6X6XOXs.l.l.l.W  .6X6X6X6X6X6X{ < w ( %.:.&.[.%.^ Y Y J 9 * 1 D.6X6X6X6X6X6X6X6X6X6X6X6X6X6X6X6X6X6X6X6X6X6X6XD.",
"D.6X6X6X6X6X6X6X6X6X6X6X6X6X6X6X6X6X6X6X6X6X6X6X6XF.I ( ( *.%.F > * % 2 OX6X6X6X6X6X6X6X6X6X6X6X6X6X6X6X6X6X6X6X6X6X6X6X6X6X6XD.",
"D.D.D.D.D.6X6X#X#X#X#X#X6X#X#X#X#X#X6X6X#X#X#X#X#XF.k Y U U E z . # * ; 0.6X6X#X#X#X#X#X6X#X#X#X#X#X6X6X#X#X#X#X#X6X6Xa.D.D.D.D."
};
